<svg width="500" height="500" viewBox="0 0 500 500" fill="none" xmlns="http://www.w3.org/2000/svg">
<g clip-path="url(#clip0_3365_57206)">
<path d="M250 500C388.071 500 500 388.071 500 250C500 111.929 388.071 0 250 0C111.929 0 0 111.929 0 250C0 388.071 111.929 500 250 500Z" fill="#0D0D0D"/>
<path d="M108 134L193.5 192.5L162.5 281L73.5 212.5L64 134H108Z" fill="url(#paint0_linear_3365_57206)"/>
<path d="M95 179L131.5 234L163 260.5L175.5 239L95 179Z" fill="url(#paint1_linear_3365_57206)"/>
<path d="M99 221L167.5 255L171 288L117 246L99 221Z" fill="url(#paint2_linear_3365_57206)"/>
<path d="M170 264.5L108 134L172 259.5L170 264.5Z" fill="#9C9572"/>
<path d="M115 253L157.5 247L209 314.5L161.5 371.5L108 302.5L115 253Z" fill="#FFFAE7"/>
<path d="M162.5 309L174.5 301.5L193.5 292L184 250L113.5 264.5L111.5 278L162.5 309Z" fill="url(#paint3_linear_3365_57206)"/>
<path d="M113 264.5L151.5 255L188 269.5L154.5 300L112 277.5L113 264.5Z" fill="#B7B08A"/>
<path d="M123.5 262L150 297.5L111.5 278L113.5 264.5L123.5 262Z" fill="#D0CAAF"/>
<path d="M135.5 278.5L167 264.5L187 287.5L155 304.5L135.5 278.5Z" fill="url(#paint4_linear_3365_57206)" fill-opacity="0.5"/>
<path d="M135.5 319.5L170 291L183.5 297L136.5 339L136 338.5L135.5 319.5Z" fill="url(#paint5_linear_3365_57206)"/>
<path d="M136.5 339L170 296.5L180 299L161 371.5L136.5 339Z" fill="url(#paint6_linear_3365_57206)"/>
<path d="M153 318.5L170 296.5L180 299L161 371.5L153 318.5Z" fill="url(#paint7_linear_3365_57206)"/>
<path d="M130.5 160.5L191 222.294L175.5 250.5L130.5 160.5Z" fill="#A09353"/>
<path d="M190 239L161 221L174 250L190 239Z" fill="#0E1100" fill-opacity="0.5"/>
<path d="M108 134L191 222.294L187.048 229L108 134Z" fill="#D7D1B6"/>
<path d="M108 134L191 222.294L187.048 229L108 134Z" fill="#D7D1B6"/>
<path d="M161.5 371.5L175 302L199.5 327L161.5 371.5Z" fill="url(#paint8_linear_3365_57206)"/>
<path d="M392 134L306.5 192.5L337.5 281L426.5 212.5L436 134H392Z" fill="url(#paint9_linear_3365_57206)"/>
<path d="M405 179L368.5 234L337 260.5L324.5 239L405 179Z" fill="url(#paint10_linear_3365_57206)"/>
<path d="M401 221L332.5 255L329 288L383 246L401 221Z" fill="url(#paint11_linear_3365_57206)"/>
<path d="M330 264.5L392 134L328 259.5L330 264.5Z" fill="#9C9572"/>
<path d="M385 253L342.5 247L291 314.5L338.5 371.5L392 302.5L385 253Z" fill="#FFFAE7"/>
<path d="M337.5 309L325.5 301.5L306.5 292L316 250L386.5 264.5L388.5 278L337.5 309Z" fill="url(#paint12_linear_3365_57206)"/>
<path d="M387 264.5L348.5 255L312 269.5L345.5 300L388 277.5L387 264.5Z" fill="#B7B08A"/>
<path d="M376.5 262L350 297.5L388.5 278L386.5 264.5L376.5 262Z" fill="#D0CAAF"/>
<path d="M364.5 278.5L333 264.5L313 287.5L345 304.5L364.5 278.5Z" fill="url(#paint13_linear_3365_57206)" fill-opacity="0.5"/>
<path d="M364.5 319.5L330 291L316.5 297L363.5 339L364 338.5L364.5 319.5Z" fill="url(#paint14_linear_3365_57206)"/>
<path d="M363.5 339L330 296.5L320 299L339 371.5L363.5 339Z" fill="url(#paint15_linear_3365_57206)"/>
<path d="M347 318.5L330 296.5L320 299L339 371.5L347 318.5Z" fill="url(#paint16_linear_3365_57206)"/>
<path d="M369.5 160.5L309 222.294L324.5 250.5L369.5 160.5Z" fill="#A09353"/>
<path d="M310 239L339 221L326 250L310 239Z" fill="#0E1100" fill-opacity="0.5"/>
<path d="M392 134L309 222.294L312.952 229L392 134Z" fill="#D7D1B6"/>
<path d="M392 134L309 222.294L312.952 229L392 134Z" fill="#D7D1B6"/>
<path d="M338.5 371.5L325 302L300.5 327L338.5 371.5Z" fill="url(#paint17_linear_3365_57206)"/>
<path d="M147.5 272.5L233.5 355.5L250 342.5V284L168.5 263L147.5 272.5Z" fill="url(#paint18_linear_3365_57206)"/>
<path d="M352.5 272.5L266.5 355.5L250 342.5V284L331.5 263L352.5 272.5Z" fill="url(#paint19_linear_3365_57206)"/>
<path d="M250.001 83.0732L247.731 90.685V311.443L250.001 313.647L352.433 253.082L250.001 83.0732Z" fill="#B6AD8E"/>
<path d="M249.999 83.0732L147.5 253.082L249.999 313.647V206.539V83.0732Z" fill="#DED9C9"/>
<path d="M250.001 333.077L248.732 334.613V413.274L250.001 416.946L352.5 272.512L250.001 333.077Z" fill="#B6AD8E"/>
<path d="M249.999 416.946V333.077L147.5 272.512L249.999 416.946Z" fill="#DED9C8"/>
<path d="M250.006 313.647L352.439 253.083L250.006 206.539V313.647Z" fill="#B6AD8E"/>
<path d="M147.5 253.083L249.999 313.647V206.539L147.5 253.083Z" fill="#DED9C9"/>
</g>
<defs>
<linearGradient id="paint0_linear_3365_57206" x1="64" y1="137" x2="197.5" y2="264.5" gradientUnits="userSpaceOnUse">
<stop stop-color="#E8E5DD"/>
<stop offset="1" stop-color="#9E9569"/>
</linearGradient>
<linearGradient id="paint1_linear_3365_57206" x1="167.5" y1="240.5" x2="102.5" y2="200.5" gradientUnits="userSpaceOnUse">
<stop stop-color="#AAA278"/>
<stop offset="1" stop-color="#DAD5C3"/>
</linearGradient>
<linearGradient id="paint2_linear_3365_57206" x1="99" y1="215.5" x2="166.5" y2="280.5" gradientUnits="userSpaceOnUse">
<stop stop-color="#9C9055"/>
<stop offset="1" stop-color="#36321D"/>
</linearGradient>
<linearGradient id="paint3_linear_3365_57206" x1="167.5" y1="314.5" x2="100.5" y2="256" gradientUnits="userSpaceOnUse">
<stop stop-color="#151401"/>
<stop offset="1" stop-color="#827633"/>
</linearGradient>
<linearGradient id="paint4_linear_3365_57206" x1="161.5" y1="264.5" x2="161.5" y2="303.5" gradientUnits="userSpaceOnUse">
<stop stop-color="#645A20"/>
<stop offset="1" stop-color="#7E7331"/>
</linearGradient>
<linearGradient id="paint5_linear_3365_57206" x1="135" y1="336" x2="201" y2="272.5" gradientUnits="userSpaceOnUse">
<stop stop-color="#CEC7AD"/>
<stop offset="1" stop-color="#948949"/>
</linearGradient>
<linearGradient id="paint6_linear_3365_57206" x1="158.5" y1="299" x2="158.5" y2="371.5" gradientUnits="userSpaceOnUse">
<stop stop-color="#CFCAB1"/>
<stop offset="1" stop-color="#E6E3D8"/>
</linearGradient>
<linearGradient id="paint7_linear_3365_57206" x1="158.5" y1="299" x2="158.5" y2="371.5" gradientUnits="userSpaceOnUse">
<stop stop-color="#CFCAB1"/>
<stop offset="1" stop-color="white"/>
</linearGradient>
<linearGradient id="paint8_linear_3365_57206" x1="180.5" y1="302" x2="180.5" y2="371" gradientUnits="userSpaceOnUse">
<stop stop-color="#807327"/>
<stop offset="1" stop-color="#918642"/>
</linearGradient>
<linearGradient id="paint9_linear_3365_57206" x1="436" y1="137" x2="302.5" y2="264.5" gradientUnits="userSpaceOnUse">
<stop stop-color="#E8E5DD"/>
<stop offset="1" stop-color="#9E9569"/>
</linearGradient>
<linearGradient id="paint10_linear_3365_57206" x1="332.5" y1="240.5" x2="397.5" y2="200.5" gradientUnits="userSpaceOnUse">
<stop stop-color="#AAA278"/>
<stop offset="1" stop-color="#DAD5C3"/>
</linearGradient>
<linearGradient id="paint11_linear_3365_57206" x1="401" y1="215.5" x2="333.5" y2="280.5" gradientUnits="userSpaceOnUse">
<stop stop-color="#9C9055"/>
<stop offset="1" stop-color="#36321D"/>
</linearGradient>
<linearGradient id="paint12_linear_3365_57206" x1="332.5" y1="314.5" x2="399.5" y2="256" gradientUnits="userSpaceOnUse">
<stop stop-color="#151401"/>
<stop offset="1" stop-color="#827633"/>
</linearGradient>
<linearGradient id="paint13_linear_3365_57206" x1="338.5" y1="264.5" x2="338.5" y2="303.5" gradientUnits="userSpaceOnUse">
<stop stop-color="#645A20"/>
<stop offset="1" stop-color="#7E7331"/>
</linearGradient>
<linearGradient id="paint14_linear_3365_57206" x1="365" y1="336" x2="299" y2="272.5" gradientUnits="userSpaceOnUse">
<stop stop-color="#CEC7AD"/>
<stop offset="1" stop-color="#948949"/>
</linearGradient>
<linearGradient id="paint15_linear_3365_57206" x1="341.5" y1="299" x2="341.5" y2="371.5" gradientUnits="userSpaceOnUse">
<stop stop-color="#CFCAB1"/>
<stop offset="1" stop-color="#E6E3D8"/>
</linearGradient>
<linearGradient id="paint16_linear_3365_57206" x1="341.5" y1="299" x2="341.5" y2="371.5" gradientUnits="userSpaceOnUse">
<stop stop-color="#CFCAB1"/>
<stop offset="1" stop-color="white"/>
</linearGradient>
<linearGradient id="paint17_linear_3365_57206" x1="319.5" y1="302" x2="319.5" y2="371" gradientUnits="userSpaceOnUse">
<stop stop-color="#807327"/>
<stop offset="1" stop-color="#918642"/>
</linearGradient>
<linearGradient id="paint18_linear_3365_57206" x1="198.75" y1="246" x2="244.5" y2="331" gradientUnits="userSpaceOnUse">
<stop stop-color="#867832"/>
<stop offset="1" stop-color="#6B623B"/>
</linearGradient>
<linearGradient id="paint19_linear_3365_57206" x1="239" y1="331.5" x2="339" y2="207.5" gradientUnits="userSpaceOnUse">
<stop stop-color="#3D3616"/>
<stop offset="1" stop-color="#6B623B"/>
</linearGradient>
<clipPath id="clip0_3365_57206">
<rect width="500" height="500" fill="white"/>
</clipPath>
</defs>
</svg>
