<svg width="123" height="123" viewBox="0 0 123 123" fill="none" xmlns="http://www.w3.org/2000/svg">
<circle cx="61.5" cy="61.5" r="61.5" fill="#45724D"/>
<path d="M70.4518 58.6903L65.8735 58.8048V62.1258L70.4518 61.8968V58.6903ZM19.8614 72.5468L20.3193 74.9516L18.8313 70.7145L18.3735 68.3097L19.8614 72.5468ZM70.4518 55.3694L65.8735 55.2548V58.6903L70.4518 58.5758V55.3694Z" stroke="white" stroke-width="0.4" stroke-miterlimit="10"/>
<path d="M65.8735 55.2548L62.2109 55.4839V59.1484L65.988 58.8048L65.8735 55.2548ZM75.488 55.9419L70.4518 55.4839V58.6903L75.488 58.9194V55.9419ZM80.6386 56.629L75.488 55.8274V58.8048L80.6386 59.3774V56.629ZM70.5663 52.1629L65.988 51.8194V55.3694L70.5663 55.4839V52.1629ZM18.3735 68.3097L18.8313 70.7145L17.8012 66.3629L17.3434 63.9581L18.3735 68.3097Z" stroke="white" stroke-width="0.4" stroke-miterlimit="10"/>
<path d="M75.7169 52.85L70.5663 52.1629L70.4518 55.4839L75.488 55.9419L75.7169 52.85ZM75.7169 52.85L80.8675 53.8806L80.753 56.7436L75.6024 55.9419L75.7169 52.85ZM65.988 51.7048H62.0964L62.2108 55.4839L65.988 55.2548V51.7048Z" stroke="white" stroke-width="0.4" stroke-miterlimit="10"/>
<path d="M62.0964 51.7048L59.2349 52.0484L59.3494 56.0565L62.0964 55.4839C62.2108 55.4839 62.0964 51.7048 62.0964 51.7048ZM70.7952 48.8419L65.9879 48.1548V51.7048L70.5663 52.0484L70.7952 48.8419Z" stroke="white" stroke-width="0.4" stroke-miterlimit="10"/>
<path d="M75.9458 49.8726L70.6807 48.8419L70.5663 52.1629L75.7169 52.85L75.9458 49.8726ZM65.988 48.1548L61.9819 47.9258L62.0964 51.7048H65.988V48.1548ZM85.6747 55.1403L80.8675 53.8807L80.6386 56.629L85.4458 57.6597L85.6747 55.1403ZM20.3193 74.9516L21.1205 77.2419L19.6325 73.1194L18.8313 70.829C18.8313 70.7145 20.3193 74.9516 20.3193 74.9516Z" stroke="white" stroke-width="0.4" stroke-miterlimit="10"/>
<path d="M81.2108 51.1323L75.9458 49.8726L75.7169 52.85L80.8675 53.8806L81.2108 51.1323ZM17.4578 63.8435L17.9157 66.2484L17.4578 61.7823L17 59.4919L17.4578 63.8435ZM81.7831 35.6726L73.7711 33.1532L73.4277 33.0387L81.0964 35.5581L81.7831 35.6726ZM70.9096 45.6355L65.8735 44.7194V48.1548L70.6807 48.8419L70.9096 45.6355ZM61.9819 47.9258L59.006 48.0403L59.3494 52.0484L62.2108 51.7048C62.0964 51.7048 61.9819 47.9258 61.9819 47.9258ZM65.759 30.9774L58.4337 29.3742L59.006 29.8323L65.759 31.4355V30.9774Z" stroke="white" stroke-width="0.4" stroke-miterlimit="10"/>
<path d="M73.4277 33.0387L65.759 30.9774V31.4355L72.9699 33.3823L73.4277 33.0387ZM76.4036 46.8952L71.0241 45.6355L70.7952 48.8419L76.0602 49.8726C75.9458 49.8726 76.4036 46.8952 76.4036 46.8952ZM65.9879 44.8339L61.753 44.3758L61.9819 48.0403L65.9879 48.2694V44.8339ZM86.1325 52.621L81.2108 51.1323L80.8675 53.8806L85.6747 55.1403L86.1325 52.621Z" stroke="white" stroke-width="0.4" stroke-miterlimit="10"/>
<path d="M81.0964 35.5581L73.4277 33.0387L73.0843 33.3823L80.4096 35.7871C80.2952 35.7871 81.0964 35.5581 81.0964 35.5581ZM81.0964 35.5581L81.7831 35.6726L89.3373 38.5355L88.3072 38.3065L81.0964 35.5581ZM81.7831 48.3839L76.4036 46.8952L75.9458 49.7581L81.2108 51.0177L81.7831 48.3839ZM71.253 42.6581L65.9879 41.5129V44.7194L71.0241 45.6355C70.9096 45.6355 71.253 42.6581 71.253 42.6581ZM72.9699 33.3823L65.759 31.4355V32.4661L72.512 34.2984L72.9699 33.3823Z" stroke="white" stroke-width="0.4" stroke-miterlimit="10"/>
<path d="M76.8614 44.1468L71.253 42.6581L71.0241 45.6355L76.4036 46.8952L76.8614 44.1468ZM65.759 31.4355L59.006 29.9468L59.5783 31.0919L65.8735 32.4661L65.759 31.4355ZM61.753 44.2613L58.4337 44.1468L58.8916 48.0403L61.8675 47.9258C61.9819 47.9258 61.753 44.2613 61.753 44.2613Z" stroke="white" stroke-width="0.4" stroke-miterlimit="10"/>
<path d="M65.988 41.6274L61.4096 40.9403L61.753 44.3758L65.988 44.8339V41.6274ZM18.8313 70.7145L19.6325 73.0048L18.7169 68.6532L17.9157 66.2484L18.8313 70.7145ZM80.2952 35.7871L72.9699 33.3823L72.6265 34.2984L79.6084 36.5887L80.2952 35.7871ZM71.4819 40.0242L65.8735 38.65V41.5129L71.1386 42.6581L71.4819 40.0242ZM82.4699 45.979L76.8614 44.2613L76.4036 47.0097L81.7831 48.4984L82.4699 45.979ZM72.6265 34.4129L65.8735 32.5806V34.1839L72.2831 35.9016L72.6265 34.4129Z" stroke="white" stroke-width="0.4" stroke-miterlimit="10"/>
<path d="M71.4819 40.0242L77.4337 41.7419L76.747 44.1468L71.1386 42.6581L71.4819 40.0242ZM71.4819 40.0242L65.8735 38.65V36.1306L71.8253 37.7339L71.4819 40.0242ZM59.5783 31.0919L65.8735 32.4661L65.988 34.0694L60.1506 32.8097L59.5783 31.0919ZM59.5783 31.0919L54.0843 30.1758L53.0542 29.0306L59.006 29.9468L59.5783 31.0919ZM86.8193 50.2161L81.7831 48.4984L81.2108 51.1323L86.1325 52.621L86.8193 50.2161ZM88.3072 38.3065L81.0964 35.5581L80.2952 35.9016L87.1627 38.5355L88.3072 38.3065ZM17 59.4919L17.4578 61.8968L17.5723 57.5452L17.1145 55.0258L17 59.4919Z" stroke="white" stroke-width="0.4" stroke-miterlimit="10"/>
<path d="M72.2831 35.7871L65.8735 34.0694V36.1306L71.8253 37.7339L72.2831 35.7871ZM72.2831 35.7871L72.6265 34.2984L79.6084 36.5887C79.6084 36.5887 78.8072 37.9629 78.8072 37.8484L72.2831 35.7871ZM65.8735 38.65L60.9518 37.7339L61.2952 40.8258L65.8735 41.5129V38.65Z" stroke="white" stroke-width="0.4" stroke-miterlimit="10"/>
<path d="M78.1205 39.6806L71.8253 37.7339L71.4819 40.0242L77.4337 41.7419L78.1205 39.6806ZM90.253 54.2242L86.1325 52.621L85.6747 55.1403L89.6807 56.5145C89.7952 56.5145 90.253 54.2242 90.253 54.2242ZM51.9096 28.4581L46.3012 28L47.9036 28.5726L52.9398 28.9161L51.9096 28.4581Z" stroke="white" stroke-width="0.4" stroke-miterlimit="10"/>
<path d="M78.8072 37.9629L72.2831 35.9016L71.9398 37.8484L78.1205 39.7952L78.8072 37.9629ZM65.8735 34.0694L60.0361 32.8097L60.494 35.1L65.8735 36.2452V34.0694Z" stroke="white" stroke-width="0.4" stroke-miterlimit="10"/>
<path d="M83.2711 43.8032L77.4337 41.7419M83.2711 43.8032C83.2711 43.8032 82.4699 45.979 82.4699 45.8645L76.8614 44.1468L77.4337 41.7419M83.2711 43.8032L84.1868 41.8565L78.1205 39.6806L77.4337 41.7419M65.8735 36.1306L60.494 34.9855L60.9518 37.7339L65.8735 38.65V36.1306ZM61.4096 40.8258L57.747 40.5968L58.4337 44.2613L61.753 44.3758L61.4096 40.8258ZM87.2771 38.5355L80.4096 35.9016L79.6084 36.7032L86.247 39.2226L87.2771 38.5355ZM44.8133 28.1145L39.8916 28.3435L41.9518 28.229L46.4157 28L44.8133 28.1145ZM87.6205 47.9258L82.4699 45.979L81.7831 48.4984L86.8193 50.2161L87.6205 47.9258ZM95.8615 41.5129L89.3374 38.5355L88.3072 38.3065L94.6024 41.2839L95.8615 41.5129ZM59.5783 31.0919L54.0843 30.1758L55.1145 32.0081L60.0361 32.8097L59.5783 31.0919ZM18.7169 48.2694L17.8012 50.9032L19.0602 47.0097L19.8614 44.4903C19.8614 44.3758 18.7169 48.2694 18.7169 48.2694Z" stroke="white" stroke-width="0.4" stroke-miterlimit="10"/>
<path d="M58.4337 44.1468L56.259 44.4903L57.0602 48.4984L59.006 48.0403C58.8916 48.0403 58.4337 44.1468 58.4337 44.1468ZM86.1325 39.2226L79.494 36.7032L78.8072 37.9629L85.1024 40.3677L86.1325 39.2226Z" stroke="white" stroke-width="0.4" stroke-miterlimit="10"/>
<path d="M85.2169 40.3677L78.8072 37.9629L78.1205 39.6806L84.1867 41.8565L85.2169 40.3677ZM60.9518 37.7339L56.9458 37.2758L57.747 40.5968L61.4096 40.9403L60.9518 37.7339ZM90.9398 52.0484L86.8193 50.2161L86.1325 52.621L90.253 54.2242L90.9398 52.0484ZM102.042 75.6387L104.446 74.7226L105.819 74.15L103.416 75.1806L102.042 75.6387ZM60.0361 32.8097L55.1145 32.0081L56.1446 34.4129L60.494 34.9855L60.0361 32.8097Z" stroke="white" stroke-width="0.4" stroke-miterlimit="10"/>
<path d="M88.5361 45.979L83.2711 43.8032M88.5361 45.979L87.6205 47.9258M88.5361 45.979L89.6807 44.2613L84.1867 41.8564L83.2711 43.8032M83.2711 43.8032L82.4699 45.979L87.6205 47.9258M87.6205 47.9258L91.8554 50.1016L90.9398 52.0484L86.8193 50.2161L87.6205 47.9258ZM60.494 34.9855L56.0301 34.2984L56.9458 37.1613L60.9518 37.6194C60.9518 37.7339 60.494 34.9855 60.494 34.9855ZM52.9398 28.9161L48.0181 28.5726L49.6205 29.8323L54.0843 30.1758L52.9398 28.9161ZM94.6024 41.2839L88.3072 38.3064L87.2771 38.5355L93.3434 41.3984L94.6024 41.2839ZM21.1205 77.2419L21.9217 79.3032L20.4337 75.1806L19.5181 73.0048L21.1205 77.2419ZM17.9157 66.3629L18.7169 68.7677L18.259 64.4161L17.4578 62.0113L17.9157 66.3629ZM103.301 75.0661L105.705 74.0355L106.964 73.2339L104.446 74.379L103.301 75.0661ZM57.747 40.5968L55.2289 40.7113L56.259 44.4903L58.4337 44.1468L57.747 40.5968ZM102.271 45.2919L97.006 42.2L95.8614 41.5129L101.012 44.6048L102.271 45.2919ZM90.8253 42.8871L85.1024 40.2532L84.0723 41.7419L89.5663 44.1468L90.8253 42.8871Z" stroke="white" stroke-width="0.4" stroke-miterlimit="10"/>
<path d="M92.0844 41.971L86.247 39.2226L85.2169 40.3677L90.9398 43.0016L92.0844 41.971ZM46.4157 28L42.0663 28.229L44.241 28.8016L48.1325 28.5726L46.4157 28ZM110.855 67.7371L111.428 66.0194L111.886 64.1871L111.313 66.1339L110.855 67.7371ZM104.56 74.379L107.078 73.2339L108.223 72.2032L105.705 73.4629C105.705 73.3484 104.56 74.379 104.56 74.379ZM54.0844 30.1758L49.6205 29.8323L51.2229 31.779L55.1145 32.0081L54.0844 30.1758ZM17.1145 55.0258L17.5723 57.5452L18.259 53.3081L17.8012 50.9032L17.1145 55.0258ZM56.9458 37.2758H53.9699L55.1145 40.7113L57.6325 40.5968L56.9458 37.2758Z" stroke="white" stroke-width="0.4" stroke-miterlimit="10"/>
<path d="M55.1145 32.0081L51.2229 31.779L52.7108 34.2984L56.1446 34.4129L55.1145 32.0081ZM92.8855 48.2694L88.5361 45.979L87.6205 47.9258L91.8554 50.1016L92.8855 48.2694ZM100.898 44.6048L95.747 41.5129L94.4879 41.2839L99.5241 44.3758C99.6385 44.2613 100.898 44.6048 100.898 44.6048ZM93.9157 53.9952L90.9397 52.0484L90.253 54.2242L93.1145 55.9419L93.9157 53.9952Z" stroke="white" stroke-width="0.4" stroke-miterlimit="10"/>
<path d="M56.1446 34.4129L52.7108 34.2984L54.0843 37.2758H57.0602C56.9458 37.2758 56.1446 34.4129 56.1446 34.4129ZM105.705 73.3484L108.223 72.0887L109.253 70.829L106.735 72.2032L105.705 73.3484ZM111.199 66.0193L111.771 64.0726L112 62.1258L111.428 64.1871L111.199 66.0193ZM39.8916 28.3435L36.2289 29.1452L38.747 29.0306L41.9518 28.229L39.8916 28.3435ZM94.1446 46.7806L89.6807 44.2613L88.6506 45.979L93 48.2693L94.1446 46.7806ZM99.6385 44.2613L94.6024 41.1693L93.3434 41.2839L98.1506 44.2613H99.6385ZM19.6325 73.0048L20.4337 75.1806L19.5181 70.9435L18.6024 68.6532L19.6325 73.0048ZM19.8614 44.3758L19.0602 46.8952L20.7771 43.3452L21.5783 40.8258L19.8614 44.3758ZM48.0181 28.5726L44.1265 28.8016L46.3012 30.0613L49.6205 29.8323L48.0181 28.5726Z" stroke="white" stroke-width="0.4" stroke-miterlimit="10"/>
<path d="M95.4036 45.6355L90.8253 42.8871M95.4036 45.6355L94.1446 46.7806L89.6807 44.2613L90.8253 42.8871M95.4036 45.6355L96.7771 44.8339L92.0843 41.971L90.8253 42.8871M94.8313 52.2774L91.8554 50.1016L90.9398 52.0484L93.8012 53.9952L94.8313 52.2774ZM106.735 72.2032L109.253 70.829L110.054 69.3403L107.422 70.829L106.735 72.2032ZM106.964 49.3L103.416 46.3226L102.271 45.2919L105.819 48.3839L106.964 49.3ZM17.4578 61.8968L18.259 64.3016L18.3735 60.0645L17.5723 57.5452L17.4578 61.8968ZM55.2289 40.7113L53.8554 41.2839L55.2289 45.1774L56.259 44.4903L55.2289 40.7113ZM25.9277 35.6726L23.6385 37.9629L26.1566 35.5581L28.2169 33.3823L25.9277 35.6726ZM97.8072 76.6694L102.042 75.6387L103.416 75.1806L99.1807 76.3258L97.8072 76.6694ZM111.428 64.1871L112 62.1258V60.179L111.428 62.3548V64.1871ZM49.6205 29.8323L46.3012 30.0613L48.3614 32.0081L51.1084 31.779L49.6205 29.8323ZM95.9759 50.6742L93 48.2694L91.9699 49.9871L94.9458 52.1629L95.9759 50.6742ZM105.705 48.3839L102.157 45.2919L100.898 44.6048L104.331 47.6968L105.705 48.3839Z" stroke="white" stroke-width="0.4" stroke-miterlimit="10"/>
<path d="M50.4217 34.5274L48.4759 32.0081L51.2229 31.779L52.7108 34.1839M50.4217 34.5274L52.7108 34.1839M50.4217 34.5274L52.253 37.6193L54.0843 37.1613C54.0843 37.2758 52.7108 34.1839 52.7108 34.1839M107.536 70.829L110.169 69.3403L110.855 67.7371L108.223 69.4548C108.223 69.3403 107.536 70.829 107.536 70.829ZM99.0663 76.2113L103.301 75.0661L104.56 74.2645L100.211 75.4097C100.325 75.5242 99.0663 76.2113 99.0663 76.2113ZM54.0843 37.2758L52.253 37.7339L53.8554 41.2839L55.2289 40.7113L54.0843 37.2758ZM33.7108 30.0613L30.8494 31.55L33.7108 30.5193L36.2289 29.1452L33.7108 30.0613ZM41.9518 28.229L38.747 29.0306L41.3795 29.6032L44.0121 28.8016L41.9518 28.229ZM97.2349 49.4145L94.1446 46.8952L93 48.3839L95.9759 50.7887C95.9759 50.6742 97.2349 49.4145 97.2349 49.4145ZM17.8012 50.9032L18.259 53.4226L19.5181 49.529L19.0602 47.0097L17.8012 50.9032ZM111.428 62.4693L112 60.2935L111.771 58.3468L111.199 60.6371L111.428 62.4693Z" stroke="white" stroke-width="0.4" stroke-miterlimit="10"/>
<path d="M100.325 75.5242L104.675 74.379L105.819 73.4629L101.47 74.7226L100.325 75.5242ZM21.9217 79.3032L22.7229 81.021L21.3494 77.0129L20.4337 75.1806L21.9217 79.3032ZM98.6084 48.3839L95.5181 45.6355L94.259 46.7806L97.3494 49.3L98.6084 48.3839ZM102.958 47.3532L99.6386 44.3758L98.2651 44.4903L101.584 47.4677L102.958 47.3532ZM18.6024 68.7677L19.5181 71.0581L19.0602 66.821L18.1446 64.4161L18.6024 68.7677ZM108.223 69.3403L110.855 67.6226L111.313 65.9048L108.566 67.8516L108.223 69.3403ZM96.2048 54.3387L94.8313 52.2774L93.9157 54.1097L95.2892 56.0565L96.2048 54.3387Z" stroke="white" stroke-width="0.4" stroke-miterlimit="10"/>
<path d="M99.9819 47.6968L96.7771 44.8339L95.4036 45.6355L98.494 48.3839L99.9819 47.6968Z" stroke="white" stroke-width="0.4" stroke-miterlimit="10"/>
<path d="M101.47 47.3532L98.1506 44.3758L96.7771 44.8339L99.9819 47.6968L101.47 47.3532ZM109.596 53.4226L107.994 50.5597L106.964 49.3L108.452 52.1629L109.596 53.4226ZM21.5783 40.8258L20.7771 43.3452L22.9518 40.2532L23.6386 37.7339C23.753 37.8484 21.5783 40.8258 21.5783 40.8258ZM101.355 74.7226L105.705 73.4629L106.735 72.3177L102.386 73.6919L101.355 74.7226ZM111.199 60.6371L111.771 58.3468L111.313 56.5145L110.741 58.9194L111.199 60.6371ZM44.1265 28.8016L41.494 29.6032L44.1265 30.8629L46.3012 30.0613L44.1265 28.8016ZM97.3494 52.9645L95.9759 50.6742L94.8313 52.2774L96.2048 54.4532L97.3494 52.9645ZM17.5723 57.5452L18.3735 60.0645L19.0602 55.9419L18.259 53.4226L17.5723 57.5452ZM108.566 67.8516L111.199 66.0194L111.428 64.1871L108.795 66.1339L108.566 67.8516ZM28.2169 33.2677L26.1566 35.4435L29.1325 33.7258L30.8494 31.6645L28.2169 33.2677ZM108.452 52.2774L106.964 49.4145L105.705 48.3839L107.193 51.3613C107.193 51.2468 108.452 52.2774 108.452 52.2774ZM36.2289 29.1452L33.7109 30.6339L36.6868 30.4048L38.747 29.0306L36.2289 29.1452ZM92.1988 77.8145L97.9217 76.6694L99.1807 76.2113L93.4578 77.3564L92.1988 77.8145ZM102.386 73.5774L106.735 72.2032L107.536 70.829L103.072 72.3177L102.386 73.5774Z" stroke="white" stroke-width="0.4" stroke-miterlimit="10"/>
<path d="M98.6084 51.8194L97.2349 49.3L95.9759 50.6742L97.3494 52.9645L98.6084 51.8194ZM110.626 59.0339L111.199 56.629L110.512 55.0258L109.94 57.5452L110.626 59.0339ZM107.193 51.2468L105.705 48.2694L104.331 47.5823L105.819 50.5597L107.193 51.2468ZM46.3012 30.0613L44.1265 30.8629L46.759 32.8097L48.4759 32.0081L46.3012 30.0613ZM52.253 37.7339L51.4518 38.65L53.3976 42.3145L53.8554 41.2839L52.253 37.7339Z" stroke="white" stroke-width="0.4" stroke-miterlimit="10"/>
<path d="M99.9819 51.0177L98.6084 48.3839L97.2349 49.4145L98.6084 51.9339C98.6084 51.8194 99.9819 51.0177 99.9819 51.0177ZM93.3434 77.471L99.0663 76.3258L100.325 75.6387L94.4879 76.8984L93.3434 77.471ZM108.795 66.1339L111.428 64.1871V62.3548L108.795 64.4161V66.1339ZM48.4759 32.0081L46.759 32.8097L49.2771 35.4435L50.5361 34.6419L48.4759 32.0081Z" stroke="white" stroke-width="0.4" stroke-miterlimit="10"/>
<path d="M50.4217 34.5274L49.1627 35.329L51.4518 38.5355L52.253 37.6193L50.4217 34.5274ZM101.47 50.4452L100.096 47.6968L98.6084 48.3839L99.9819 51.0177L101.47 50.4452ZM19.0602 46.8952L19.5181 49.4145L21.2349 45.8645L20.7771 43.3452L19.0602 46.8952ZM103.072 72.3177L107.536 70.829L108.108 69.3403L103.645 70.9435L103.072 72.3177ZM104.446 50.2161L102.958 47.3532H101.47L102.958 50.2161H104.446Z" stroke="white" stroke-width="0.4" stroke-miterlimit="10"/>
<path d="M102.958 50.1016L101.355 47.3489L99.9819 47.5823L101.355 50.3306C101.47 50.4452 102.958 50.1016 102.958 50.1016ZM18.259 64.3016L19.1747 66.7065L19.2892 62.4694L18.3735 60.0645L18.259 64.3016ZM109.94 57.4307L110.512 54.9113L109.596 53.4226L109.024 56.0565L109.94 57.4307ZM94.488 76.7839L100.325 75.5242L101.355 74.7226L95.5181 75.9823L94.488 76.7839ZM38.747 29.0306L36.6868 30.4048L39.8916 30.8629L41.494 29.4887L38.747 29.0306ZM108.795 64.5307L111.428 62.4694L111.199 60.7516L108.566 62.9274L108.795 64.5307ZM23.753 37.8484L23.0663 40.3677L25.6988 37.8484L26.2711 35.4436L23.753 37.8484Z" stroke="white" stroke-width="0.4" stroke-miterlimit="10"/>
<path d="M109.024 56.0565L109.596 53.4226L108.452 52.1629L107.88 54.7968C107.88 54.9113 109.024 56.0565 109.024 56.0565ZM103.759 70.9436L108.223 69.3403L108.681 67.7371L104.217 69.4548L103.759 70.9436ZM30.8494 31.6645L29.1325 33.7258L32.3374 32.5806L33.7109 30.6339L30.8494 31.6645ZM22.7229 81.021L23.2952 82.3952L21.9217 78.6161L21.235 77.0129L22.7229 81.021ZM95.5181 75.9823L101.355 74.6081L102.271 73.5774L96.4338 74.9516L95.5181 75.9823ZM98.1506 54.2242L98.6085 51.9339L97.3494 53.079L96.8916 55.2548L98.1506 54.2242ZM18.259 53.3081L19.0603 55.8274L20.2048 52.0484L19.4036 49.4145L18.259 53.3081ZM85.4458 79.0742L92.1988 77.8145L93.4579 77.471L86.5904 78.7306L85.4458 79.0742Z" stroke="white" stroke-width="0.4" stroke-miterlimit="10"/>
<path d="M107.88 54.9113L108.452 52.2774L107.193 51.3613L106.62 54.1097L107.88 54.9113ZM108.452 62.8129L111.084 60.6371L110.626 58.9194L107.994 61.2097L108.452 62.8129ZM19.5181 70.9435L20.4337 73.0048L19.9759 68.8823L19.0602 66.7064L19.5181 70.9435ZM99.5241 53.4226L99.9819 51.0177L98.6084 51.9339L98.1506 54.2242L99.5241 53.4226ZM41.494 29.6032L39.8916 30.8629L42.9819 32.1226L44.1265 30.8629L41.494 29.6032ZM104.102 69.4548L108.566 67.7371L108.795 66.1339L104.331 67.9661L104.102 69.4548Z" stroke="white" stroke-width="0.4" stroke-miterlimit="10"/>
<path d="M106.735 53.9952L107.307 51.2468L105.934 50.5597L105.361 53.3081L106.735 53.9952ZM96.4337 74.9516L102.386 73.5774L103.187 72.3177L97.2349 73.8064L96.4337 74.9516ZM100.898 52.9645L101.355 50.4452L99.8675 51.0177L99.4096 53.4226L100.898 52.9645ZM86.5904 78.7306L93.4578 77.471L94.6024 76.8984L87.7349 78.2726L86.5904 78.7306Z" stroke="white" stroke-width="0.4" stroke-miterlimit="10"/>
<path d="M104.446 50.2161L105.934 50.5597L105.361 53.3081L103.873 52.9645L104.446 50.2161ZM104.446 50.2161L103.873 52.85C103.873 52.85 102.386 52.7355 102.5 52.85L102.958 50.2161H104.446ZM102.386 52.7355L102.843 50.1016L101.355 50.3306L100.898 52.85L102.386 52.7355ZM107.994 61.2097L110.627 58.9194L109.94 57.3161L107.307 59.6065L107.994 61.2097ZM51.4518 38.65V39.9097L53.741 43.5742L53.3976 42.2L51.4518 38.65ZM20.7771 43.3452L21.2349 45.8645L23.5241 42.8871L23.0663 40.3677L20.7771 43.3452ZM59.5783 58.1177L60.3795 60.179L60.9518 64.7597L60.1506 62.6984L59.5783 58.1177ZM44.1265 30.8629L42.9819 32.1226L45.9578 34.0694L46.759 32.8097L44.1265 30.8629ZM18.3735 60.0645L19.2892 62.4694L19.9759 58.4613L19.0602 55.9419L18.3735 60.0645ZM25.1265 86.0597L25.4699 86.8613L23.753 83.4258L23.2952 82.3952L25.1265 86.0597ZM104.331 67.9661L108.795 66.1339V64.4161L104.331 66.2484V67.9661ZM33.7108 30.6339L32.3373 32.5806L35.6566 32.2371L36.6867 30.2903C36.8012 30.4048 33.7108 30.6339 33.7108 30.6339ZM97.2349 73.8064L103.187 72.3177L103.759 70.9435L97.8072 72.4323L97.2349 73.8064ZM87.6205 78.1581L94.4879 76.7839L95.5181 75.9823L88.5361 77.3564C88.6506 77.3564 87.6205 78.1581 87.6205 78.1581ZM21.3494 77.1274L22.0361 78.7306L21.1205 74.8371L20.4337 73.0048L21.3494 77.1274ZM35.3132 96.8242L34.9699 96.7097L32.3373 94.9919L32.4518 95.1064L35.3132 96.8242Z" stroke="white" stroke-width="0.4" stroke-miterlimit="10"/>
<path d="M32.4518 95.1065L32.3373 94.9919L29.8193 92.8161L32.4518 95.1065ZM107.307 59.8355L109.94 57.5452L109.024 56.171L106.392 58.5758L107.307 59.8355ZM49.1627 35.4436L48.8193 36.7032L51.4518 39.9097V38.65L49.1627 35.4436Z" stroke="white" stroke-width="0.4" stroke-miterlimit="10"/>
<path d="M46.759 32.8097L46.0723 34.0694L48.9337 36.7032L49.2771 35.4435C49.1627 35.4435 46.759 32.8097 46.759 32.8097ZM26.2711 35.4435L25.6988 37.8484L28.7892 36.0161L29.1325 33.7258L26.2711 35.4435ZM38.1747 98.1984L37.7169 97.9694L34.9699 96.7097L35.3133 96.8242L38.1747 98.1984ZM78.6928 80.2194L85.9036 78.8452L84.759 79.0742L77.5482 80.4484L78.6928 80.2194ZM29.8193 92.7016L27.5301 90.1823L27.4157 89.9532L29.8193 92.7016ZM104.217 66.3629L108.681 64.5306L108.452 62.9274L103.988 64.7597L104.217 66.3629ZM106.392 58.4613L109.024 56.0565L107.88 54.9113L105.247 57.3161L106.392 58.4613ZM88.6506 77.3564L95.6325 75.9823L96.5482 74.9516L89.5663 76.3258L88.6506 77.3564ZM97.6928 72.5468L103.645 71.0581L103.988 69.5694L98.0361 71.1726L97.6928 72.5468ZM97.2349 55.7129L99.5241 53.5371L98.1506 54.3387L95.8614 56.4L97.2349 55.7129ZM41.1506 98.8855L40.5783 98.6564L37.7169 97.8548L38.1747 98.0839L41.1506 98.8855ZM19.1747 66.7064L20.0904 68.8823L20.2048 64.7597L19.2892 62.4694L19.1747 66.7064ZM19.4036 49.4145L20.2048 52.0484L21.9217 48.6129L21.1205 45.979L19.4036 49.4145Z" stroke="white" stroke-width="0.4" stroke-miterlimit="10"/>
<path d="M105.361 57.3161L107.994 54.9113L106.735 53.9952L104.217 56.4L105.361 57.3161ZM98.6084 55.2548L101.012 52.9645L99.5241 53.4226L97.2349 55.5984L98.6084 55.2548ZM27.4157 89.9532L27.5301 90.1823L25.5843 87.2048L25.3554 86.8613L27.4157 89.9532ZM36.8012 30.4048L35.7711 32.3516L39.2048 32.8097L39.8916 30.8629L36.8012 30.4048ZM103.988 64.7597L108.452 62.8129L107.994 61.2097L103.53 63.1565C103.53 63.271 103.988 64.7597 103.988 64.7597ZM104.102 56.4L106.62 53.9952L105.247 53.3081L102.843 55.7129L104.102 56.4Z" stroke="white" stroke-width="0.4" stroke-miterlimit="10"/>
<path d="M99.9819 55.1403L102.386 52.7355L100.898 52.9645L98.494 55.2548L99.9819 55.1403ZM89.4518 76.4403L96.4337 75.0661L97.1205 73.921L90.0241 75.4097L89.4518 76.4403ZM102.843 55.7129L105.361 53.3081L103.874 52.9645L101.355 55.3694L102.843 55.7129ZM101.47 55.2548L103.988 52.85L102.5 52.7355L100.096 55.1403L101.47 55.2548ZM98.1506 71.0581L104.102 69.4548L104.331 67.8516L98.2651 69.5694L98.1506 71.0581ZM58.4337 53.6516L59.2349 55.7129L60.3795 60.179L59.5783 58.1177L58.4337 53.6516ZM44.1265 99L43.3253 98.6564L40.5783 98.5419L41.1506 98.771L44.1265 99ZM20.4337 73.0048L21.1205 74.7226L20.7771 70.7145L20.0904 68.8823L20.4337 73.0048ZM22.9518 40.3677L23.4096 42.8871L26.0422 40.4823L25.5843 37.9629C25.6988 37.8484 22.9518 40.3677 22.9518 40.3677ZM103.53 63.271L107.994 61.2097L107.307 59.721L102.843 61.7823L103.53 63.271ZM34.9699 96.7097L34.6265 96.0226L32.1084 94.4194L32.2229 94.9919L34.9699 96.7097ZM50.5361 97.1677L49.7349 97.5113L46.988 98.5419L47.6747 98.3129L50.5361 97.1677Z" stroke="white" stroke-width="0.4" stroke-miterlimit="10"/>
<path d="M29.8193 92.3581L32.1084 94.4194L32.3373 94.9919L29.8193 92.8161M29.8193 92.3581V92.8161M29.8193 92.3581L27.759 89.9532L27.6446 90.1823C27.5301 90.1823 29.8193 92.8161 29.8193 92.8161M29.1325 33.7258L28.6747 36.0161L31.994 34.871L32.3373 32.5806L29.1325 33.7258ZM19.0602 55.9419L19.9759 58.4613L21.1205 54.6823L20.2048 52.0484L19.0602 55.9419ZM25.4699 86.8613L25.6988 87.2048L24.0964 83.9984L23.753 83.4258L25.4699 86.8613ZM37.7169 97.9694L37.259 97.2823L34.6265 96.1371L34.9699 96.8242L37.7169 97.9694ZM90.1386 75.2952L97.2349 73.8065L97.8072 72.4323L90.7108 73.921L90.1386 75.2952ZM98.2651 69.5694L104.331 67.9661V66.3629L98.2651 68.0806V69.5694ZM39.8916 30.8629L39.2048 32.6952L42.6386 33.8403L42.9819 32.1226L39.8916 30.8629ZM81.7831 78.1581L88.994 76.8984L88.0783 77.8145L80.8675 79.0742L81.7831 78.1581ZM72.5121 81.25L79.8374 79.7613L78.6928 80.2194L71.3675 81.7081L72.5121 81.25ZM102.843 61.7823L107.307 59.721L106.392 58.3468L101.928 60.4081L102.843 61.7823ZM51.4518 39.9097L52.1386 41.5129L54.6566 45.1774L53.741 43.5742L51.4518 39.9097ZM21.9217 78.6161L22.3795 79.7613L21.5783 76.0968L21.006 74.7226C21.1205 74.7226 21.9217 78.6161 21.9217 78.6161ZM40.5783 98.5419L39.8916 97.8548L37.259 97.1677L37.7169 97.8548L40.5783 98.5419ZM46.988 98.5419L46.0723 98.3129L43.3253 98.6565L44.1265 99L46.988 98.5419Z" stroke="white" stroke-width="0.4" stroke-miterlimit="10"/>
<path d="M101.928 60.5226L106.392 58.4613L105.361 57.3161L101.012 59.4919L101.928 60.5226ZM42.9819 32.1226L42.6386 33.8403L45.9578 35.7871V34.0694C46.0723 34.0694 42.9819 32.1226 42.9819 32.1226ZM94.4879 57.3161L98.6084 55.3694L97.2349 55.7129L93.1145 57.6597L94.4879 57.3161ZM98.2651 68.0806L104.331 66.3629L103.988 64.7597L97.9217 66.4774L98.2651 68.0806ZM27.6446 90.1823L27.759 89.9532L25.9277 87.2048L25.6988 87.3194C25.6988 87.2048 27.6446 90.1823 27.6446 90.1823ZM90.7108 73.921L97.8072 72.4323L98.1506 70.9436L91.0542 72.4323L90.7108 73.921ZM19.2892 62.4694L20.2048 64.7597L20.8916 60.8661L20.0904 58.4613L19.2892 62.4694ZM48.9337 36.7032L49.2771 38.421L52.1386 41.6274L51.4518 40.0242C51.4518 39.9097 48.9337 36.7032 48.9337 36.7032ZM82.5843 77.1274L89.7952 75.8677L88.994 76.8984L81.7831 78.1581L82.5843 77.1274ZM60.3795 60.2935L60.7229 62.8129L61.2952 67.3935L60.9518 64.8742L60.3795 60.2935ZM73.6566 80.5629L80.9819 79.0742L79.9518 79.7613L72.6265 81.25C72.512 81.25 73.6566 80.5629 73.6566 80.5629Z" stroke="white" stroke-width="0.4" stroke-miterlimit="10"/>
<path d="M32.1084 94.4194L32.3373 93.5032L34.6265 94.9919V96.0226L32.1084 94.4194ZM32.1084 94.4194L32.2229 93.5032L30.0482 91.5565L29.7048 92.3581L32.1084 94.4194ZM46.0723 34.0694V35.7871L49.2771 38.3065L48.9337 36.5887C48.9337 36.7032 46.0723 34.0694 46.0723 34.0694ZM100.898 59.4919L105.247 57.3161L103.988 56.4L99.6385 58.5758L100.898 59.4919ZM21.2349 45.979L21.9217 48.6129L24.0964 45.6355L23.4096 42.8871L21.2349 45.979ZM95.8614 57.2016L100.096 55.1403L98.7229 55.2548L94.6024 57.2016C94.488 57.3161 95.8614 57.2016 95.8614 57.2016ZM56.8313 49.3L57.5181 51.3613L59.2349 55.7129L58.4337 53.6516L56.8313 49.3Z" stroke="white" stroke-width="0.4" stroke-miterlimit="10"/>
<path d="M99.753 58.5758L104.102 56.4L102.843 55.7129L98.494 57.7742L99.753 58.5758ZM97.2349 57.4306L101.47 55.3694L99.9819 55.2548L95.747 57.3161L97.2349 57.4306ZM43.3253 98.6564L42.5241 97.8548H39.8916L40.5783 98.6564H43.3253Z" stroke="white" stroke-width="0.4" stroke-miterlimit="10"/>
<path d="M98.494 57.8887L102.843 55.8274L101.47 55.3693L97.2349 57.4306L98.494 57.8887ZM37.259 97.1677L37.0301 96.0226L34.6265 94.9919V96.0226L37.259 97.1677ZM32.3374 32.5806L31.994 34.871L35.5422 34.5274L35.6566 32.2371L32.3374 32.5806ZM53.1687 95.45L52.253 95.7935L49.7349 97.3968L50.5361 97.0532L53.1687 95.45ZM97.9217 66.4774L103.988 64.7597L103.53 63.271L97.5783 64.9887L97.9217 66.4774ZM29.8193 92.3581L30.1627 91.5564L28.2169 89.2661L27.759 89.9532L29.8193 92.3581ZM91.0542 72.5468L98.1506 71.0581L98.2651 69.5693L91.1687 71.0581L91.0542 72.5468ZM19.9759 68.8823L20.6627 70.7145L20.7771 66.821L20.0904 64.7597L19.9759 68.8823ZM65.6446 82.8532L72.6265 81.25L71.4819 81.7081L64.5 83.3113L65.6446 82.8532ZM83.1566 75.8677L90.3675 74.6081L89.7952 75.8677L82.5843 77.1274L83.1566 75.8677ZM74.5723 79.6468L81.7831 78.2726L80.8675 79.1887L73.5422 80.5629C73.6566 80.5629 74.5723 79.6468 74.5723 79.6468ZM45.1566 85.2581L50.994 83.5403L49.7349 82.3952L43.7831 83.9984L45.1566 85.2581ZM25.6988 87.2048L26.0422 87.0903L24.4398 84.1129L24.0964 83.9984L25.6988 87.2048ZM25.6988 37.8484L26.1566 40.3677L29.1325 38.5355L28.6747 36.0161C28.6747 36.1306 25.6988 37.8484 25.6988 37.8484Z" stroke="white" stroke-width="0.4" stroke-miterlimit="10"/>
<path d="M48.1325 86.8613L49.7349 87.2048L51.3374 86.6323M39.8916 97.8548L39.4337 96.5952L37.0301 96.0226L37.259 97.1677L39.8916 97.8548ZM43.7831 83.9984L49.7349 82.3952L48.5904 81.021L42.5241 82.5097L43.7831 83.9984ZM49.7349 97.5113L48.5904 97.2823L46.0723 98.3129L46.988 98.5419L49.7349 97.5113ZM97.4639 64.9887L103.416 63.271L102.843 61.7823L96.8916 63.6145L97.4639 64.9887ZM34.6265 94.9919L35.0843 93.6177L32.9096 92.129L32.2229 93.3887C32.3374 93.5032 34.6265 94.9919 34.6265 94.9919Z" stroke="white" stroke-width="0.4" stroke-miterlimit="10"/>
<path opacity="0.1" d="M27.759 89.9532L28.2169 89.2661L26.5 86.7468L25.9277 87.2048L27.759 89.9532Z" stroke="white" stroke-width="0.4" stroke-miterlimit="10"/>
<path d="M21.1205 74.7226L21.5783 76.0968L21.2349 72.3177L20.6626 70.7145L21.1205 74.7226ZM32.3373 93.5032L33.0241 92.2435L31.0783 90.5258L30.2771 91.671C30.1627 91.5564 32.3373 93.5032 32.3373 93.5032ZM20.2048 52.0484L21.1205 54.6823L22.8373 51.2468L21.9217 48.6129L20.2048 52.0484ZM42.5241 82.5097L48.5904 81.021L47.6747 79.5323L41.494 80.9064L42.5241 82.5097ZM42.0663 88.121L46.6446 86.1742L45.1566 85.2581L40.3494 87.0903L42.0663 88.121ZM66.6747 82.0516L73.5422 80.4484L72.512 81.1355L65.5301 82.7387C65.6446 82.8532 66.6747 82.0516 66.6747 82.0516Z" stroke="white" stroke-width="0.4" stroke-miterlimit="10"/>
<path d="M40.3494 87.0903L45.1566 85.2581L43.7831 83.9984L38.8615 85.7161L40.3494 87.0903ZM37.0301 96.0226L37.259 94.5339L35.0843 93.6177L34.6265 94.9919L37.0301 96.0226ZM91.1687 71.0581L98.2651 69.5694V68.0806L91.1687 69.5694V71.0581ZM46.0723 98.3129L45.0422 97.5113L42.5241 97.9694L43.3253 98.771L46.0723 98.3129ZM54.6566 45.1774L55.2289 47.2387L57.4036 51.2468L56.7169 49.1855L54.6566 45.1774ZM43.6687 88.8081L48.1325 86.8613L46.5301 86.1742L41.9518 88.121C42.0663 88.121 43.6687 88.8081 43.6687 88.8081ZM75.3735 78.5016L82.5843 77.1274L81.7831 78.1581L74.5723 79.5323L75.3735 78.5016ZM83.6145 74.4935L90.8253 73.2339L90.3675 74.6081L83.1566 75.8677L83.6145 74.4935ZM30.1627 91.5565L30.9639 90.4113L29.1325 88.35L28.2169 89.3806L30.1627 91.5565ZM96.8916 63.6145L102.843 61.7823L101.928 60.5226L95.9759 62.3548L96.8916 63.6145Z" stroke="white" stroke-width="0.4" stroke-miterlimit="10"/>
<path d="M34.3976 90.5258L36.3434 91.7855L35.0843 93.5032L32.9096 92.129M34.3976 90.5258L32.9096 92.129M34.3976 90.5258L32.5663 88.9226L30.9639 90.2968C30.9639 90.4113 32.9096 92.129 32.9096 92.129M38.8614 85.7161L43.7831 83.9984L42.5241 82.5097L37.4879 84.1129L38.8614 85.7161ZM88.8795 58.9194L94.4879 57.2016L93.1145 57.5452L87.6205 59.1484L88.8795 58.9194ZM22.494 79.8758L22.8373 80.6774L22.0361 77.1274L21.5783 76.0968L22.494 79.8758ZM42.5241 97.9694L41.9518 96.7097L39.5482 96.5952L39.8916 97.8548L42.5241 97.9694ZM35.7711 32.3516L35.6566 34.6419L39.3193 34.9855V32.6952L35.7711 32.3516ZM38.6325 89.9532L42.0663 88.0065L40.4639 86.9758L36.9157 88.8081L38.6325 89.9532Z" stroke="white" stroke-width="0.4" stroke-miterlimit="10"/>
<path d="M36.8012 88.8081L40.3494 86.9758L38.8614 85.6016L35.0843 87.3194L36.8012 88.8081ZM45.5 89.2661L49.8494 87.2048L48.247 86.8613L43.7831 88.8081L45.5 89.2661ZM39.4337 96.5952L39.5482 94.9919L37.259 94.4194L37.0301 95.9081C37.0301 96.0226 39.4337 96.5952 39.4337 96.5952ZM59.2349 55.7129L59.5783 58.2323L60.7229 62.6984L60.3795 60.179L59.2349 55.7129ZM58.0904 89.2661L57.4036 90.4113L55.4578 93.1597L56.1446 92.129L58.0904 89.2661ZM36.3434 91.9L38.6325 90.0677L36.8012 88.9226L34.3976 90.6403L36.3434 91.9Z" stroke="white" stroke-width="0.4" stroke-miterlimit="10"/>
<path d="M40.4639 90.8694L43.6687 88.9226L41.9518 88.2355L38.5181 90.1823C38.6325 89.9532 40.4639 90.8694 40.4639 90.8694ZM37.259 94.5339L38.2892 92.8161L36.2289 91.9L34.9699 93.6177C35.0843 93.5032 37.259 94.5339 37.259 94.5339ZM24.0964 83.9984L24.4398 84.1129L23.2952 80.9065L22.8374 80.5629L24.0964 83.9984ZM95.9759 62.3548L101.928 60.5226L100.898 59.3774L95.0602 61.2097L95.9759 62.3548ZM34.3976 90.6403L36.8012 88.9226L35.1988 87.4339L32.5663 89.0371L34.3976 90.6403ZM37.488 84.1129L42.5241 82.5097L41.494 80.9065L36.3434 82.2806L37.488 84.1129Z" stroke="white" stroke-width="0.4" stroke-miterlimit="10"/>
<path d="M35.1988 87.4339L38.9759 85.7161L37.4879 84.1129L33.5964 85.6016L35.1988 87.4339ZM30.9638 90.4113L32.5663 89.0371L30.9638 87.0903L29.247 88.35L30.9638 90.4113Z" stroke="white" stroke-width="0.4" stroke-miterlimit="10"/>
<path opacity="0.1" d="M25.9277 87.2048L26.5 86.7468L25.1265 83.8839L24.4398 84.1129L25.9277 87.2048Z" stroke="white" stroke-width="0.4" stroke-miterlimit="10"/>
<path d="M38.4036 92.7016L40.4639 90.7548L38.6325 89.9532L36.3434 91.7855C36.3434 91.9 38.4036 92.7016 38.4036 92.7016ZM91.0542 69.5694L98.2651 68.0806L98.0362 66.5919L90.8253 68.0806L91.0542 69.5694ZM28.2169 89.2661L29.1325 88.2355L27.5301 85.8306L26.3855 86.6323L28.2169 89.2661ZM67.7048 81.1355L74.5723 79.6468L73.6566 80.5629L66.7892 82.1661C66.6747 82.0516 67.7048 81.1355 67.7048 81.1355ZM19.9759 58.4613L20.7771 60.8661L21.9217 57.2016L21.1205 54.6823L19.9759 58.4613ZM95.0602 61.2097L101.012 59.3774L99.8675 58.4613L94.0301 60.2936L95.0602 61.2097ZM32.5663 88.9226L35.1988 87.3194L33.7108 85.6016L30.9639 86.9758L32.5663 88.9226ZM91.5121 59.1484L97.2349 57.4306L95.8615 57.2016L90.1386 58.9194L91.5121 59.1484ZM42.4096 91.2129L45.5 89.1516L43.7831 88.6935L40.5783 90.6403L42.4096 91.2129ZM55.4578 93.1597L54.4277 93.6177L52.253 95.7936L53.1687 95.45L55.4578 93.1597ZM23.4096 42.8871L24.0964 45.6355L26.7289 43.2306L26.1566 40.4823L23.4096 42.8871ZM83.8434 73.0048L91.0542 71.7452L90.8253 73.2339L83.6145 74.4936L83.8434 73.0048ZM39.5482 95.1065L40.4639 93.2742L38.4036 92.8161L37.3735 94.5339L39.5482 95.1065ZM93.9157 60.2936L99.753 58.4613L98.494 57.7742L92.6566 59.6065L93.9157 60.2936ZM75.9458 77.2419L83.1566 75.9823L82.5843 77.2419L75.3735 78.5016L75.9458 77.2419Z" stroke="white" stroke-width="0.4" stroke-miterlimit="10"/>
<path d="M92.7711 59.6065L98.6084 57.7742L97.2349 57.3161L91.512 59.0339L92.7711 59.6065ZM40.5783 79.0742L46.8735 77.8145L46.3012 76.0968L40.006 77.2419L40.5783 79.0742ZM40.4638 93.2742L42.4096 91.3274L40.4638 90.8694L38.4036 92.8161L40.4638 93.2742ZM33.5964 85.6016L37.4879 84.1129L36.3434 82.2807L32.3373 83.6548L33.5964 85.6016ZM52.1385 41.5129L52.7108 43.6887L55.3434 47.3532L54.6566 45.1774L52.1385 41.5129ZM41.9518 96.7097L41.8373 95.1065L39.5482 94.9919L39.4337 96.5952L41.9518 96.7097Z" stroke="white" stroke-width="0.4" stroke-miterlimit="10"/>
<path d="M45.0422 97.5113L44.241 96.3661L41.9518 96.7097L42.5241 97.9694L45.0422 97.5113ZM45.0422 97.5113L47.4458 96.5952L48.5904 97.2823L46.0723 98.3129L45.0422 97.5113ZM36.3434 82.2806L41.494 80.9065L40.5783 79.0742L35.3133 80.3339L36.3434 82.2806ZM29.1325 88.35L30.8494 87.0903L29.4759 84.9145L27.5301 85.9452C27.6446 85.9452 29.1325 88.35 29.1325 88.35ZM52.253 95.9081L50.994 95.7935L48.7048 97.2823L49.8494 97.5113L52.253 95.9081ZM28.6747 36.1306L29.1325 38.65L32.4518 37.5048L31.994 34.871L28.6747 36.1306ZM39.2048 32.6952V34.9855L42.8675 36.1306L42.753 33.9548L39.2048 32.6952ZM30.9639 87.0903L33.7108 85.7161L32.4518 83.7694L29.5904 85.029L30.9639 87.0903ZM90.8253 68.0806L97.9217 66.4774L97.4639 64.9887L90.3675 66.5919L90.8253 68.0806ZM20.0904 64.7597L20.7771 66.821L21.3494 63.0419L20.6627 60.8661L20.0904 64.7597ZM44.241 91.3274L47.2169 89.2661L45.5 89.1516L42.4096 91.2129L44.241 91.3274Z" stroke="white" stroke-width="0.4" stroke-miterlimit="10"/>
<path d="M25.1265 83.8839L26.3855 83.3113L27.6446 85.9452L26.5 86.7468L25.1265 83.8839ZM25.1265 83.8839L24.4398 84.1129L23.2952 80.9064M25.1265 83.8839L24.0964 80.9064H23.2952M42.5241 93.2742L41.8373 95.1064H39.5482L40.4638 93.2742M42.5241 93.2742H40.4638M42.5241 93.2742L44.241 91.3274L42.4096 91.2129L40.4638 93.2742M35.4277 80.3339L36.3434 82.2806L32.3373 83.6548L31.3072 81.479L35.4277 80.3339ZM35.4277 80.3339L40.6928 79.0742L40.006 77.1274M35.4277 80.3339L34.741 78.1581L40.006 77.1274M23.2952 80.9064L22.8373 80.5629L22.1506 77.0129L22.6084 77.5855L23.2952 80.9064ZM40.006 77.1274L46.3012 76.0968L45.9578 74.2645L39.5482 75.1806L40.006 77.1274ZM68.506 79.8758L75.259 78.3871L74.4578 79.5323L67.5904 81.021C67.7048 81.1355 68.506 79.8758 68.506 79.8758ZM49.2771 38.421L49.7349 40.5968L52.7108 43.6887L52.1385 41.5129L49.2771 38.421ZM83.8434 71.5161L91.0542 70.371V71.8597L83.8434 73.1194V71.5161ZM20.6626 70.7145L21.2349 72.2032L21.3494 68.4242L20.7771 66.7064L20.6626 70.7145ZM42.6385 33.9548L42.753 36.1306L46.3012 37.9629L46.0723 35.7871L42.6385 33.9548ZM76.4036 75.7532L83.6144 74.4935L83.1566 75.8677L75.9458 77.2419L76.4036 75.7532ZM90.3675 66.5919L97.4638 65.1032L96.7771 63.729L89.6807 65.2177L90.3675 66.5919Z" stroke="white" stroke-width="0.4" stroke-miterlimit="10"/>
<path d="M27.6446 85.9452L29.4759 84.9145L28.3313 82.5097L26.3855 83.3113L27.6446 85.9452ZM21.5783 76.0968L22.0361 77.0129L21.6928 73.4629L21.2349 72.3177L21.5783 76.0968ZM46.0723 35.7871L46.3012 37.9629L49.6205 40.4823L49.1627 38.3065L46.0723 35.7871Z" stroke="white" stroke-width="0.4" stroke-miterlimit="10"/>
<path d="M29.4759 84.9145L32.3374 83.6548L31.3072 81.479L28.3313 82.5097L29.4759 84.9145ZM82.1265 60.2935L88.7651 58.9194L87.506 59.1484L80.8675 60.4081C80.9819 60.5226 82.1265 60.2935 82.1265 60.2935ZM61.6386 82.7387L67.7048 81.1355L66.6747 82.1661L60.6084 83.8839C60.6084 83.7694 61.6386 82.7387 61.6386 82.7387ZM61.0663 80.4484L60.7229 82.2806L59.6928 85.9452L60.0361 84.2274C59.9217 84.3419 61.0663 80.4484 61.0663 80.4484ZM44.241 96.3661L44.0121 94.8774L41.8374 95.221L41.9518 96.8242L44.241 96.3661ZM46.0723 90.9839L48.8193 88.9226L47.1024 89.1516L44.1265 91.2129C44.241 91.3274 46.0723 90.9839 46.0723 90.9839ZM60.7229 62.8129L61.0663 65.3323L61.6386 69.7984L61.2952 67.3935C61.2952 67.279 60.7229 62.8129 60.7229 62.8129ZM57.5181 51.3613L57.8615 53.8806L59.5783 58.2323L59.2349 55.7129L57.5181 51.3613ZM21.9217 48.6129L22.7229 51.3613L25.0121 48.3839L24.2108 45.6355L21.9217 48.6129ZM89.7952 65.1032L96.8916 63.6145L95.9759 62.3548L88.8795 63.8435C88.994 63.8435 89.7952 65.1032 89.7952 65.1032ZM83.3855 60.2935L90.1386 58.9194H88.8795L82.241 60.2935H83.3855Z" stroke="white" stroke-width="0.4" stroke-miterlimit="10"/>
<path d="M44.4699 92.9306L46.0723 90.9839L44.241 91.3274L42.5241 93.2742L44.4699 92.9306Z" stroke="white" stroke-width="0.4" stroke-miterlimit="10"/>
<path d="M47.4458 96.5952L46.5301 95.45L44.3554 96.3661L45.1566 97.5113L47.4458 96.5952ZM47.4458 96.5952L49.6205 95.1065L50.994 95.679L48.5904 97.2823L47.4458 96.5952ZM44.0121 94.7629L44.5843 92.9306L42.5241 93.2742L41.8374 95.1065L44.0121 94.7629ZM83.7289 69.9129L90.9398 68.7677L91.0542 70.2565L83.8434 71.4016L83.7289 69.9129ZM31.3072 81.479L35.4277 80.3339L34.741 78.2726L30.6205 79.1887C30.506 79.1887 31.3072 81.479 31.3072 81.479ZM69.1928 78.6161L75.9458 77.2419L75.3735 78.5016L68.506 79.8758L69.1928 78.6161ZM25.1265 83.8839L26.3855 83.3113L25.4699 80.5629L24.2108 80.9065L25.1265 83.8839ZM76.6325 74.2645L83.8434 73.1194L83.6145 74.6081L76.4036 75.8677L76.6325 74.2645ZM59.6928 85.9452L58.8916 87.2048L57.4036 90.4113L58.0904 89.2661L59.6928 85.9452ZM88.994 63.8435L95.9759 62.3548L94.9458 61.2097L87.9639 62.6984L88.994 63.8435ZM39.5482 75.1806L45.9578 74.2645L45.8434 72.4323L39.4337 73.2339L39.5482 75.1806ZM84.6446 60.5226L91.5121 59.1484L90.1386 58.9194L83.3855 60.2936L84.6446 60.5226ZM34.6265 78.2726L39.8916 77.2419L39.4337 75.2952L34.1687 76.0968L34.6265 78.2726ZM31.994 34.9855L32.4518 37.6194L36 37.2758L35.5422 34.6419L31.994 34.9855Z" stroke="white" stroke-width="0.4" stroke-miterlimit="10"/>
<path d="M28.3313 82.5097L31.3072 81.479L30.506 79.1887L27.4157 79.9903L28.3313 82.5097Z" stroke="white" stroke-width="0.4" stroke-miterlimit="10"/>
<path d="M26.3855 83.3113L28.3313 82.5097L27.4157 79.9903L25.3554 80.5629L26.3855 83.3113ZM88.0783 62.6984L95.0602 61.2097L93.9157 60.2935L86.9337 61.7823L88.0783 62.6984ZM85.9036 61.0952L92.7711 59.6065L91.3976 59.1484L84.5301 60.5226C84.6446 60.5226 85.9036 61.0952 85.9036 61.0952ZM57.4036 90.4113L56.259 91.0984L54.4277 93.7323L55.4578 93.2742L57.4036 90.4113Z" stroke="white" stroke-width="0.4" stroke-miterlimit="10"/>
<path d="M87.0482 61.7823L94.0301 60.2935L92.7711 59.6064L85.9036 61.0952L87.0482 61.7823ZM62.5542 81.479L68.506 79.9903L67.7048 81.1355L61.6386 82.7387L62.5542 81.479ZM54.4277 93.7323H53.0542L50.994 95.7935L52.253 95.9081L54.4277 93.7323ZM26.1566 40.4823L26.8434 43.2306L29.8193 41.5129L29.1325 38.7645C29.1325 38.65 26.1566 40.4823 26.1566 40.4823ZM21.1205 54.6823L21.9217 57.2016L23.6386 53.8806L22.8374 51.2468L21.1205 54.6823ZM23.2952 80.9064H24.0964L23.4096 77.8145L22.6084 77.5855L23.2952 80.9064ZM83.3855 68.4242L90.7108 67.279L91.0542 68.7677L83.8434 69.9129C83.7289 69.9129 83.3855 68.4242 83.3855 68.4242ZM46.5301 95.45L46.0723 93.9613L44.0121 94.7629L44.241 96.2516L46.5301 95.45ZM69.6506 77.0129L76.4036 75.7532L75.9458 77.2419L69.1928 78.6161L69.6506 77.0129ZM46.4157 92.2435L47.7892 90.4113L46.0723 90.9839L44.4699 92.9306L46.4157 92.2435ZM30.506 79.1887L34.6265 78.2726L34.1687 76.0968L29.9337 76.7839L30.506 79.1887ZM76.6325 72.6613L83.8434 71.5161V73.0048L76.6325 74.15V72.6613Z" stroke="white" stroke-width="0.4" stroke-miterlimit="10"/>
<path d="M46.0723 93.9613L46.4157 92.2435L44.4699 92.9306L43.8976 94.7629L46.0723 93.9613ZM22.0362 77.0129L22.494 77.5855L22.1506 74.2645L21.5783 73.4629L22.0362 77.0129ZM55.3434 47.3532L55.6868 49.8726L57.8615 53.8806L57.5181 51.3613L55.3434 47.3532ZM20.7771 60.8661L21.4639 63.0419L22.6084 59.4919L21.9217 57.2016L20.7771 60.8661ZM39.4337 73.2339L45.8434 72.4323L45.9578 70.6L39.5482 71.1726L39.4337 73.2339ZM34.1687 76.0968L39.5482 75.2952L39.4337 73.3484L34.0542 74.0355C34.0542 73.921 34.1687 76.0968 34.1687 76.0968ZM82.8133 66.9355L90.1386 65.7903L90.7109 67.279L83.3856 68.4242L82.8133 66.9355ZM24.0964 80.9065L25.3554 80.5629L24.7831 77.7L23.4096 77.8145L24.0964 80.9065ZM21.2349 72.3177L21.6928 73.4629L21.8072 69.9129L21.3494 68.5387L21.2349 72.3177ZM20.8916 66.821L21.4639 68.5387L22.0362 64.9887L21.5783 63.0419L20.8916 66.821ZM27.4157 79.9903L30.506 79.1887L30.0482 76.7839L26.9578 77.3564L27.4157 79.9903ZM74.1145 61.3242L81.5542 60.2935L82.8133 60.179L75.3735 61.3242H74.1145ZM49.6205 95.1064L48.4759 94.0758L46.4157 95.45L47.3313 96.5952L49.6205 95.1064ZM63.241 79.9903L69.1928 78.6161L68.506 79.8758L62.5542 81.3645L63.241 79.9903Z" stroke="white" stroke-width="0.4" stroke-miterlimit="10"/>
<path d="M25.3554 80.5629L27.4157 79.9903L26.8434 77.3565L24.6687 77.7L25.3554 80.5629ZM35.5422 34.6419L36 37.2758L39.6627 37.6194L39.3193 34.9855L35.5422 34.6419ZM59.5783 58.2323L59.9217 60.7516L61.0663 65.2177L60.7229 62.6984L59.5783 58.2323ZM82.1265 65.5613L89.4518 64.4161L90.1386 65.7903L82.8133 66.9355L82.1265 65.5613ZM69.8795 75.4097L76.6325 74.2645L76.4036 75.7532L69.6506 77.0129L69.8795 75.4097ZM75.3735 61.3242L82.8133 60.2936L84.0723 60.4081L76.6325 61.4387L75.3735 61.3242ZM61.6386 76.3258L61.2952 78.2726L60.7229 82.2806L61.0663 80.4484L61.6386 76.3258ZM24.2108 45.6355L25.0121 48.3839L27.6446 45.979L26.8434 43.1161C26.8434 43.2306 24.2108 45.6355 24.2108 45.6355ZM30.0482 76.7839L34.1687 76.0968L33.9398 73.921L29.7048 74.4935C29.8193 74.379 30.0482 76.7839 30.0482 76.7839ZM48.1325 91.0984L49.3916 89.2661L47.7892 90.2968L46.4157 92.129C46.4157 92.2436 48.1325 91.0984 48.1325 91.0984ZM53.0542 93.7323L51.5663 93.2742L49.6205 95.221L50.994 95.7936L53.0542 93.7323Z" stroke="white" stroke-width="0.4" stroke-miterlimit="10"/>
<path d="M81.2108 64.4161L88.5361 63.3855L89.4518 64.6452L82.1265 65.7903L81.2108 64.4161ZM48.4759 94.0758L47.9036 92.7016L46.0723 93.9613L46.5301 95.45L48.4759 94.0758ZM52.7108 43.6887L53.0542 46.2081L55.6867 49.8726L55.3434 47.3532L52.7108 43.6887ZM22.6084 77.5855L23.4096 77.8145L23.0663 74.7226L22.2651 74.2645L22.6084 77.5855ZM76.6325 61.4387L84.0723 60.4081L85.3313 60.7516L78.006 61.7823C77.8916 61.7823 76.6325 61.4387 76.6325 61.4387ZM39.4337 71.2871L45.8434 70.7145L46.1867 68.9968L39.7771 69.4548C39.7771 69.3403 39.4337 71.2871 39.4337 71.2871Z" stroke="white" stroke-width="0.4" stroke-miterlimit="10"/>
<path d="M47.9036 92.7016L48.1325 91.0984L46.4157 92.2435L46.0723 93.9613L47.9036 92.7016ZM34.0542 73.921L39.4337 73.2339L39.5482 71.2871L34.1687 71.7452C34.0542 71.7452 34.0542 73.921 34.0542 73.921ZM80.1807 63.271L87.506 62.2403L88.5362 63.271L81.2109 64.3016C81.2109 64.4161 80.1807 63.271 80.1807 63.271ZM77.8916 61.7822L85.2169 60.7516L86.3615 61.3242L79.0362 62.3548L77.8916 61.7822ZM29.1325 38.65L29.8193 41.3984L33.1386 40.3677L32.4518 37.6193C32.4518 37.5048 29.1325 38.65 29.1325 38.65Z" stroke="white" stroke-width="0.4" stroke-miterlimit="10"/>
<path d="M79.0361 62.4693L86.3614 61.4387L87.506 62.2403L80.1807 63.271L79.0361 62.4693ZM60.7229 82.2806L59.9217 83.6548L58.8916 87.2048L59.6928 85.9452L60.7229 82.2806ZM76.0602 69.4548L83.2711 68.4242L83.6145 69.9129L76.5181 71.0581L76.0602 69.4548ZM56.259 91.0984L54.7711 91.2129L53.0542 93.7323H54.4277L56.259 91.0984ZM39.2048 34.9855L39.5482 37.6194L43.2108 38.7645L42.8675 36.1306L39.2048 34.9855ZM26.8434 77.3564L29.9337 76.7839L29.7048 74.379L26.6145 74.7226L26.8434 77.3564Z" stroke="white" stroke-width="0.4" stroke-miterlimit="10"/>
<path d="M24.7831 77.7L23.4096 77.8145C23.4096 77.8145 23.0663 74.7226 23.1807 74.7226L24.5542 74.8371M24.7831 77.7L24.5542 74.8371M24.7831 77.7L26.9578 77.3565L26.7289 74.7226L24.5542 74.8371M58.8916 87.2048L57.6325 88.0065L56.259 91.0984L57.4036 90.4113L58.8916 87.2048ZM69.8795 73.6919L76.6325 72.6613V74.2645L69.8795 75.4097V73.6919ZM49.6205 40.4823L49.9639 43.1161L52.9398 46.2081L52.5964 43.6887C52.7109 43.6887 49.6205 40.4823 49.6205 40.4823ZM21.6928 73.4629L22.2651 74.2645L22.3795 70.9435L21.8072 69.9129L21.6928 73.4629ZM22.8374 51.2468L23.6386 53.8806L25.6988 51.0177L25.0121 48.3839L22.8374 51.2468ZM42.753 36.1306L43.0964 38.7645L46.759 40.5968L46.4157 37.9629L42.753 36.1306ZM75.488 67.9661L82.8133 67.05L83.3856 68.5387L76.1747 69.5694L75.488 67.9661ZM51.5663 93.2742L50.3072 92.3581L48.4759 94.0758L49.6205 95.1065L51.5663 93.2742Z" stroke="white" stroke-width="0.4" stroke-miterlimit="10"/>
<path d="M21.9217 64.9887L22.3795 66.5919L21.8072 69.9129L21.3494 68.5387L21.9217 64.9887ZM21.9217 64.9887L21.4639 63.0419L22.494 59.6064L22.9518 61.6677L21.9217 64.9887ZM46.3012 37.9629L46.759 40.5968L50.0783 43.1161L49.7349 40.4823C49.6205 40.4823 46.3012 37.9629 46.3012 37.9629ZM61.0663 65.2177L61.1807 67.6226L61.753 71.9742L61.6386 69.6839C61.6386 69.7984 61.0663 65.2177 61.0663 65.2177ZM29.8193 74.379L34.0542 73.8064L34.1687 71.6306L29.9337 71.9742L29.8193 74.379ZM66.4458 62.1258L74.1145 61.4387L75.3735 61.3242L67.8193 62.0113L66.4458 62.1258ZM39.7771 69.3403L46.1867 68.8823L46.759 67.279L40.4639 67.6226L39.7771 69.3403ZM49.6205 89.6097L50.7651 87.8919L49.3916 89.2661L48.1325 91.0984L49.6205 89.6097ZM57.8614 53.8806L58.2048 56.5145L59.9217 60.7516L59.5783 58.2323L57.8614 53.8806ZM34.1687 71.7452L39.5482 71.2871L39.8916 69.4548L34.512 69.7984L34.1687 71.7452ZM21.9217 57.2016L22.6084 59.4919L24.2108 56.4L23.6386 53.8806L21.9217 57.2016ZM64.0422 76.5548L69.8795 75.4097L69.6506 77.0129L63.8133 78.3871L64.0422 76.5548ZM74.8012 66.4774L82.1265 65.5613L82.8133 66.9355L75.488 67.8516L74.8012 66.4774ZM50.3072 92.3581L49.506 91.0984L47.9036 92.7016L48.4759 94.0758L50.3072 92.3581Z" stroke="white" stroke-width="0.4" stroke-miterlimit="10"/>
<path d="M49.506 91.0984V89.6097L48.0181 91.0984L47.9036 92.7016L49.506 91.0984ZM67.8193 62.0113L75.3735 61.3242L76.6325 61.4387L69.0783 62.1258L67.8193 62.0113ZM22.2651 74.2645L23.0663 74.7226L23.1807 71.6306L22.3795 70.9436L22.2651 74.2645ZM26.6145 74.7226L29.7048 74.379L29.8193 71.9742L26.7289 72.0887L26.6145 74.7226ZM54.7711 91.2129L53.1687 90.8694L51.5663 93.1597L53.0542 93.6177C53.0542 93.7323 54.7711 91.2129 54.7711 91.2129ZM73.8855 65.2177L81.2108 64.4161L82.1265 65.6758L74.8012 66.5919L73.8855 65.2177ZM32.4518 37.5048L33.1386 40.2532L36.5723 39.9097L36 37.1613L32.4518 37.5048ZM26.8434 43.2306L27.6446 46.0936L30.6205 44.3758L29.9337 41.5129L26.8434 43.2306Z" stroke="white" stroke-width="0.4" stroke-miterlimit="10"/>
<path d="M69.0783 62.1258L76.6325 61.4387L77.8916 61.7823L70.3374 62.4694L69.0783 62.1258ZM61.6386 72.0887L61.2952 74.15V78.3871L61.6386 76.4403V72.0887ZM72.741 64.0726L80.1807 63.271L81.2108 64.3016L73.8855 65.1032L72.741 64.0726ZM70.3374 62.5839L77.8916 61.8968L79.0362 62.5839L71.5964 63.3855C71.5964 63.271 70.3374 62.5839 70.3374 62.5839ZM23.0663 74.7226L24.4398 74.8371L24.5542 72.0887L23.1807 71.6306L23.0663 74.7226Z" stroke="white" stroke-width="0.4" stroke-miterlimit="10"/>
<path d="M69.3072 70.371L76.1747 69.4548L76.5181 71.0581L69.7651 72.0887C69.7651 71.9742 69.3072 70.371 69.3072 70.371ZM69.3072 70.371L76.0602 69.3403L75.4879 67.8516L68.6205 68.6532L69.3072 70.371ZM40.4638 67.6226L46.759 67.279L47.5602 65.9048L41.2651 66.0194C41.2651 66.1339 40.4638 67.6226 40.4638 67.6226ZM40.4638 67.6226L39.8916 69.3403L34.512 69.6839M40.4638 67.6226L35.1988 67.7371L34.512 69.6839M34.512 69.6839L34.1687 71.7452L29.9337 72.0887L30.2771 69.7984L34.512 69.6839ZM57.6325 88.0065L56.0301 88.35L54.7711 91.2129L56.259 91.0984L57.6325 88.0065ZM57.6325 88.0065L58.6626 84.571L59.9217 83.6548L58.8916 87.2048L57.6325 88.0065ZM24.4398 74.8371L26.6144 74.7226L26.7289 72.2032L24.5542 72.0887L24.4398 74.8371ZM71.5964 63.271L79.0361 62.4694L80.1807 63.271L72.741 64.0726L71.5964 63.271ZM64.0422 74.7226L69.994 73.6919V75.4097L64.1566 76.5548L64.0422 74.7226ZM61.2952 78.2726L60.494 79.8758L59.9217 83.7694L60.7229 82.3952C60.7229 82.2806 61.2952 78.2726 61.2952 78.2726ZM21.8072 69.9129L22.3795 70.9436L22.9518 67.7371L22.494 66.4774L21.8072 69.9129ZM55.6867 49.8726L56.0301 52.5065L58.2048 56.5145L57.8614 53.8806L55.6867 49.8726ZM53.1687 90.8694L51.7952 90.1823L50.3072 92.3581L51.5663 93.2742L53.1687 90.8694ZM59.9217 60.8661L60.0361 63.3855L61.1807 67.7371L61.0663 65.3323C61.0663 65.2177 59.9217 60.8661 59.9217 60.8661ZM25.012 48.3839L25.6988 51.1323L28.2169 48.8419L27.5301 46.0936L25.012 48.3839ZM50.8795 89.1516L50.7651 87.7774L49.506 89.6097V91.0984L50.8795 89.1516Z" stroke="white" stroke-width="0.4" stroke-miterlimit="10"/>
<path d="M51.7952 90.1823L50.8795 89.1516L49.506 91.0984L50.3072 92.3581L51.7952 90.1823ZM26.7289 72.2032L29.8193 72.0887L30.1626 69.7984L27.0723 69.6839L26.7289 72.2032ZM36 37.1613L36.5723 39.9097L40.1205 40.2532L39.5482 37.3903L36 37.1613ZM63.8132 72.8903L69.765 71.9742L69.994 73.6919L64.0422 74.7226L63.8132 72.8903ZM22.0361 64.9887L22.494 66.5919L23.5241 63.5L23.1807 61.6677C23.0663 61.6677 22.0361 64.9887 22.0361 64.9887ZM67.8193 67.1645L74.6867 66.4774L75.4879 67.8516L68.6205 68.6532L67.8193 67.1645ZM22.3795 70.9436L23.1807 71.6306L23.6385 68.6532L22.8373 67.7371L22.3795 70.9436ZM23.6385 53.8806L24.2108 56.4L26.2711 53.6516L25.8132 51.0177C25.6988 51.1323 23.6385 53.8806 23.6385 53.8806ZM30.2771 69.7984L34.512 69.6839L35.1988 67.7371L31.0783 67.6226L30.2771 69.7984Z" stroke="white" stroke-width="0.4" stroke-miterlimit="10"/>
<path d="M25.012 69.3403L27.1867 69.6839L26.7289 72.2032L24.5542 72.0887L25.012 69.3403ZM25.012 69.3403L24.5542 71.9742L23.1807 71.6306C23.1807 71.6306 23.753 68.7677 23.6385 68.7677L25.012 69.3403ZM22.6084 59.4919L23.0663 61.5532L24.5542 58.5758L24.2108 56.2855C24.2108 56.4 22.6084 59.4919 22.6084 59.4919ZM35.0843 67.7371L40.3494 67.6226L41.1506 66.1339H35.8855L35.0843 67.7371ZM53.0542 46.2081L53.512 48.9565L56.1446 52.5065L55.8012 49.8726L53.0542 46.2081ZM66.9036 65.7903L73.8855 65.2177L74.8012 66.4774L67.9337 67.1645C67.8193 67.1645 66.9036 65.7903 66.9036 65.7903ZM56.1446 88.35L54.4277 88.2355L53.1687 90.9839L54.7711 91.3274L56.1446 88.35ZM29.8193 41.3984L30.506 44.2613L33.7108 43.2306L33.0241 40.3677L29.8193 41.3984ZM61.753 62.5839L69.0783 62.1258L70.3373 62.5839L63.1265 63.0419L61.753 62.5839ZM63.3554 71.0581L69.3072 70.2565L69.7651 71.9742L63.8132 72.8903L63.3554 71.0581Z" stroke="white" stroke-width="0.4" stroke-miterlimit="10"/>
<path d="M65.759 64.6452L72.8554 64.0726L73.8855 65.2177L66.9036 65.7903L65.759 64.6452ZM63.1265 63.0419L70.3373 62.5839L71.5964 63.271L64.5 63.729L63.1265 63.0419ZM39.5482 37.6194L40.1205 40.4823L43.6687 41.6274L43.0964 38.879C43.2108 38.7645 39.5482 37.6194 39.5482 37.6194ZM61.0663 67.6226L60.7229 69.7984L61.2952 74.0355L61.6386 71.9742L61.0663 67.6226ZM49.9639 43.1161L50.4217 45.8645L53.3976 48.9565L52.9398 46.2081L49.9639 43.1161ZM54.4277 88.2355L52.9398 87.6629L51.7952 90.1823L53.1687 90.8694L54.4277 88.2355ZM58.6627 84.571L57.0602 85.1435L56.1446 88.35L57.747 88.0065L58.6627 84.571ZM52.0241 86.7468L51.9096 85.6016L50.994 87.6629L51.1084 89.0371L52.0241 86.7468ZM27.1867 69.6839L30.2771 69.7984L30.9639 67.7371L27.8735 67.3935L27.1867 69.6839ZM43.2108 38.7645L43.7831 41.5129L47.2169 43.3452L46.759 40.5968L43.2108 38.7645ZM22.3795 66.5919L22.8373 67.8516L23.8675 64.8742L23.4096 63.3855L22.3795 66.5919ZM62.6687 69.3403L68.7349 68.6532L69.3072 70.2565L63.3554 71.0581L62.6687 69.3403ZM58.2048 56.5145L58.3193 59.1484L59.9217 63.3855L59.8072 60.8661C59.9217 60.8661 58.2048 56.5145 58.2048 56.5145Z" stroke="white" stroke-width="0.4" stroke-miterlimit="10"/>
<path d="M36 66.1339H41.265L42.2952 64.7597L37.1446 64.6452L36 66.1339ZM36 66.1339L35.0843 67.8516L30.9638 67.7371L31.994 65.7903L36 66.1339ZM46.759 40.5968L47.2169 43.3452L50.5361 45.8645L50.0783 43.1161L46.759 40.5968ZM52.9397 87.6629L52.0241 86.7468L50.994 89.0371L51.9096 90.0677L52.9397 87.6629ZM61.2952 74.0355L60.494 75.7532V79.7613L61.2952 78.1581V74.0355ZM60.494 79.8758L59.1205 81.021L58.6626 84.6855L59.9217 83.7694C59.9217 83.6548 60.494 79.8758 60.494 79.8758ZM27.6446 45.979L28.3313 48.7274L31.1928 47.0097L30.6205 44.1468L27.6446 45.979ZM25.012 69.3403L27.1867 69.6839L27.9879 67.3935L25.9277 66.821C25.8132 66.821 25.012 69.3403 25.012 69.3403ZM61.753 67.7371L67.8193 67.279L68.6205 68.7677L62.5542 69.4548L61.753 67.7371ZM22.9518 67.8516L23.753 68.7677L24.6687 66.0194L23.9819 64.8742L22.9518 67.8516ZM33.1385 40.3677L33.8253 43.2306L37.259 42.8871L36.6867 40.0242C36.5723 40.0242 33.1385 40.3677 33.1385 40.3677ZM23.0663 61.6677L23.4096 63.5L24.8976 60.6371L24.6687 58.6903L23.0663 61.6677Z" stroke="white" stroke-width="0.4" stroke-miterlimit="10"/>
<path d="M26.1566 53.7661L25.6988 51.1323L28.1024 48.9565L28.5602 51.5903L26.1566 53.7661ZM26.1566 53.7661L26.5 56.171L24.5542 58.6903L24.2108 56.4L26.1566 53.7661ZM23.753 68.7677L25.012 69.3403L25.8132 66.821L24.5542 66.0194L23.753 68.7677ZM57.0602 85.1436L55.3434 85.2581L54.5422 88.2355L56.259 88.35L57.0602 85.1436ZM37.1446 64.6452L42.2952 64.7597L43.5542 63.729L38.5181 63.5L37.1446 64.6452ZM27.8735 67.3936L30.9638 67.7371L31.994 65.9048L29.0181 65.4468C29.0181 65.3323 27.8735 67.3936 27.8735 67.3936ZM56.0301 52.5065L56.259 55.1403L58.4337 59.0339L58.2048 56.5145L56.0301 52.5065ZM60.0361 63.271L59.6928 65.5613L60.7229 69.7984L61.0663 67.6226L60.0361 63.271ZM52.7108 84.2274L52.4819 83.3113L51.7952 85.7161L51.9096 86.8613L52.7108 84.2274Z" stroke="white" stroke-width="0.4" stroke-miterlimit="10"/>
<path d="M31.994 65.7903L36.1145 66.0194L37.259 64.5306L33.253 64.1871C33.1386 64.3016 31.994 65.7903 31.994 65.7903ZM55.2289 85.1436L53.741 84.8L52.9398 87.5484L54.4277 88.121L55.2289 85.1436Z" stroke="white" stroke-width="0.4" stroke-miterlimit="10"/>
<path d="M53.741 84.9145L52.7109 84.2274L52.0241 86.7468L52.9398 87.6629L53.741 84.9145ZM23.4097 63.3855L23.8675 64.8742L25.241 62.2403L24.8976 60.6371L23.4097 63.3855ZM36.5723 40.0242L37.1446 42.8871L40.5783 43.2306L40.1205 40.3677L36.5723 40.0242ZM25.8133 66.821L27.8735 67.3935L28.9036 65.3323L27.0723 64.6452L25.8133 66.821ZM30.506 44.2613L31.0783 47.1242L34.1687 46.0935L33.7109 43.2306L30.506 44.2613ZM60.8374 69.7984L60.0362 71.6306L60.6084 75.7532L61.4097 74.0355L60.8374 69.7984ZM60.494 75.7532L59.1205 77.1274V80.9065L60.494 79.7613V75.7532Z" stroke="white" stroke-width="0.4" stroke-miterlimit="10"/>
<path d="M23.8675 64.8742L24.5542 66.0194L25.8132 63.6145L25.1265 62.2403L23.8675 64.8742ZM53.512 48.9565L53.741 51.7048L56.259 55.2548L56.0301 52.621L53.512 48.9565Z" stroke="white" stroke-width="0.4" stroke-miterlimit="10"/>
<path d="M24.5542 66.0194L25.8133 66.821L26.9578 64.5306L25.8133 63.5L24.5542 66.0194ZM29.0181 65.3323L31.994 65.7903L33.253 64.1871L30.3916 63.5L29.0181 65.3323Z" stroke="white" stroke-width="0.4" stroke-miterlimit="10"/>
<path d="M28.6747 51.4758L28.2169 48.8419L31.0783 47.1242L31.4217 49.8726L28.6747 51.4758ZM28.6747 51.4758L28.9036 53.9952L26.6145 56.0565L26.2711 53.6516L28.6747 51.4758ZM33.1386 64.3016L37.1446 64.6452L38.5181 63.5L34.6265 63.0419C34.6265 62.9274 33.1386 64.3016 33.1386 64.3016ZM24.5542 58.6903L24.7831 60.6371L26.6145 58.2323L26.3856 56.171L24.5542 58.6903ZM40.1205 40.3677L40.5783 43.2306L44.1265 44.3758L43.6687 41.5129L40.1205 40.3677ZM53.0542 81.479L52.8253 80.7919L52.4819 83.3113L52.7109 84.2274L53.0542 81.479ZM57.5181 81.7081L55.8012 82.0516L55.3434 85.2581L57.0603 85.1436L57.5181 81.7081ZM58.4337 59.1484L58.2048 61.5532L59.8072 65.5613L60.1506 63.271L58.4337 59.1484ZM50.4217 45.8645L50.7651 48.7274L53.741 51.8194L53.5121 49.071C53.5121 48.9565 50.4217 45.8645 50.4217 45.8645ZM43.7831 41.5129L44.241 44.3758L47.6747 46.2081L47.3313 43.3452L43.7831 41.5129Z" stroke="white" stroke-width="0.4" stroke-miterlimit="10"/>
<path d="M47.2169 43.3452L47.5602 46.2081L50.7651 48.6129L50.4217 45.75L47.2169 43.3452ZM54.0843 81.8226L53.0542 81.3645L52.7108 84.1129L53.741 84.8L54.0843 81.8226Z" stroke="white" stroke-width="0.4" stroke-miterlimit="10"/>
<path d="M30.3916 63.6145L29.0181 65.3323L27.0723 64.6452L28.4458 62.6984M30.3916 63.6145L28.4458 62.6984M30.3916 63.6145L33.253 64.3016L34.741 63.0419L31.994 62.2403L30.3916 63.6145ZM28.4458 62.6984L26.9578 64.6452L25.8132 63.6145L27.4157 61.5532L28.4458 62.6984ZM55.6867 81.9371L54.0843 81.8226L53.741 84.8L55.2289 85.1436L55.6867 81.9371ZM33.7108 43.2306L34.1687 46.0936L37.4879 45.75L37.1446 42.8871L33.7108 43.2306ZM24.8976 60.6371L25.241 62.2403L26.9578 59.95L26.7289 58.1177L24.8976 60.6371ZM34.6265 62.9274L38.5181 63.3855L40.006 62.5839L36.3434 62.0113L34.6265 62.9274ZM59.1205 77.1274L57.5181 78.0436V81.5936L59.1205 80.9065V77.1274ZM59.6928 65.6758L58.8916 67.7371L59.9217 71.7452L60.7229 69.9129L59.6928 65.6758Z" stroke="white" stroke-width="0.4" stroke-miterlimit="10"/>
<path d="M31.8795 62.2403L30.2771 63.6145L28.4458 62.6984L30.2771 61.2097L31.8795 62.2403ZM31.8795 62.2403L34.6265 63.0419L36.2289 62.1258L33.7108 61.2097L31.8795 62.2403ZM54.0843 78.7306L53.0542 78.6161V81.479L54.0843 81.9371V78.7306ZM54.0843 78.7306L55.6867 78.6161V81.9371L54.0843 81.8226V78.7306ZM25.241 62.2403L25.9277 63.6145L27.5301 61.5532L27.0723 60.0645C26.9578 59.95 25.241 62.2403 25.241 62.2403ZM59.9217 71.7452L58.6627 73.2339L59.1205 77.1274L60.494 75.7532L59.9217 71.7452ZM56.259 55.2548L56.0301 57.7742L58.0904 61.5532L58.3193 59.1484L56.259 55.2548ZM26.5 56.0565L26.6145 58.1177L28.7892 56.171V53.8806L26.5 56.0565ZM31.0783 47.1242L31.4217 49.8726L34.3976 48.9565L34.1687 46.0936L31.0783 47.1242ZM36.3434 62.0113L40.006 62.5839L41.6084 62.1258L38.0602 61.4387L36.3434 62.0113ZM57.5181 78.0436L55.8012 78.6161V81.9371L57.5181 81.5936V78.0436ZM37.1446 42.8871L37.488 45.75L40.9217 46.0936L40.6928 43.2306C40.6928 43.3452 37.1446 42.8871 37.1446 42.8871ZM28.6747 51.4758L28.9036 53.9952L31.5361 52.5065V49.9871C31.4217 49.8726 28.6747 51.4758 28.6747 51.4758Z" stroke="white" stroke-width="0.4" stroke-miterlimit="10"/>
<path d="M53.741 51.7048L53.6265 54.3387L56.1446 57.7742L56.3735 55.2548C56.259 55.2548 53.741 51.7048 53.741 51.7048ZM26.7289 58.2323L26.9578 60.0645L29.0181 58.2323L28.9036 56.2855L26.7289 58.2323ZM58.0904 61.5532L57.4036 63.729L58.8916 67.6226L59.6928 65.5613C59.6928 65.6758 58.0904 61.5532 58.0904 61.5532ZM27.4157 61.5532L28.4458 62.6984L30.1626 61.2097L29.247 59.8355L27.4157 61.5532ZM58.6626 73.2339L57.0602 74.379L57.5181 78.0436L59.1205 77.1274L58.6626 73.2339ZM40.6928 43.3452L40.9217 46.2081L44.3554 47.2387L44.241 44.3758L40.6928 43.3452ZM52.7108 75.6387L52.4819 75.4097L52.8253 78.0436L53.0542 78.5016L52.7108 75.6387Z" stroke="white" stroke-width="0.4" stroke-miterlimit="10"/>
<path d="M50.7651 48.7274V51.4758M50.7651 48.7274L53.741 51.7048L53.6265 54.3387L50.7651 51.4758M50.7651 48.7274L47.5602 46.2081L47.6747 49.071L50.7651 51.4758M34.3976 48.8419L34.1687 46.0936L37.6024 45.75V48.6129L34.3976 48.8419ZM34.3976 48.8419L34.2831 51.4758L31.4217 52.3919V49.8726C31.4217 49.8726 34.3976 48.9565 34.3976 48.8419ZM33.7108 61.2097L36.3434 62.0113L38.0602 61.4387L35.7711 60.5226L33.7108 61.2097ZM33.7108 61.2097L31.8795 62.2403L30.2771 61.2097L32.2229 60.0645L33.7108 61.2097ZM52.7108 75.6387L53.8554 75.5242L54.0843 78.7306L53.0542 78.6161L52.7108 75.6387ZM52.7108 75.6387L52.4819 75.4097L51.7952 72.7758H51.9096L52.7108 75.6387ZM26.9578 59.95L27.4157 61.4387L29.3614 59.721L29.0181 58.1177C29.0181 58.2323 26.9578 59.95 26.9578 59.95ZM58.8916 67.6226L57.6325 69.3403L58.6626 73.2339L59.9217 71.7452L58.8916 67.6226ZM44.1265 44.3758L44.241 47.2387L47.5602 48.9565L47.4458 46.0936L44.1265 44.3758ZM28.7892 53.9952V56.2855L31.3072 54.9113L31.4217 52.621L28.7892 53.9952ZM57.0602 74.379L55.3434 75.1806L55.8012 78.6161L57.5181 78.0436L57.0602 74.379ZM56.0301 57.7742L55.3434 60.179L57.2892 63.8436L57.9759 61.6677C58.0904 61.5532 56.0301 57.7742 56.0301 57.7742Z" stroke="white" stroke-width="0.4" stroke-miterlimit="10"/>
<path d="M29.3614 59.8355L30.2771 61.2097L32.2229 60.0645L31.5361 58.5758L29.3614 59.8355ZM35.7711 60.5226L38.1747 61.4387L40.1205 61.3242L37.9458 60.4081C37.8313 60.4081 35.7711 60.5226 35.7711 60.5226ZM28.9036 56.2855L29.0181 58.2323L31.3072 56.8581L31.4217 54.7968C31.3072 54.7968 28.9036 56.2855 28.9036 56.2855ZM37.4879 45.8645V48.7274L40.8072 49.071L40.9217 46.2081L37.4879 45.8645ZM57.6325 69.4548L56.0301 70.829L56.9458 74.4935L58.5482 73.3484C58.6626 73.2339 57.6325 69.4548 57.6325 69.4548Z" stroke="white" stroke-width="0.4" stroke-miterlimit="10"/>
<path d="M34.2831 51.5903L34.0542 53.9952L31.3072 54.7968L31.4217 52.5065L34.2831 51.5903ZM34.2831 51.5903L34.3976 48.9565L37.6024 48.6129L37.259 51.3613L34.2831 51.5903ZM29.0181 58.2323L29.3614 59.8355L31.5361 58.5758L31.3072 56.8581L29.0181 58.2323ZM32.2229 60.0645L33.7108 61.2097L35.6566 60.6371L34.2831 59.3774C34.3976 59.3774 32.2229 60.0645 32.2229 60.0645ZM57.4036 63.729L56.259 65.6758L57.747 69.3403L59.006 67.6226C58.8916 67.6226 57.4036 63.729 57.4036 63.729ZM53.6265 54.3387L53.0542 56.8581L55.4578 60.179L56.1446 57.7742C56.0301 57.7742 53.6265 54.3387 53.6265 54.3387ZM37.8313 60.4081L40.006 61.3242L41.9518 61.5532L39.8916 60.6371L37.8313 60.4081ZM50.7651 70.0274V70.371L51.7952 72.8903H51.9096L50.7651 70.0274ZM56.0301 70.829L54.3132 71.8597L55.2289 75.2952L56.9458 74.4936L56.0301 70.829ZM40.9217 46.2081L40.8072 49.071L44.012 50.1016L44.241 47.3532C44.3554 47.2387 40.9217 46.2081 40.9217 46.2081Z" stroke="white" stroke-width="0.4" stroke-miterlimit="10"/>
<path d="M50.7651 51.4758L50.3072 54.1097M50.7651 51.4758L53.6265 54.3387L53.0542 56.9726L50.3072 54.1097M50.7651 51.4758L47.6747 49.071L47.3313 51.8194L50.3072 54.1097M31.4217 58.5758L32.1084 60.0645L34.2831 59.3774L33.7108 57.8887L31.4217 58.5758ZM34.3976 59.3774L35.7711 60.5226L37.8313 60.2935L36.6867 59.0339L34.3976 59.3774ZM44.3554 47.2387L44.1265 49.9871L47.3313 51.7048L47.6747 48.9565L44.3554 47.2387ZM31.3072 54.7968L31.1928 56.8581L33.7108 56.0565L33.9398 53.9952C34.0542 53.9952 31.3072 54.7968 31.3072 54.7968ZM55.4578 60.179L54.3132 62.2403L56.259 65.6758L57.4036 63.729L55.4578 60.179ZM56.1446 65.6758L54.6566 67.279L56.0301 70.829L57.6325 69.4548L56.1446 65.6758Z" stroke="white" stroke-width="0.4" stroke-miterlimit="10"/>
<path opacity="0.1" d="M31.3072 56.8581L31.5362 58.5758L33.8253 57.8887V56.0564L31.3072 56.8581Z" stroke="white" stroke-width="0.4" stroke-miterlimit="10"/>
<path d="M49.3916 67.3935L49.506 67.8516L50.7651 70.2564V69.9129C50.7651 70.0274 49.3916 67.3935 49.3916 67.3935ZM37.6024 48.6129L37.3735 51.2468L40.4639 51.5903L40.9217 48.9564L37.6024 48.6129ZM36.6867 59.1484L37.8313 60.4081L40.006 60.6371L39.0904 59.4919L36.6867 59.1484ZM34.2831 51.5903L34.0542 53.9952L36.9157 53.7661L37.3735 51.3613C37.3735 51.2468 34.2831 51.5903 34.2831 51.5903ZM54.6566 67.279L53.0542 68.5387L54.3132 71.7452L56.0301 70.7145L54.6566 67.279Z" stroke="white" stroke-width="0.4" stroke-miterlimit="10"/>
<path d="M33.8253 57.8887L34.3976 59.3774L36.6867 59.1484L36.3434 57.6597C36.2289 57.6597 33.8253 57.8887 33.8253 57.8887ZM47.6747 65.1032L47.9036 65.7903L49.506 67.9661L49.3916 67.5081L47.6747 65.1032ZM53.0542 56.8581L52.0241 59.1484L54.3133 62.2403L55.4578 60.179L53.0542 56.8581ZM38.9759 59.4919L39.8916 60.6371L42.0663 61.3242L41.2651 60.179L38.9759 59.4919ZM34.0542 53.9952L33.8253 56.0565L36.4578 55.8274L36.9157 53.6516L34.0542 53.9952Z" stroke="white" stroke-width="0.4" stroke-miterlimit="10"/>
<path opacity="0.1" d="M33.8253 56.0565V57.8887L36.3434 57.6597L36.5723 55.8274C36.4578 55.8274 33.8253 56.0565 33.8253 56.0565Z" stroke="white" stroke-width="0.4" stroke-miterlimit="10"/>
<path d="M54.3133 62.2403L52.9398 64.0726L54.7711 67.279L56.259 65.6758C56.1446 65.6758 54.3133 62.2403 54.3133 62.2403ZM40.8072 49.071L40.3494 51.7048L43.4398 52.7355L44.012 50.1016L40.8072 49.071ZM45.7289 63.0419L46.0723 63.9581L47.9036 65.7903L47.6747 65.1032L45.7289 63.0419ZM41.2651 60.179L42.0663 61.3242L44.1265 62.4694L43.5542 61.4387L41.2651 60.179Z" stroke="white" stroke-width="0.4" stroke-miterlimit="10"/>
<path d="M50.3072 53.9952L49.506 56.4M50.3072 53.9952L53.1687 56.7436L52.1386 59.0339L49.506 56.4M50.3072 53.9952L47.3313 51.7048L46.6446 54.2242L49.506 56.4M52.9398 64.0726L51.4518 65.5613L53.1687 68.6532L54.7711 67.3936C54.6566 67.279 52.9398 64.0726 52.9398 64.0726ZM52.9398 64.0726L50.7651 61.0952L52.0241 59.1484L54.3132 62.2403L52.9398 64.0726ZM43.5542 61.4387L44.1265 62.4694L46.0723 63.9581L45.7289 63.0419L43.5542 61.4387ZM36.2289 57.6597L36.5723 59.1484L38.8614 59.3774L38.747 57.8887C38.8614 58.0032 36.2289 57.6597 36.2289 57.6597ZM37.3735 51.2468L36.9157 53.6516L39.8916 53.9952L40.4639 51.5903L37.3735 51.2468ZM44.1265 50.1016L43.5542 52.7355L46.5301 54.3387L47.2169 51.8194L44.1265 50.1016ZM48.247 64.0726L47.6747 65.1032L49.3916 67.3936L50.1928 66.5919L48.247 64.0726Z" stroke="white" stroke-width="0.4" stroke-miterlimit="10"/>
<path d="M36.4578 55.8274L36.2289 57.6597L38.747 58.0032L39.0904 56.171L36.4578 55.8274ZM36.4578 55.8274L36.9157 53.6516L39.8916 54.1097L39.2048 56.171L36.4578 55.8274ZM38.8614 58.0032L38.9759 59.4919L41.2651 60.2936V58.8048L38.8614 58.0032ZM46.1867 61.8968L45.7289 63.0419L47.6747 65.1032L48.247 64.0726L46.1867 61.8968ZM40.4639 51.7048L39.8916 53.9952L42.8675 54.9113L43.6687 52.621C43.5542 52.621 40.4639 51.7048 40.4639 51.7048ZM41.3795 58.8048V60.2936L43.6687 61.5532L43.8976 60.179L41.3795 58.8048Z" stroke="white" stroke-width="0.4" stroke-miterlimit="10"/>
<path d="M42.753 54.9113L43.5542 52.621L46.5301 54.1097L45.6145 56.4L42.753 54.9113ZM42.753 54.9113L41.9518 56.9726L39.2048 56.0565L39.8916 53.9952C39.8916 53.9952 42.753 55.0258 42.753 54.9113ZM43.7831 60.0645L43.5542 61.4387L45.7289 63.0419L46.1868 61.8968L43.7831 60.0645ZM50.7651 61.0952L49.3916 62.6984L51.4518 65.4468L52.9398 63.9581L50.7651 61.0952ZM49.3916 56.4L48.247 58.5758L50.6506 61.0952L51.9096 59.1484L49.3916 56.4ZM39.2048 56.171L38.8615 58.0032L41.3795 58.8048L41.9518 57.0871L39.2048 56.171Z" stroke="white" stroke-width="0.4" stroke-miterlimit="10"/>
<path d="M46.5301 54.2242L45.6145 56.5145L48.247 58.5758L49.3916 56.4L46.5301 54.2242ZM47.1024 60.4081L46.1867 61.8968L48.3614 64.0726L49.506 62.6984L47.1024 60.4081Z" stroke="white" stroke-width="0.4" stroke-miterlimit="10"/>
<path d="M48.3614 58.5758L47.2169 60.4081L49.506 62.8129L50.8795 61.2097C50.7651 61.0952 48.3614 58.5758 48.3614 58.5758Z" stroke="white" stroke-width="0.4" stroke-miterlimit="10"/>
<path opacity="0.1" d="M41.9518 57.0871L41.3795 58.8048L43.8976 60.179L44.6988 58.5758C44.5843 58.4613 41.9518 57.0871 41.9518 57.0871Z" stroke="white" stroke-width="0.4" stroke-miterlimit="10"/>
<path d="M44.5843 58.4613L43.7831 60.0645L46.0723 61.8968L46.988 60.4081C47.1024 60.4081 44.5843 58.4613 44.5843 58.4613ZM44.5843 58.4613L41.9518 57.0871L42.753 55.0258L45.6145 56.5145L44.5843 58.4613Z" stroke="white" stroke-width="0.4" stroke-miterlimit="10"/>
<path d="M50.994 83.4258L52.4819 83.0823L52.7108 81.7081L49.7349 82.3952L50.994 83.4258ZM50.994 83.4258L52.253 84.2274M49.8494 68.6532L46.1867 68.8823L45.8434 70.6L50.6506 70.1419M53.0542 68.5387L51.3373 69.5694L50.7651 70.0274M45.7289 72.4323L51.3373 71.8597M54.4277 71.7452L52.7108 72.5468L51.9096 72.7758M48.5904 81.021L52.8253 80.1048M48.1325 86.8613L51.7952 85.6016M46.6446 86.1742L52.1386 84.4565M49.6205 89.6097L50.8795 87.7774M47.2169 89.2661L50.994 87.4339M49.7349 87.2048L51.1084 87.3194M49.7349 88.8081L47.7892 90.2968L46.0723 90.9839L48.8193 89.0371L50.0783 88.4645L48.9337 88.9226L50.4217 88.2355M60.1506 84.3419L65.6446 82.8532L66.6747 82.0516L60.6084 83.7694L60.1506 84.2274M52.5964 76.7839L46.8735 77.8145L47.6747 79.5323L52.8253 78.5016M46.3012 76.0968L52.3675 75.0661M45.9578 74.2645L51.9096 73.4629M48.9337 67.1645L46.759 67.3936L47.5602 65.9048M47.5602 65.9048H48.0181M47.5602 65.9048L47.7892 65.6758M47.5602 65.9048L41.2651 66.1339L42.2952 64.7597M42.2952 64.7597H46.8735M42.2952 64.7597L43.5542 63.729H45.8434M45.6145 56.5145L44.5843 58.4613L47.1024 60.4081L48.247 58.5758L45.6145 56.5145ZM52.8253 80.7919V78.1581L53.0542 78.6161V81.479L52.8253 80.7919Z" stroke="white" stroke-width="0.4" stroke-miterlimit="10"/>
<path d="M51.4518 65.4468L50.1928 66.5919L51.6807 69.4548L52.9398 72.4323L53.8554 75.5242M53.8554 75.5242L54.0843 78.7306M53.8554 75.5242L55.2289 75.1806M63.241 79.9903L62.5542 81.479L68.506 79.8758L69.1928 78.6161L63.241 79.9903Z" stroke="white" stroke-width="0.4" stroke-miterlimit="10"/>
<path d="M62.5542 81.479L60.7229 82.2806L60.9518 80.6774L63.241 79.9903L62.5542 81.479Z" stroke="white" stroke-width="0.4" stroke-miterlimit="10"/>
<path d="M62.5542 81.479L61.6386 82.7387L60.3795 83.5403L60.7229 82.2806L62.5542 81.479ZM60.9518 80.6774L63.241 79.9903L63.6988 78.3871L61.2952 79.0742L60.9518 80.6774Z" stroke="white" stroke-width="0.4" stroke-miterlimit="10"/>
<path d="M63.6988 78.3871L61.2952 79.0742L61.5241 77.2419L64.0422 76.5548L63.6988 78.3871Z" stroke="white" stroke-width="0.4" stroke-miterlimit="10"/>
<path d="M61.5241 77.2419L64.0422 76.5548V74.7226L61.6385 75.1806V76.3258L61.5241 77.2419Z" stroke="white" stroke-width="0.4" stroke-miterlimit="10"/>
<path d="M64.0422 74.7226L63.8133 72.8903L61.6385 73.2339V75.1806L64.0422 74.7226Z" stroke="white" stroke-width="0.4" stroke-miterlimit="10"/>
<path d="M62.6687 69.3403L61.5241 69.4548M61.1807 66.2484L66.9036 65.7903L67.8193 67.1645L61.753 67.7371L61.2952 67.05M65.0723 62.1258L65.8735 62.0113V58.6903L62.2108 59.1484M62.2108 59.1484L62.0964 62.3548M62.2108 59.1484L60.2651 59.6065L59.4639 56.629V55.9419L62.2108 55.4839M76.5181 71.0581L76.6325 72.6613M88.994 58.6903L85.4458 57.6597V59.6065M80.6386 59.3774L83.8434 59.8355L80.753 60.4081L80.6386 59.3774ZM80.6386 59.3774L75.488 58.9194L75.6024 61.0952V61.2097M92.6566 57.7742L93.1145 55.9419M93.1145 55.9419L90.253 54.2242L89.7952 56.5145M93.1145 55.9419L94.0301 57.2016M93.1145 55.9419L93.9157 53.9952L95.2892 55.9419L94.9458 56.7436M89.7952 56.5145L92.3133 57.8887M89.7952 56.5145L89.4518 58.6903M56.6024 48.9565L57.0602 48.4984L57.5181 51.2468M59.2349 52.0484L57.9759 52.5065M55.1145 45.979V45.1774L53.8554 41.2839L53.3976 42.2M58.4337 29.3742L51.9096 28.4581M93.3434 41.3984L92.0843 41.971M104.331 47.6968L102.958 47.3532M86.9337 78.5016L79.8374 79.7613M64.3855 83.3113L60.0361 84.571M60.8374 63.729H64.5L65.759 64.6452L60.9518 64.8742M63.1265 63.0419H60.7229M43.5542 63.729L44.8133 62.9274M40.006 62.5839L44.6988 62.8129M41.9518 61.5532L43.0964 61.8968L42.0663 61.3242M41.6084 62.1258L43.2108 62.0113M61.6386 73.2339L63.8133 72.8903L63.3554 71.0581L61.6386 71.2871V73.2339Z" stroke="white" stroke-width="0.4" stroke-miterlimit="10"/>
<path d="M96.2048 54.3387L95.8614 56.0564M96.8916 55.1403L95.5181 56.4M33.8253 56.0564V57.8887M61.753 62.5839L60.8373 62.3548L68.0482 62.0113L69.0783 62.1258L61.753 62.5839Z" stroke="white" stroke-width="0.4" stroke-miterlimit="10"/>
</svg>
