<svg width="500" height="500" viewBox="0 0 500 500" fill="none" xmlns="http://www.w3.org/2000/svg">
<circle cx="250" cy="250" r="250" fill="#FA3812"/>
<path fill-rule="evenodd" clip-rule="evenodd" d="M187.398 133.401C153.211 156.776 128 202.168 128 250C128 321.494 178.586 383 237.458 383C259.689 383 278.385 375.808 292.89 362.296C294.304 361.189 295.509 360.081 296.5 359L307.5 380.5H322V356.5C366 347 380 311 375.5 277.5C371.039 244.295 351.64 237.642 328.741 229.788C327.504 229.364 326.256 228.936 325 228.5C319.686 226.656 314.176 224.954 308.71 223.265C288.977 217.167 269.817 211.246 262.5 199.5C246.303 173.5 270.5 151.5 287.5 149.5C329.1 145.1 347.833 188.667 352 211H364V134H352L341 152.5C317.267 131.844 298.943 133.207 290.441 133.84C289.271 133.927 288.286 134 287.5 134C278 126 252.5 116 237 117C236.997 117 236.995 117 236.992 117C236.913 117 236.833 117 236.753 117C230.025 117 223.35 117.916 216.811 119.646C205.548 122.458 195.811 127.32 187.398 133.401Z" fill="white"/>
<path d="M223 136.5C183.8 146.9 174.667 187.833 175 207V249.5L175 290.5C174.833 316.667 186.9 368.3 236.5 365.5C286.1 362.7 304.167 302.333 307 272.5H322V341C334.5 339 358 327 354 301.5C350 276 332 268.176 294 257C260 247 235.724 234 232.5 199C229.7 168.6 250 148 260.5 141.5C253.833 138.5 237 133.3 223 136.5Z" fill="#FA3812"/>
</svg>
