<svg width="500" height="500" viewBox="0 0 500 500" fill="none" xmlns="http://www.w3.org/2000/svg">
<rect width="500" height="500" rx="250" fill="#1253FA"/>
<path d="M338.833 293.821C338.833 256.889 320.867 241.139 302.364 234.622L239.349 212.083C214.411 203.121 204.489 189 204.489 170.806C204.489 152.612 223.26 133.332 249.539 133.332C280.377 133.332 303.706 158.586 316.846 202.035H325.157V123.827H316.309L303.974 145.552C289.643 130.639 270.083 122.052 249.539 121.655H242.299C225.396 109.981 205.373 103.822 184.914 104.004C124.58 104.004 68 174.337 68 249.829C68 325.321 124.58 395.654 184.914 395.654C210.639 396.075 235.492 386.222 254.097 368.227L267.773 393.753H278.231V367.412C313.627 363.339 338.833 333.739 338.833 293.821ZM278.231 355.735V278.07H267.238C256.511 345.416 224.869 382.076 185.718 382.076C146.568 382.076 115.195 353.563 115.195 292.734V207.738C115.195 146.91 148.713 118.396 185.718 118.396C197.74 118.382 209.497 121.972 219.506 128.715C208.827 134.051 199.86 142.342 193.642 152.627C187.425 162.912 184.213 174.77 184.378 186.828C184.378 216.971 198.322 235.98 219.774 243.583L271.795 262.049C305.851 274.269 319.794 288.389 319.794 312.558C319.794 336.726 302.096 352.205 278.231 355.735Z" fill="#FEFDFC"/>
<rect x="315.5" y="278.5" width="115" height="115" rx="57.5" fill="#1253FA"/>
<rect x="315.5" y="278.5" width="115" height="115" rx="57.5" stroke="#FEFDFC" stroke-width="5"/>
<path d="M387.99 344.093C387.99 336.001 383.135 333.226 373.424 332.07C366.487 331.145 365.1 329.296 365.1 326.058C365.1 322.821 367.412 320.74 372.037 320.74C376.198 320.74 378.511 322.128 379.667 325.596C379.898 326.29 380.592 326.752 381.285 326.752H384.984C385.909 326.752 386.603 326.058 386.603 325.134V324.902C385.678 319.815 381.516 315.885 376.198 315.423V309.874C376.198 308.948 375.505 308.255 374.349 308.023H370.881C369.956 308.023 369.262 308.717 369.031 309.874V315.191C362.094 316.116 357.701 320.74 357.701 326.521C357.701 334.151 362.326 337.157 372.037 338.313C378.511 339.469 380.592 340.856 380.592 344.556C380.592 348.255 377.354 350.799 372.962 350.799C366.95 350.799 364.869 348.255 364.175 344.787C363.944 343.862 363.251 343.399 362.557 343.399H358.626C357.701 343.399 357.008 344.093 357.008 345.018V345.249C357.932 351.029 361.632 355.191 369.262 356.348V361.897C369.262 362.821 369.956 363.515 371.112 363.746H374.58C375.505 363.746 376.198 363.053 376.43 361.897V356.348C383.366 355.191 387.99 350.336 387.99 344.093Z" fill="#FEFDFC"/>
<path d="M360.94 368.37C342.905 361.896 333.656 341.781 340.362 323.977C343.83 314.266 351.46 306.867 360.94 303.399C361.865 302.936 362.327 302.243 362.327 301.086V297.85C362.327 296.924 361.865 296.231 360.94 296C360.708 296 360.246 296 360.015 296.231C338.049 303.167 326.026 326.52 332.962 348.486C337.124 361.433 347.067 371.376 360.015 375.538C360.94 376 361.865 375.538 362.096 374.613C362.327 374.382 362.327 374.15 362.327 373.688V370.451C362.327 369.757 361.633 368.833 360.94 368.37ZM385.449 296.231C384.524 295.769 383.598 296.231 383.368 297.156C383.136 297.387 383.136 297.618 383.136 298.081V301.318C383.136 302.243 383.83 303.167 384.524 303.63C402.558 310.104 411.807 330.219 405.101 348.023C401.633 357.734 394.003 365.133 384.524 368.601C383.598 369.064 383.136 369.757 383.136 370.914V374.15C383.136 375.076 383.598 375.769 384.524 376C384.755 376 385.217 376 385.449 375.769C407.414 368.833 419.437 345.48 412.501 323.514C408.339 310.335 398.165 300.393 385.449 296.231Z" fill="#FEFDFC"/>
</svg>
