<svg width="500" height="500" viewBox="0 0 500 500" fill="none" xmlns="http://www.w3.org/2000/svg">
<rect width="500" height="500" rx="250" fill="#FA3812"/>
<path d="M338.833 293.821C338.833 256.889 320.867 241.139 302.364 234.622L239.349 212.083C214.411 203.121 204.489 189 204.489 170.806C204.489 152.612 223.26 133.332 249.539 133.332C280.377 133.332 303.706 158.586 316.846 202.035H325.157V123.827H316.309L303.974 145.552C289.643 130.639 270.083 122.052 249.539 121.655H242.299C225.396 109.981 205.373 103.822 184.914 104.004C124.58 104.004 68 174.337 68 249.829C68 325.321 124.58 395.654 184.914 395.654C210.639 396.075 235.492 386.222 254.097 368.227L267.773 393.753H278.231V367.412C313.627 363.339 338.833 333.739 338.833 293.821ZM278.231 355.735V278.07H267.238C256.511 345.416 224.869 382.076 185.718 382.076C146.568 382.076 115.195 353.563 115.195 292.734V207.738C115.195 146.91 148.713 118.396 185.718 118.396C197.74 118.382 209.497 121.972 219.506 128.715C208.827 134.051 199.86 142.342 193.642 152.627C187.425 162.912 184.213 174.77 184.378 186.828C184.378 216.971 198.322 235.98 219.774 243.583L271.795 262.049C305.851 274.269 319.794 288.389 319.794 312.558C319.794 336.726 302.096 352.205 278.231 355.735Z" fill="#FEFDFC"/>
<rect x="315.5" y="278.5" width="115" height="115" rx="57.5" fill="#FA3812"/>
<rect x="315.5" y="278.5" width="115" height="115" rx="57.5" stroke="#FEFDFC" stroke-width="5"/>
<path d="M362.539 347.335V367.956H384.032V325.318H362.539V347.335Z" fill="#FEFDFC"/>
<path d="M341 346.637V347.421C341 350.909 342.395 354.266 344.88 356.751L352.292 364.119C354.777 366.604 358.177 367.999 361.709 367.999H362.493V346.68H341V346.637Z" fill="#FEFDFC"/>
<path d="M401.47 314.594L390.353 304H384.031V367.957H384.99C388.435 367.957 391.748 366.649 394.189 364.294L401.47 357.363C404.086 354.878 405.568 351.433 405.568 347.858V324.098C405.568 320.523 404.086 317.079 401.47 314.594Z" fill="#FEFDFC"/>
<path fill-rule="evenodd" clip-rule="evenodd" d="M361.664 367.781V346.637H362.492V367.781H361.664Z" fill="url(#paint0_linear_3668_3400)"/>
<path fill-rule="evenodd" clip-rule="evenodd" d="M383.203 367.52V325.318H384.031V367.52H383.203Z" fill="url(#paint1_linear_3668_3400)"/>
<defs>
<linearGradient id="paint0_linear_3668_3400" x1="362.1" y1="367.781" x2="362.1" y2="346.637" gradientUnits="userSpaceOnUse">
<stop offset="0.22" stop-color="#FA3812" stop-opacity="0.3"/>
<stop offset="1" stop-color="#FA3812"/>
</linearGradient>
<linearGradient id="paint1_linear_3668_3400" x1="383.595" y1="367.52" x2="383.595" y2="325.318" gradientUnits="userSpaceOnUse">
<stop offset="0.22" stop-color="#FA3812" stop-opacity="0.3"/>
<stop offset="1" stop-color="#FA3812"/>
</linearGradient>
</defs>
</svg>
