<svg width="302" height="349" viewBox="0 0 302 349" fill="none"
    xmlns="http://www.w3.org/2000/svg">
    <g clip-path="url(#clip0_1_8)">
        <path d="M198.902 68.0502H174.586V104.749H198.902V68.0502Z" fill="#1682FE"/>
        <path d="M129.116 0H104.8V36.6985H129.116V0Z" fill="#1682FE"/>
        <path d="M59.3301 34.9972H35.0145V71.6957H59.3301V34.9972Z" fill="#60D8A4"/>
        <path d="M24.5588 174.5H0V279.249H24.5588V174.5Z" fill="#F4BB3B"/>
        <path d="M24.5588 69.7513H0V174.5H24.5588V69.7513Z" fill="#60D8A4"/>
        <path d="M233.673 103.047H209.357V139.746H233.673V103.047Z" fill="#1682FE"/>
        <path d="M233.673 209.254H209.357V245.953H233.673V209.254Z" fill="#FF5A5A"/>
        <path d="M198.902 244.251H174.586V280.95H198.902V244.251Z" fill="#FF5A5A"/>
        <path d="M129.116 312.302H104.8V349H129.116V312.302Z" fill="#FF5A5A"/>
        <path d="M59.3301 277.304H35.0145V314.003H59.3301V277.304Z" fill="#F4BB3B"/>
        <path d="M302 139.503V69.7514H266.986V34.9972H197.2V0H127.414V34.9972H57.628V69.9944H22.6135V279.249H57.628V314.246H127.414V349.243H197.2V314.246H266.986V279.249H302V209.254H232.214V244.251H197.2V279.249H127.414V244.251H92.6425V104.749H127.657V69.7514H197.443V104.749H232.457V139.746H302V139.503Z" fill="#3A3A3A"/>
    </g>
    <defs>
        <clipPath id="clip0_1_8">
            <rect width="302" height="349" fill="white"/>
        </clipPath>
    </defs>
</svg>
