<svg width="500" height="500" viewBox="0 0 500 500" fill="none" xmlns="http://www.w3.org/2000/svg">
<circle cx="250" cy="250" r="250" fill="url(#paint0_linear_3466_84)"/>
<path fill-rule="evenodd" clip-rule="evenodd" d="M178.757 141.804L222.744 96.4745L232.87 131.528C227.168 137.149 220.817 143.428 214.076 150.11C206.776 148.084 196.119 145.596 187.16 143.618C184.113 142.945 181.247 142.328 178.757 141.804ZM165.208 155.767L102.998 219.876C105.382 220.385 108.098 220.977 110.977 221.62C119.318 223.483 129.148 225.798 136.295 227.754C141.39 222.624 146.877 217.115 152.605 211.375C159.607 204.357 166.971 196.993 174.423 189.555L165.208 155.767ZM182.572 181.427C190.448 173.576 198.312 165.753 205.844 158.276C199.471 156.655 191.802 154.884 185.003 153.382C180.939 152.485 177.213 151.69 174.298 151.089L182.572 181.427ZM99.8245 229.425C102.416 229.973 105.494 230.642 108.797 231.38C115.084 232.784 122.122 234.424 128.16 235.956C124.388 239.766 120.933 243.266 117.879 246.374C113.444 250.886 109.839 254.586 107.324 257.214L107.074 257.476L99.8245 229.425ZM245.469 130.35C244.444 130.096 243.527 129.872 242.747 129.686L232.814 95.3043L266.957 103.658L276.495 138.375C270.422 136.776 263.311 134.914 256.998 133.284C252.557 132.137 248.498 131.101 245.469 130.35ZM229.478 192.896L273.595 147.952C267.613 146.377 260.67 144.56 254.497 142.966C250.066 141.822 246.044 140.795 243.063 140.056C241.57 139.686 240.359 139.393 239.497 139.196L239.367 139.166C233.746 144.707 227.51 150.874 220.901 157.424C222.309 164.492 224.785 174.722 227.008 183.437C227.908 186.965 228.762 190.224 229.478 192.896ZM189.528 188.613C197.183 180.982 204.828 173.376 212.168 166.088C212.782 168.673 213.498 171.662 214.264 174.845C216 182.062 217.999 190.296 219.664 197.127C212.948 195.023 204.611 192.664 197.397 190.707C194.56 189.938 191.883 189.227 189.528 188.613ZM181.284 196.836C181.898 196.986 182.597 197.161 183.371 197.356C186.345 198.108 190.359 199.16 194.779 200.359C201.781 202.258 209.716 204.503 216.126 206.498L197.034 225.948C196.86 226.089 196.693 226.241 196.534 226.403L152.212 271.603C152.142 271.35 152.071 271.087 151.996 270.814C151.192 267.862 150.137 263.861 149.008 259.437C146.943 251.341 144.659 241.936 143.217 234.975C148.354 229.804 153.894 224.24 159.684 218.438C166.617 211.489 173.906 204.2 181.284 196.836ZM142.348 273.443L142.369 273.521L113.703 265.015C113.967 264.737 114.25 264.441 114.55 264.127C117.017 261.548 120.585 257.887 125.011 253.383C127.938 250.405 131.235 247.064 134.829 243.433C136.185 249.39 137.82 256.035 139.319 261.909C140.458 266.375 141.527 270.429 142.348 273.443ZM145.866 284.989L103.62 272.454C101.601 271.855 100.044 270.242 99.5174 268.203L88.2994 224.795C87.7758 222.769 88.3455 220.617 89.8026 219.115L220.013 84.9292C221.495 83.4013 223.677 82.7735 225.745 83.2795L271.617 94.5036C273.732 95.021 275.4 96.6431 275.977 98.7423L288.169 143.121C288.735 145.182 288.162 147.388 286.665 148.913L210.304 226.704L247.088 235.5C249.216 236.009 250.898 237.636 251.478 239.746L261.592 276.561L334.013 201.929C335.495 200.401 337.677 199.773 339.745 200.279L385.617 211.504C387.732 212.021 389.4 213.643 389.977 215.742L402.169 260.121C402.735 262.182 402.162 264.388 400.665 265.913L267.496 401.567C265.92 403.172 263.579 403.761 261.432 403.093L217.546 389.44C215.563 388.823 214.039 387.223 213.52 385.212L202.85 343.925L160.508 330.432C158.543 329.805 157.037 328.213 156.521 326.216L145.866 284.989ZM165.65 321.575L157.089 288.448C157.733 288.576 158.474 288.726 159.3 288.897C162.296 289.515 166.341 290.385 170.797 291.38C178.098 293.01 186.411 294.96 192.995 296.687C194.473 303.486 196.497 311.768 198.319 318.909C199.458 323.375 200.527 327.429 201.348 330.443C201.632 331.486 201.889 332.414 202.11 333.194L165.65 321.575ZM211.172 328.459C211.115 328.25 211.057 328.035 210.996 327.814C210.192 324.862 209.137 320.861 208.008 316.437C206.125 309.056 204.061 300.588 202.618 293.875L216.401 279.67C220.671 281.026 229.144 283.764 237.746 286.544L237.755 286.547C241.334 287.703 244.934 288.866 248.264 289.941L211.172 328.459ZM241.701 277.312L241.65 277.296C235.334 275.255 228.963 273.196 224.174 271.659L244.204 251.016L252.375 280.759C249.068 279.693 245.419 278.514 241.749 277.328L241.71 277.315L241.701 277.312ZM200.659 245.764L198.537 238.691L159.277 278.687C159.894 278.811 160.579 278.95 161.322 279.103C164.38 279.735 168.479 280.616 172.977 281.62C180.233 283.241 188.617 285.204 195.38 286.974L208.292 273.667C206.543 266.644 204.064 257.743 201.877 250.041C201.455 248.555 201.047 247.123 200.659 245.764ZM210.256 242.952L216.83 264.867L237.56 243.503L208.42 236.535C208.698 237.509 209.006 238.587 209.338 239.747C209.628 240.758 209.936 241.832 210.256 242.952ZM216.322 337.898L216.058 337.845L280.084 271.864C281.986 278.626 284.377 286.935 286.497 294.189C287.84 298.785 289.077 302.97 290.015 306.078C290.362 307.229 290.671 308.241 290.929 309.075C283.404 316.497 275.958 323.848 268.866 330.86C263.366 336.298 258.078 341.533 253.132 346.439C246.106 344.553 236.874 342.384 228.977 340.62C224.479 339.616 220.38 338.735 217.322 338.103C216.976 338.032 216.642 337.964 216.322 337.898ZM233.292 366.193C236.706 362.773 240.606 358.884 244.88 354.633C239.142 353.196 232.645 351.686 226.797 350.38C222.341 349.385 218.296 348.515 215.3 347.897C214.894 347.813 214.508 347.734 214.144 347.66L221.909 377.709C222.087 377.525 222.27 377.336 222.459 377.142C225.041 374.488 228.743 370.75 233.292 366.193ZM230.667 383.049C233.125 380.537 236.415 377.219 240.369 373.258C243.886 369.736 247.92 365.712 252.352 361.306C252.869 363.582 253.45 366.119 254.064 368.794C255.797 376.34 257.804 384.996 259.433 391.999L230.667 383.049ZM260.73 352.987L260.778 353.206L260.909 353.792L261.028 354.324C261.735 357.488 262.717 361.796 263.81 366.556C265.273 372.924 266.932 380.089 268.393 386.378L329.505 324.126C323.418 322.38 316.238 320.478 309.839 318.847C305.415 317.719 301.398 316.73 298.421 316.022L298.183 315.966C290.582 323.463 283.058 330.89 275.897 337.971C270.604 343.204 265.51 348.247 260.73 352.987ZM331.064 292.794C332.774 300.24 334.751 308.767 336.368 315.719C329.391 313.619 320.183 311.164 312.309 309.157C310.291 308.642 308.354 308.156 306.556 307.71C314.277 300.099 321.971 292.521 329.342 285.263C329.862 287.55 330.446 290.103 331.064 292.794ZM337.733 277.001C337.825 277.415 337.923 277.856 338.028 278.324C338.735 281.488 339.717 285.796 340.81 290.556C342.122 296.268 343.592 302.62 344.936 308.408L387.902 264.639C382.159 263.2 375.652 261.688 369.797 260.38C365.341 259.385 361.296 258.515 358.3 257.897C357.965 257.828 357.644 257.762 357.338 257.7C353.306 261.67 348.933 265.975 344.313 270.524L344.265 270.571L344.248 270.588L337.733 277.001ZM359.994 248.036L360.322 248.103C363.38 248.735 367.479 249.616 371.977 250.62C377.858 251.934 384.479 253.472 390.378 254.95L380.957 220.658L348.915 212.818L359.994 248.036ZM292.599 268.865C293.227 271.641 293.987 274.97 294.81 278.556C296.424 285.58 298.275 293.572 299.838 300.291C308.065 292.181 316.257 284.113 324.055 276.435C317.218 274.632 309.332 272.715 302.275 271.069C298.746 270.247 295.441 269.495 292.599 268.865ZM292.873 258.685C296.139 259.4 300.179 260.312 304.546 261.331C313.63 263.449 324.241 266.051 332.305 268.312L337.246 263.448L337.249 263.445C341.884 258.882 346.27 254.564 350.313 250.583L338.174 212L292.873 258.685Z" fill="url(#paint1_linear_3466_84)"/>
<defs>
<linearGradient id="paint0_linear_3466_84" x1="500" y1="425" x2="-82" y2="130.5" gradientUnits="userSpaceOnUse">
<stop stop-color="#EBE9FF"/>
<stop offset="1" stop-color="#EDF6FF"/>
</linearGradient>
<linearGradient id="paint1_linear_3466_84" x1="407.499" y1="259" x2="72.499" y2="231" gradientUnits="userSpaceOnUse">
<stop stop-color="#B25AFA"/>
<stop offset="1" stop-color="#2ABAF9"/>
</linearGradient>
</defs>
</svg>
