<svg width="500" height="500" viewBox="0 0 500 500" fill="none" xmlns="http://www.w3.org/2000/svg">
<circle cx="250" cy="250" r="250" fill="#1B1645"/>
<path fill-rule="evenodd" clip-rule="evenodd" d="M178.758 141.804L222.745 96.4745L232.871 131.528C227.169 137.149 220.818 143.428 214.077 150.11C206.777 148.084 196.12 145.596 187.161 143.618C184.114 142.945 181.248 142.328 178.758 141.804ZM165.209 155.767L102.999 219.876C105.383 220.385 108.099 220.977 110.978 221.62C119.319 223.483 129.149 225.798 136.296 227.754C141.391 222.624 146.878 217.115 152.606 211.375C159.608 204.357 166.972 196.993 174.424 189.555L165.209 155.767ZM182.573 181.427C190.449 173.576 198.313 165.753 205.845 158.276C199.472 156.655 191.803 154.884 185.004 153.382C180.94 152.485 177.214 151.69 174.299 151.089L182.573 181.427ZM99.8254 229.425C102.417 229.973 105.495 230.642 108.798 231.38C115.085 232.784 122.123 234.424 128.161 235.956C124.389 239.766 120.934 243.266 117.88 246.374C113.445 250.886 109.84 254.586 107.325 257.214L107.075 257.476L99.8254 229.425ZM245.47 130.35C244.445 130.096 243.528 129.872 242.748 129.686L232.815 95.3043L266.958 103.658L276.495 138.375C270.423 136.776 263.312 134.914 256.999 133.284C252.558 132.137 248.499 131.101 245.47 130.35ZM229.478 192.897L273.596 147.952C267.614 146.377 260.671 144.56 254.498 142.966C250.067 141.822 246.045 140.795 243.064 140.056C241.571 139.686 240.36 139.393 239.498 139.196L239.368 139.166C233.747 144.707 227.511 150.874 220.902 157.425C222.31 164.492 224.785 174.722 227.008 183.437C227.908 186.965 228.762 190.224 229.478 192.897ZM220.318 197.332C213.496 195.178 204.848 192.728 197.398 190.707C194.561 189.938 191.884 189.227 189.529 188.613C197.286 180.881 205.032 173.175 212.461 165.798C213.882 172.154 215.682 179.492 217.319 185.909C218.444 190.321 219.501 194.33 220.318 197.332ZM216.127 206.498C209.717 204.503 201.782 202.258 194.78 200.359C190.36 199.16 186.346 198.108 183.372 197.356C182.598 197.161 181.899 196.986 181.285 196.836C173.907 204.2 166.618 211.489 159.685 218.438C153.895 224.24 148.354 229.804 143.217 234.976C144.66 241.937 146.943 251.341 149.008 259.437C150.137 263.861 151.192 267.862 151.996 270.814C152.071 271.087 152.143 271.35 152.212 271.603L196.535 226.403C196.694 226.241 196.861 226.089 197.035 225.948L216.127 206.498ZM125.012 253.383C127.939 250.405 131.236 247.064 134.83 243.433C136.185 249.39 137.82 256.035 139.319 261.909C140.458 266.375 141.527 270.429 142.348 273.442L142.369 273.52L113.704 265.015C113.968 264.737 114.251 264.441 114.551 264.127C117.018 261.548 120.586 257.887 125.012 253.383ZM145.867 284.989L103.621 272.454C101.602 271.855 100.045 270.242 99.5183 268.204L88.3003 224.795C87.7768 222.769 88.3464 220.617 89.8035 219.115L220.014 84.9292C221.496 83.4013 223.678 82.7735 225.746 83.2795L271.618 94.5036C273.733 95.021 275.401 96.6431 275.978 98.7423L288.17 143.121C288.736 145.182 288.163 147.388 286.666 148.913L210.305 226.704L247.089 235.5C249.217 236.009 250.899 237.636 251.479 239.746L261.593 276.561L334.014 201.929C335.496 200.401 337.678 199.773 339.746 200.279L385.618 211.504C387.733 212.021 389.401 213.643 389.978 215.742L402.17 260.121C402.736 262.182 402.163 264.388 400.666 265.913L267.497 401.567C265.921 403.172 263.58 403.761 261.432 403.093L217.547 389.44C215.564 388.823 214.04 387.223 213.521 385.212L202.851 343.925L160.509 330.432C158.544 329.805 157.038 328.213 156.522 326.216L145.867 284.989ZM165.651 321.575L157.09 288.448C157.734 288.576 158.475 288.726 159.301 288.897C162.297 289.515 166.342 290.385 170.798 291.38C178.099 293.01 186.412 294.96 192.996 296.687C194.474 303.486 196.498 311.768 198.32 318.909C199.459 323.375 200.528 327.429 201.349 330.443C201.633 331.486 201.89 332.414 202.111 333.194L165.651 321.575ZM211.173 328.459C211.116 328.25 211.058 328.035 210.997 327.814C210.193 324.862 209.138 320.861 208.009 316.437C206.126 309.056 204.062 300.588 202.619 293.875L216.402 279.67C220.672 281.026 229.144 283.764 237.746 286.544L237.755 286.547C241.334 287.703 244.935 288.867 248.265 289.941L211.173 328.459ZM241.701 277.312L241.65 277.296L241.641 277.293C235.328 275.253 228.961 273.195 224.175 271.659L244.205 251.016L252.376 280.76C249.087 279.699 245.46 278.527 241.809 277.347L241.749 277.327L241.71 277.315L241.701 277.312ZM237.561 243.503L216.831 264.868L208.324 236.512L237.561 243.503ZM208.856 273.087L198.537 238.692L159.278 278.687C159.895 278.811 160.58 278.95 161.323 279.103C164.381 279.735 168.48 280.616 172.978 281.62C180.234 283.241 188.618 285.204 195.381 286.974L208.856 273.087ZM329.343 285.263C321.972 292.521 314.278 300.099 306.557 307.71C308.355 308.156 310.292 308.642 312.309 309.157C320.184 311.164 329.392 313.619 336.369 315.719C334.752 308.767 332.775 300.24 331.065 292.794C330.447 290.103 329.863 287.55 329.343 285.263ZM268.867 330.86C275.958 323.849 283.405 316.498 290.93 309.075C290.671 308.241 290.362 307.229 290.015 306.078C289.078 302.97 287.84 298.785 286.497 294.189C284.378 286.936 281.986 278.627 280.084 271.865L216.059 337.845L216.323 337.898C216.643 337.963 216.977 338.032 217.323 338.103C220.381 338.735 224.48 339.616 228.978 340.62C236.875 342.384 246.107 344.553 253.133 346.439C258.079 341.533 263.367 336.298 268.867 330.86ZM324.056 276.435C315.985 284.382 307.492 292.747 298.975 301.143C298.148 298.376 297.157 295.014 296.096 291.384C293.876 283.786 291.362 275.047 289.433 268.17C292.839 268.907 297.339 269.918 302.276 271.069C309.333 272.715 317.219 274.632 324.056 276.435ZM298.421 316.022L298.184 315.966C290.583 323.463 283.059 330.89 275.898 337.971C270.605 343.204 265.511 348.247 260.731 352.987L260.779 353.206L260.91 353.792L261.029 354.324C261.736 357.488 262.718 361.796 263.811 366.556C265.274 372.924 266.933 380.088 268.394 386.378L329.506 324.126C323.418 322.38 316.238 320.478 309.84 318.847C305.415 317.719 301.398 316.73 298.421 316.022ZM252.353 361.306C252.87 363.582 253.451 366.119 254.065 368.794C255.798 376.34 257.805 384.996 259.434 391.999L230.668 383.049C233.126 380.537 236.416 377.219 240.37 373.258C243.887 369.736 247.921 365.712 252.353 361.306ZM221.91 377.709L214.145 347.66C214.509 347.734 214.894 347.813 215.301 347.897C218.297 348.515 222.342 349.385 226.798 350.38C232.646 351.686 239.143 353.196 244.881 354.633C240.607 358.884 236.707 362.773 233.293 366.193C228.744 370.75 225.042 374.488 222.46 377.142C222.271 377.336 222.088 377.525 221.91 377.709ZM292.874 258.685L338.175 212L350.314 250.583C346.271 254.564 341.885 258.882 337.25 263.445L337.247 263.448L332.306 268.312C324.242 266.051 313.63 263.449 304.547 261.331C300.179 260.312 296.14 259.4 292.874 258.685ZM348.916 212.818L380.958 220.658L390.379 254.95C384.48 253.472 377.859 251.934 371.978 250.62C367.48 249.616 363.381 248.735 360.323 248.103L359.995 248.036L348.916 212.818ZM357.339 257.7C357.645 257.762 357.966 257.828 358.301 257.897C361.297 258.515 365.342 259.385 369.798 260.38C375.653 261.688 382.16 263.2 387.903 264.639L344.937 308.408C343.593 302.62 342.123 296.268 340.811 290.556C339.718 285.796 338.736 281.488 338.029 278.324C337.924 277.856 337.826 277.415 337.734 277.001L344.249 270.588L344.266 270.571L344.314 270.524C348.934 265.975 353.307 261.67 357.339 257.7Z" fill="url(#paint0_linear_2369_102972)"/>
<defs>
<linearGradient id="paint0_linear_2369_102972" x1="407.5" y1="259" x2="72.5" y2="231" gradientUnits="userSpaceOnUse">
<stop stop-color="#B25AFA"/>
<stop offset="1" stop-color="#2ABAF9"/>
</linearGradient>
</defs>
</svg>
