<svg width="500" height="500" viewBox="0 0 500 500" fill="none" xmlns="http://www.w3.org/2000/svg">
<g clip-path="url(#clip0_3462_3)">
<path d="M249.995 0H250.005C388.073 0 500 111.927 500 249.996V250.005C500 388.073 388.073 500 250.005 500H249.995C111.927 500 0 388.073 0 250.005V249.996C0 111.927 111.927 0 249.995 0Z" fill="#8D67B4"/>
<path d="M250.443 119L248.662 124.974V298.227L250.443 299.956L330.833 252.425L250.443 119Z" fill="#B7B7B7"/>
<path d="M250.442 119L170 252.425L250.442 299.956V215.897V119Z" fill="white"/>
<path d="M250.443 315.205L249.448 316.411V378.145L250.443 381.027L330.886 267.674L250.443 315.205Z" fill="#949091"/>
<path d="M250.442 381.027V315.205L170 267.674L250.442 381.027Z" fill="white"/>
<path d="M250.448 299.957L330.839 252.425L250.448 215.897V299.957Z" fill="#949091"/>
<path d="M170 252.425L250.442 299.957V215.897L170 252.425Z" fill="#B1B1B1"/>
<path d="M250.448 299.957L330.839 252.425L250.448 215.897V299.957Z" fill="#949091"/>
<path d="M170 252.425L250.442 299.957V215.897L170 252.425Z" fill="#B1B1B1"/>
<path d="M159.455 70L70 159.455C75.3838 164.424 90.1273 178.091 106.03 193C122 153 150.5 121.5 193 104.788L159.455 70Z" fill="white"/>
<path d="M159.455 423L70 333.545C75.3838 328.576 90.1273 314.909 106.03 300C122 340 150.5 371.5 193 388.212L159.455 423Z" fill="white"/>
<path d="M345.545 70L435 159.455C429.616 164.424 414.873 178.091 398.97 193C383 153 354.5 121.5 312 104.788L345.545 70Z" fill="white"/>
<path d="M345.545 423L435 333.545C429.616 328.576 414.873 314.909 398.97 300C383 340 354.5 371.5 312 388.212L345.545 423Z" fill="white"/>
</g>
<defs>
<clipPath id="clip0_3462_3">
<rect width="500" height="500" fill="white"/>
</clipPath>
</defs>
</svg>
