<svg width="40" height="40" viewBox="0 0 40 40" fill="none" xmlns="http://www.w3.org/2000/svg">
<path d="M20 40C31.0457 40 40 31.0457 40 20C40 8.95431 31.0457 0 20 0C8.95431 0 0 8.95431 0 20C0 31.0457 8.95431 40 20 40Z" fill="url(#paint0_radial_7598_63653)"/>
<path d="M10.6069 14.4355L22.3994 9.18707C23.4754 8.70395 24.7491 9.18707 25.2322 10.2851C25.7153 11.3611 25.2322 12.6348 24.1342 13.1179L12.3637 18.3663C11.2877 18.8494 10.014 18.3663 9.53088 17.2683C9.0258 16.1923 9.53088 14.9186 10.6069 14.4355Z" fill="#37BEC1"/>
<path d="M11.2651 21.2209L19.1267 17.7293C20.2028 17.2462 21.4764 17.7293 21.9596 18.8273C22.4427 19.9033 21.9596 21.177 20.8616 21.6601L13.0219 25.1517C11.9459 25.6349 10.6722 25.1517 10.1891 24.0537C9.68401 22.9777 10.1891 21.704 11.2651 21.2209Z" fill="#FBB144"/>
<path d="M15.8544 26.2277L27.6469 20.9793C28.7229 20.4962 29.9966 20.9793 30.4797 22.0773C30.9628 23.1533 30.4797 24.427 29.3817 24.9101L17.5893 30.1585C16.5132 30.6416 15.2396 30.1585 14.7564 29.0605C14.2953 27.9845 14.7784 26.7108 15.8544 26.2277Z" fill="#E4615E"/>
<defs>
<radialGradient id="paint0_radial_7598_63653" cx="0" cy="0" r="1" gradientUnits="userSpaceOnUse" gradientTransform="translate(13.0667 9.56667) rotate(54.1675) scale(33.1388)">
<stop stop-color="#2A5765"/>
<stop offset="1" stop-color="#082129"/>
</radialGradient>
</defs>
</svg>
