<svg width="500" height="500" viewBox="0 0 500 500" fill="none" xmlns="http://www.w3.org/2000/svg">
<path fill-rule="evenodd" clip-rule="evenodd" d="M250 0C388.072 0 500 111.929 500 250C500 388.072 388.072 500 250 500C111.929 500 0 388.072 0 250C0 111.929 111.929 0 250 0Z" fill="#2775CA"/>
<path fill-rule="evenodd" clip-rule="evenodd" d="M307.124 73.9646C301.486 72.1636 296.877 75.5097 296.877 81.4285V95.9844C296.877 99.9528 299.867 104.47 303.593 105.835C363.432 127.752 406.251 185.268 406.251 252.605C406.251 319.942 363.432 377.455 303.593 399.374C299.507 400.87 296.877 404.873 296.877 409.225V423.78C296.877 429.699 301.486 433.045 307.124 431.245C382.743 407.083 437.5 336.239 437.5 252.605C437.5 168.971 382.743 98.1255 307.124 73.9646Z" fill="white"/>
<path fill-rule="evenodd" clip-rule="evenodd" d="M203.127 81.4285C203.127 75.5097 198.517 72.1636 192.879 73.9646C117.259 98.1255 62.501 168.97 62.501 252.605C62.501 336.241 117.259 407.083 192.879 431.245C198.517 433.045 203.127 429.699 203.127 423.78V409.225C203.127 405.256 200.135 400.738 196.409 399.374C136.572 377.455 93.751 319.94 93.751 252.605C93.751 185.269 136.572 127.752 196.409 105.835C200.135 104.47 203.127 99.9528 203.127 95.9841V81.4285Z" fill="white"/>
<path d="M313.932 301.394L299.631 295.005C296.482 293.598 292.77 294.913 291.244 298.008C284.495 311.706 273.277 320.437 258.457 320.437C245.041 320.437 234.279 313.866 226.032 300.589C222.808 295.452 220.246 289.718 218.296 283.436H256.699C259.132 283.436 261.36 282.065 262.458 279.891L271.62 267.524C273.787 263.233 270.67 258.165 265.864 258.165H213.974C213.824 255.504 213.733 252.791 213.733 249.995C213.705 247.225 213.783 244.51 213.927 241.835H256.699C259.132 241.835 261.36 240.466 262.458 238.292L271.62 225.925C273.789 221.634 270.67 216.565 265.864 216.565H218.249C225.213 193.859 239.752 178.984 258.457 179.276C272.712 179.276 283.777 187.08 290.875 199.86C292.465 202.725 296.046 203.823 299.043 202.5L313.418 196.154C316.858 194.635 318.32 190.476 316.5 187.187C303.229 163.221 283.882 151.184 258.457 151.184C235.257 151.184 216.668 160.408 202.552 178.717C194.301 189.5 188.558 202.153 185.15 216.565H164.268C161.834 216.565 159.607 217.935 158.51 220.108L149.346 232.476C147.179 236.767 150.297 241.835 155.104 241.835H181.7C181.571 244.521 181.448 247.211 181.448 249.995C181.414 252.755 181.479 255.472 181.596 258.165H164.268C161.834 258.165 159.607 259.536 158.51 261.707L149.346 274.074C147.179 278.366 150.297 283.436 155.104 283.436H185.089C194.572 322.631 221.873 349.36 258.457 348.807C284.432 348.807 304.01 335.895 317.079 310.183C318.743 306.909 317.285 302.892 313.932 301.394Z" fill="white"/>
</svg>
