<svg width="130" height="130" viewBox="0 0 130 130" fill="none" xmlns="http://www.w3.org/2000/svg">
<g clip-path="url(#clip0_14945_39090)">
<rect width="130" height="130" rx="65" fill="white"/>
<g filter="url(#filter0_biiiiiiii_14945_39090)">
<rect width="130" height="130" rx="65" fill="white" fill-opacity="0.3"/>
<path d="M103 63.355C102.198 44.3482 87.5608 28.9376 68.9446 27.0189C66.7843 26.7951 65.0186 28.5857 65.0186 30.7674V41.3005C65.0186 43.4822 66.7957 45.2097 68.9256 45.6403C76.2355 47.1212 82.0774 52.6727 84.004 59.8391C84.7836 59.5713 85.6709 59.4082 86.6963 59.4041C90.2347 59.4209 92.1436 61.3846 93.6313 62.9725C95.0221 64.4376 96.1323 65.5884 98.4592 65.6226C100.626 65.6258 101.735 64.6433 103 63.355Z" fill="#366FFF"/>
<path d="M48.203 30.7448C50.6011 29.5558 53.2189 31.4492 53.2189 34.1351V59.5081C49.6778 59.5328 47.789 61.4583 46.2962 63.0241L46.265 63.0562C44.8712 64.4882 43.7642 65.6255 41.4325 65.6223C39.1055 65.5881 37.9956 64.4373 36.6044 62.9722C35.117 61.3843 33.208 59.4206 29.6695 59.4038C28.8084 59.4072 28.0446 59.5228 27.3604 59.7184C29.1165 46.9702 37.1386 36.2332 48.203 30.7448Z" fill="#366FFF"/>
<path d="M68.9441 102.981C66.7838 103.204 65.0181 101.415 65.0181 99.2332V88.7002C65.0181 86.5196 66.7958 84.7906 68.9257 84.3606C77.9134 82.5391 84.6818 74.5642 84.6818 65.0002C84.6818 64.9135 84.6818 64.8267 84.6805 64.74C85.2512 64.5087 85.9048 64.3767 86.7015 64.3779C89.0284 64.4122 90.138 65.5627 91.5294 67.0282C93.0165 68.6159 94.926 70.5793 98.4644 70.5964C100.284 70.5894 101.669 70.0808 102.788 69.3759C100.774 87.1105 86.661 101.156 68.9441 102.981Z" fill="#004FA5"/>
<path d="M27 65.0661C27.0251 80.0634 35.6589 93.0328 48.2033 99.2553C50.6015 100.444 53.2192 98.5511 53.2192 95.8651V64.4821C50.9115 64.49 49.8085 65.6234 48.4219 67.0478L48.3906 67.0801C46.8936 68.6501 44.9984 70.5824 41.4378 70.5964C37.8995 70.5793 35.9904 68.6159 34.503 67.0282C33.1118 65.5627 32.0019 64.4122 29.6749 64.3779C28.5574 64.3763 27.7213 64.6366 27 65.0661Z" fill="#004FA5"/>
</g>
</g>
<defs>
<filter id="filter0_biiiiiiii_14945_39090" x="-39" y="-32.5" width="201.5" height="195" filterUnits="userSpaceOnUse" color-interpolation-filters="sRGB">
<feFlood flood-opacity="0" result="BackgroundImageFix"/>
<feGaussianBlur in="BackgroundImageFix" stdDeviation="16.25"/>
<feComposite in2="SourceAlpha" operator="in" result="effect1_backgroundBlur_14945_39090"/>
<feBlend mode="normal" in="SourceGraphic" in2="effect1_backgroundBlur_14945_39090" result="shape"/>
<feColorMatrix in="SourceAlpha" type="matrix" values="0 0 0 0 0 0 0 0 0 0 0 0 0 0 0 0 0 0 127 0" result="hardAlpha"/>
<feOffset dx="-52" dy="-19.5"/>
<feGaussianBlur stdDeviation="19.5"/>
<feComposite in2="hardAlpha" operator="arithmetic" k2="-1" k3="1"/>
<feColorMatrix type="matrix" values="0 0 0 0 0.894118 0 0 0 0 0.894118 0 0 0 0 0.894118 0 0 0 0.6 0"/>
<feBlend mode="multiply" in2="shape" result="effect2_innerShadow_14945_39090"/>
<feColorMatrix in="SourceAlpha" type="matrix" values="0 0 0 0 0 0 0 0 0 0 0 0 0 0 0 0 0 0 127 0" result="hardAlpha"/>
<feOffset dx="-52" dy="-19.5"/>
<feGaussianBlur stdDeviation="19.5"/>
<feComposite in2="hardAlpha" operator="arithmetic" k2="-1" k3="1"/>
<feColorMatrix type="matrix" values="0 0 0 0 0.545098 0 0 0 0 0.545098 0 0 0 0 0.545098 0 0 0 0.4 0"/>
<feBlend mode="color-burn" in2="effect2_innerShadow_14945_39090" result="effect3_innerShadow_14945_39090"/>
<feColorMatrix in="SourceAlpha" type="matrix" values="0 0 0 0 0 0 0 0 0 0 0 0 0 0 0 0 0 0 127 0" result="hardAlpha"/>
<feOffset dx="-13" dy="-13"/>
<feGaussianBlur stdDeviation="27.625"/>
<feComposite in2="hardAlpha" operator="arithmetic" k2="-1" k3="1"/>
<feColorMatrix type="matrix" values="0 0 0 0 0.894118 0 0 0 0 0.894118 0 0 0 0 0.894118 0 0 0 0.5 0"/>
<feBlend mode="multiply" in2="effect3_innerShadow_14945_39090" result="effect4_innerShadow_14945_39090"/>
<feColorMatrix in="SourceAlpha" type="matrix" values="0 0 0 0 0 0 0 0 0 0 0 0 0 0 0 0 0 0 127 0" result="hardAlpha"/>
<feOffset dx="-13" dy="-13"/>
<feGaussianBlur stdDeviation="27.625"/>
<feComposite in2="hardAlpha" operator="arithmetic" k2="-1" k3="1"/>
<feColorMatrix type="matrix" values="0 0 0 0 0.545098 0 0 0 0 0.545098 0 0 0 0 0.545098 0 0 0 0.3 0"/>
<feBlend mode="color-burn" in2="effect4_innerShadow_14945_39090" result="effect5_innerShadow_14945_39090"/>
<feColorMatrix in="SourceAlpha" type="matrix" values="0 0 0 0 0 0 0 0 0 0 0 0 0 0 0 0 0 0 127 0" result="hardAlpha"/>
<feMorphology radius="1.3" operator="erode" in="SourceAlpha" result="effect6_innerShadow_14945_39090"/>
<feOffset dx="-6.5" dy="-6.5"/>
<feGaussianBlur stdDeviation="6.5"/>
<feComposite in2="hardAlpha" operator="arithmetic" k2="-1" k3="1"/>
<feColorMatrix type="matrix" values="0 0 0 0 1 0 0 0 0 1 0 0 0 0 1 0 0 0 0.5 0"/>
<feBlend mode="overlay" in2="effect5_innerShadow_14945_39090" result="effect6_innerShadow_14945_39090"/>
<feColorMatrix in="SourceAlpha" type="matrix" values="0 0 0 0 0 0 0 0 0 0 0 0 0 0 0 0 0 0 127 0" result="hardAlpha"/>
<feOffset dx="13" dy="13"/>
<feGaussianBlur stdDeviation="16.25"/>
<feComposite in2="hardAlpha" operator="arithmetic" k2="-1" k3="1"/>
<feColorMatrix type="matrix" values="0 0 0 0 1 0 0 0 0 1 0 0 0 0 1 0 0 0 0.4 0"/>
<feBlend mode="overlay" in2="effect6_innerShadow_14945_39090" result="effect7_innerShadow_14945_39090"/>
<feColorMatrix in="SourceAlpha" type="matrix" values="0 0 0 0 0 0 0 0 0 0 0 0 0 0 0 0 0 0 127 0" result="hardAlpha"/>
<feOffset dx="-0.65" dy="-0.65"/>
<feGaussianBlur stdDeviation="3.25"/>
<feComposite in2="hardAlpha" operator="arithmetic" k2="-1" k3="1"/>
<feColorMatrix type="matrix" values="0 0 0 0 0.894118 0 0 0 0 0.894118 0 0 0 0 0.894118 0 0 0 0.3 0"/>
<feBlend mode="multiply" in2="effect7_innerShadow_14945_39090" result="effect8_innerShadow_14945_39090"/>
<feColorMatrix in="SourceAlpha" type="matrix" values="0 0 0 0 0 0 0 0 0 0 0 0 0 0 0 0 0 0 127 0" result="hardAlpha"/>
<feOffset dx="-0.65" dy="-0.65"/>
<feGaussianBlur stdDeviation="3.25"/>
<feComposite in2="hardAlpha" operator="arithmetic" k2="-1" k3="1"/>
<feColorMatrix type="matrix" values="0 0 0 0 0.545098 0 0 0 0 0.545098 0 0 0 0 0.545098 0 0 0 0.3 0"/>
<feBlend mode="color-burn" in2="effect8_innerShadow_14945_39090" result="effect9_innerShadow_14945_39090"/>
</filter>
<clipPath id="clip0_14945_39090">
<rect width="130" height="130" rx="65" fill="white"/>
</clipPath>
</defs>
</svg>
