<svg width="600" height="600" viewBox="0 0 600 600" fill="none" xmlns="http://www.w3.org/2000/svg">
<g clip-path="url(#clip0_11504_104337)">
<path d="M300 600C259.479 600 220.2 592.042 183.256 576.418C147.554 561.304 115.43 539.693 87.9046 512.095C60.3797 484.497 38.6955 452.446 23.5824 416.744C7.95814 379.8 0 340.521 0 300C0 259.479 7.95814 220.2 23.5824 183.256C38.6955 147.554 60.3066 115.43 87.9046 87.9046C115.503 60.3797 147.554 38.6955 183.256 23.5824C220.273 7.95814 259.552 0 300 0C340.521 0 379.8 7.95814 416.744 23.5824C452.446 38.6955 484.57 60.3066 512.095 87.9046C539.62 115.503 561.304 147.554 576.418 183.256C592.042 220.273 600 259.552 600 300C600 340.521 592.042 379.8 576.418 416.744C561.304 452.446 539.693 484.57 512.095 512.095C484.497 539.62 452.446 561.304 416.744 576.418C379.8 592.042 340.521 600 300 600V600Z" fill="#FEF9C2"/>
<path d="M300 600C465.685 600 600 465.685 600 300C600 134.315 465.685 0 300 0C134.315 0 0 134.315 0 300C0 465.685 134.315 600 300 600Z" fill="url(#paint0_radial_11504_104337)"/>
<g clip-path="url(#clip1_11504_104337)">
<path d="M496.436 409.712L297.023 119L97 409.712H375.678L297.023 298.762L258.006 356.411H216.54L297.049 240.502L413.437 409.726L496.436 409.712Z" fill="white"/>
</g>
</g>
<defs>
<radialGradient id="paint0_radial_11504_104337" cx="0" cy="0" r="1" gradientUnits="userSpaceOnUse" gradientTransform="translate(196 143.5) rotate(54.1675) scale(497.082 666.806)">
<stop stop-color="#05CAD0"/>
<stop offset="1" stop-color="#2E5EE7"/>
</radialGradient>
<clipPath id="clip0_11504_104337">
<rect width="600" height="600" fill="white"/>
</clipPath>
<clipPath id="clip1_11504_104337">
<rect width="406" height="298" fill="white" transform="translate(97 119)"/>
</clipPath>
</defs>
</svg>
