<svg width="48" height="48" viewBox="0 0 48 48" fill="none" xmlns="http://www.w3.org/2000/svg">
<path d="M48 24C48 10.7452 37.2548 0 24 0C10.7452 0 0 10.7452 0 24C0 37.2548 10.7452 48 24 48C37.2548 48 48 37.2548 48 24Z" fill="#4AA3C0"/>
<path fill-rule="evenodd" clip-rule="evenodd" d="M29.8969 9.12706C32.0433 9.97852 33.9798 11.2846 35.5733 12.9556C35.9707 13.3708 36.3446 13.8105 36.6933 14.2673L24 26.966L11.3067 14.262C12.7115 12.4296 14.4965 10.9232 16.5391 9.84618C18.5817 8.7692 20.8333 8.14727 23.1392 8.02313C25.445 7.89899 27.7504 8.2756 29.8969 9.12706ZM33.84 14.166C31.2213 11.5346 27.7387 10.0922 24 10.0922C22.1713 10.083 20.3591 10.4386 18.6695 11.1381C16.9799 11.8376 15.4469 12.867 14.16 14.166L24 24.004L33.84 14.166Z" fill="white"/>
<path d="M37.6907 15.7043L35.1093 18.2851C36.0445 19.4118 36.5254 20.847 36.4576 22.3095C36.3899 23.7721 35.7785 25.1567 34.7432 26.1921C33.7078 27.2276 32.3231 27.8393 30.8603 27.9075C29.3975 27.9757 27.9619 27.4954 26.8347 26.5608L24 29.3922L21.1733 26.5661C20.0464 27.5011 18.611 27.9818 17.1481 27.9141C15.6853 27.8464 14.3004 27.2351 13.2647 26.2C12.229 25.1649 11.6172 23.7805 11.549 22.318C11.4808 20.8554 11.9611 19.4201 12.896 18.2931L11.5733 16.9681L10.32 15.707C9.03944 17.8177 8.26485 20.196 8.05687 22.6559C7.84888 25.1157 8.21315 27.5903 9.12115 29.886C10.0292 32.1816 11.4563 34.236 13.2907 35.8883C15.1252 37.5406 17.3173 38.7461 19.6954 39.4102C22.0735 40.0743 24.5731 40.1792 26.9985 39.7166C29.4239 39.2539 31.7093 38.2364 33.6757 36.7435C35.6422 35.2506 37.2364 33.323 38.3336 31.1115C39.4308 28.9 40.0011 26.4646 40 23.996C40.0044 21.0728 39.2055 18.2046 37.6907 15.7043Z" fill="white"/>
<path d="M17.4054 26.2168C18.3254 26.2168 19.2214 25.9102 19.9467 25.3503L14.1147 19.5169C12.7094 21.3298 13.048 23.948 14.8614 25.3557C15.5974 25.9076 16.488 26.2142 17.4054 26.2142V26.2168Z" fill="white"/>
<path d="M34.752 22.0524C34.752 21.1326 34.4453 20.2367 33.8853 19.5116L28.0533 25.3423C28.6684 25.8173 29.4042 26.1104 30.1774 26.1884C30.9506 26.2663 31.7302 26.1261 32.4277 25.7835C33.1252 25.441 33.7127 24.9098 34.1235 24.2503C34.5344 23.5908 34.7521 22.8293 34.752 22.0524Z" fill="white"/>
</svg>
