<svg width="100%" height="100%" viewBox="0 0 251 251" version="1.1" xmlns="http://www.w3.org/2000/svg" xml:space="preserve" style="fill-rule:evenodd;clip-rule:evenodd;stroke-linecap:round;">
    <g transform="matrix(1,0,0,1,-1154,-654)">
        <g id="crown-circle" transform="matrix(1,0,0,1,-0.170437,-0.308505)">
            <rect x="1154.17" y="654.309" width="250.5" height="250.5" style="fill:none;"/>
            <clipPath id="_clip1">
                <rect x="1154.17" y="654.309" width="250.5" height="250.5"/>
            </clipPath>
            <g clip-path="url(#_clip1)">
                <g transform="matrix(0.985194,0,0,0.985194,883.283,-1361.96)">
                    <path d="M529.397,2174.01C529.397,2244.18 472.431,2301.14 402.265,2301.14C332.098,2301.14 275.132,2244.18 275.132,2174.01C275.132,2103.85 332.098,2046.88 402.265,2046.88C472.431,2046.88 529.397,2103.85 529.397,2174.01Z"/>
                </g>
                <g transform="matrix(0.985194,0,0,0.985194,883.283,-1361.96)">
                    <path d="M449.939,2231.22L354.59,2231.22M429.017,2155.44L404.878,2120.57C403.614,2118.75 400.915,2118.75 399.651,2120.57L375.511,2155.44C374.496,2156.91 372.472,2157.25 371.029,2156.2L345.446,2137.6C343.084,2135.88 339.85,2137.99 340.471,2140.84L354.046,2203.29C354.363,2204.75 355.656,2205.79 357.151,2205.79L447.377,2205.79C448.873,2205.79 450.166,2204.75 450.483,2203.29L464.058,2140.84C464.679,2137.99 461.445,2135.88 459.083,2137.6L433.5,2156.2C432.057,2157.25 430.033,2156.91 429.017,2155.44Z" style="fill:none;fill-rule:nonzero;stroke:rgb(255,193,0);stroke-width:12.71px;"/>
                </g>
            </g>
        </g>
    </g>
</svg>
