<svg width="600" height="600" viewBox="0 0 600 600" fill="none" xmlns="http://www.w3.org/2000/svg">
<g clip-path="url(#clip0_11073_103870)">
<path d="M300 600C465.685 600 600 465.685 600 300C600 134.315 465.685 0 300 0C134.315 0 0 134.315 0 300C0 465.685 134.315 600 300 600Z" fill="url(#paint0_radial_11073_103870)"/>
<path d="M423.789 76L524 176.211L493.676 206.535C472.567 162.873 437.128 127.433 393.466 106.324L423.789 76Z" fill="white"/>
<path d="M393.466 493.676C437.128 472.567 472.567 437.127 493.676 393.465L524 423.789L423.79 524L393.466 493.676Z" fill="white"/>
<path d="M206.535 493.676C162.873 472.567 127.433 437.128 106.324 393.466L76 423.789L176.211 524L206.535 493.676Z" fill="white"/>
<path d="M206.535 106.324C162.873 127.433 127.433 162.873 106.324 206.535L76 176.211L176.211 76L206.535 106.324Z" fill="white"/>
<path d="M366.528 247.474C369.806 247.474 373.027 248.312 375.875 249.905L439.653 286.025C445.701 289.26 449 295.19 449 301.659V373.359C449 379.829 445.151 385.759 439.653 388.993L376.424 424.574C370.376 427.809 363.229 427.809 357.731 424.574L294.502 388.993C288.454 385.759 285.155 379.829 285.155 373.359V348.561L314.295 331.849V356.647C314.364 359.818 315.259 362.92 316.895 365.656C318.531 368.392 320.854 370.673 323.642 372.281L357.181 391.15C363.229 394.384 370.376 394.384 375.875 391.15L409.413 371.742C415.461 368.507 418.76 362.577 418.76 356.108V317.832C418.76 311.363 414.911 305.433 409.413 302.198L375.875 283.329C369.827 280.095 362.679 280.095 357.181 283.329L314.295 307.589L285.155 324.301L242.269 348.561C236.221 351.795 229.074 351.795 223.576 348.561L160.347 312.98C154.299 309.745 151 303.815 151 297.346V225.646C151 219.176 154.299 213.246 160.347 210.012L223.576 174.431C226.423 172.838 229.644 172 232.923 172C236.201 172 239.422 172.838 242.269 174.431L304.399 210.012C310.447 213.246 313.745 219.176 313.745 225.646V250.444L284.605 267.156V242.358C284.605 235.889 280.756 229.958 275.258 226.724L241.72 207.855C235.672 204.621 228.524 204.621 223.026 207.855L189.487 226.724C183.439 229.958 180.14 235.889 180.14 242.358V280.634C180.209 283.805 181.104 286.906 182.74 289.643C184.376 292.379 186.699 294.66 189.487 296.268L223.576 315.676C229.624 318.91 236.771 318.91 242.269 315.676L285.155 290.877L314.295 274.704L357.181 249.905C360.028 248.312 363.25 247.474 366.528 247.474Z" fill="white"/>
</g>
<defs>
<radialGradient id="paint0_radial_11073_103870" cx="0" cy="0" r="1" gradientUnits="userSpaceOnUse" gradientTransform="translate(196 143.5) rotate(54.1675) scale(497.082)">
<stop stop-color="#626275"/>
<stop offset="1" stop-color="#161823"/>
</radialGradient>
<clipPath id="clip0_11073_103870">
<rect width="600" height="600" fill="white"/>
</clipPath>
</defs>
</svg>
