<svg width="500" height="500" viewBox="0 0 500 500" fill="none" xmlns="http://www.w3.org/2000/svg">
<g clip-path="url(#clip0_3462_21)">
<path d="M249.995 0H250.005C388.073 0 500 111.927 500 249.996V250.005C500 388.073 388.073 500 250.005 500H249.995C111.927 500 0 388.073 0 250.005V249.996C0 111.927 111.927 0 249.995 0Z" fill="#FFDCE0"/>
<path d="M250.443 68L248.662 73.9738V247.227L250.443 248.956L330.833 201.425L250.443 68Z" fill="#800010"/>
<path d="M250.442 68L170 201.425L250.442 248.956V164.897V68Z" fill="#FF596E"/>
<path d="M250.002 272.931L249 274.324V355.669L250.002 359L331 228L250.002 272.931Z" fill="#800010"/>
<path d="M250 359V272.931L170 228L250 359Z" fill="#FF596E"/>
<path d="M250.448 248.957L330.839 201.425L250.448 164.897V248.957Z" fill="#FF596E"/>
<path d="M170 201.425L250.442 248.957V164.897L170 201.425Z" fill="#800010"/>
<path d="M348.5 380L303 400L405 228V283L348.5 380Z" fill="#FF596E"/>
<path d="M151.5 380L197 400L95 228V283L151.5 380Z" fill="#FF596E"/>
<path d="M303 400H250L347.5 243L405 228L303 400Z" fill="#800010"/>
<path d="M197 400H250L152.5 243L94.9999 228L197 400Z" fill="#800010"/>
<path d="M303 400H250L347.5 243L366 294L303 400Z" fill="#FF596E"/>
<path d="M197 400H250L152.5 243L134 294L197 400Z" fill="#FF596E"/>
<path d="M348.5 380L303 400L366 294L405 283L348.5 380Z" fill="#800010"/>
<path d="M151.5 380L197 400L134 294L95 283L151.5 380Z" fill="#800010"/>
</g>
<defs>
<clipPath id="clip0_3462_21">
<rect width="500" height="500" fill="white"/>
</clipPath>
</defs>
</svg>
