<svg width="62" height="62" viewBox="0 0 62 62" fill="none" xmlns="http://www.w3.org/2000/svg">
<rect width="62" height="62" rx="31" fill="#2470FF"/>
<g clip-path="url(#clip0_5742_58251)">
<path d="M17.9727 35.6915V44.9125C17.9727 45.4801 18.4486 45.7158 18.5967 45.7693C18.7447 45.8336 19.2418 45.9728 19.686 45.555L26.5967 38.8514C27.1853 38.2807 27.7532 37.6806 28.18 36.9785C28.381 36.6485 28.4643 36.4625 28.4643 36.4625C28.8873 35.595 28.8873 34.7597 28.4746 33.9243C27.8616 32.682 26.2961 31.4182 23.9376 30.2188L19.9081 32.4892C18.713 33.1746 17.9727 34.3848 17.9727 35.6915Z" fill="#CACFD8"/>
<path d="M14 15.1825V24.8534C14 26.0636 14.8038 27.1346 15.946 27.4772C19.8381 28.6124 26.6174 31.0543 28.2567 34.6421C28.468 35.1133 28.595 35.5739 28.6377 36.0558C29.727 34.0531 30.2239 31.7505 29.9912 29.4157C29.6739 26.1064 27.9393 23.097 25.2319 21.1799L15.5759 14.3578C15.4066 14.2293 15.2057 14.165 15.0047 14.165C14.8355 14.165 14.6874 14.1972 14.5288 14.2828C14.2115 14.4649 14 14.7969 14 15.1825Z" fill="white"/>
<path d="M44.0679 35.5274V44.7484C44.0679 45.316 43.5922 45.5518 43.444 45.6052C43.2961 45.6695 42.7987 45.8088 42.3547 45.391L35.2831 38.5315C34.8018 38.0644 34.342 37.5705 33.9795 37.0045C33.6923 36.5566 33.5764 36.2984 33.5764 36.2984C33.1534 35.4309 33.1534 34.5956 33.5657 33.7602C34.1792 32.5179 35.7446 31.2542 38.1028 30.0547L42.1325 32.3251C43.3382 33.0106 44.0679 34.2207 44.0679 35.5274Z" fill="#CACFD8"/>
<path d="M48.0476 15.0174V24.6883C48.0476 25.8985 47.2435 26.9695 46.1012 27.3122C42.2094 28.4474 35.43 30.8893 33.7907 34.4771C33.579 34.9483 33.452 35.4089 33.4099 35.8908C32.3206 33.8881 31.8236 31.5855 32.0562 29.2507C32.3732 25.9414 34.1078 22.932 36.8155 21.0149L46.4717 14.1928C46.6408 14.0643 46.8417 14 47.0426 14C47.2118 14 47.36 14.0321 47.5183 14.1178C47.8357 14.2999 48.0476 14.6319 48.0476 15.0174Z" fill="white"/>
</g>
<defs>
<clipPath id="clip0_5742_58251">
<rect width="34" height="33" fill="white" transform="translate(14 14)"/>
</clipPath>
</defs>
</svg>
