<svg width="500" height="500" viewBox="0 0 500 500" fill="none" xmlns="http://www.w3.org/2000/svg">
<g clip-path="url(#clip0_3365_1326)">
<mask id="mask0_3365_1326" style="mask-type:luminance" maskUnits="userSpaceOnUse" x="0" y="0" width="500" height="500">
<path d="M500 0H0V500H500V0Z" fill="white"/>
</mask>
<g mask="url(#mask0_3365_1326)">
<path d="M276.25 304.946C276.25 296.621 274.193 290.089 270.086 285.341C265.971 280.598 258.75 276.118 248.423 271.905C238.089 267.693 228.554 263.421 219.807 259.1C211.061 254.779 203.522 249.768 197.198 244.079C190.875 238.389 186.023 231.798 182.654 224.309C179.279 216.83 177.593 207.766 177.593 197.116C177.593 179.304 183.6 164.628 195.618 153.085C207.63 141.543 223.654 134.825 243.68 132.927V99.5745H268.822V133.567C288.104 136.417 303.257 144.349 314.273 157.363C325.286 170.382 330.795 186.902 330.795 206.923H277.355C277.355 195.966 275.243 187.532 271.025 181.629C266.814 175.727 260.802 172.778 253.007 172.778C246.048 172.778 240.65 174.966 236.798 179.338C232.952 183.713 231.027 189.746 231.027 197.438C231.027 205.239 233.243 211.432 237.668 216.016C242.093 220.6 249.211 224.977 259.013 229.139C268.816 233.302 278.066 237.623 286.759 242.104C295.45 246.584 302.961 251.666 309.291 257.361C315.614 263.05 320.564 269.696 324.148 277.284C327.73 284.87 329.525 293.989 329.525 304.629C329.525 322.654 323.809 337.359 312.37 348.741C300.932 360.125 285.364 366.766 265.648 368.659V400.441H240.513V368.505C217.532 366.077 199.907 358.205 187.625 344.87C175.345 331.538 169.207 313.961 169.207 292.146H222.488C222.488 304.164 225.146 313.311 230.47 319.573C235.791 325.848 243.357 328.982 253.159 328.982C260.325 328.982 265.966 326.85 270.079 322.577C274.188 318.305 276.25 312.436 276.25 304.946Z" fill="white"/>
<path d="M246.164 492.329C382.116 492.329 492.329 382.116 492.329 246.164C492.329 110.211 382.116 0 246.164 0C110.211 0 0 110.211 0 246.164C0 382.116 110.211 492.329 246.164 492.329Z" fill="#C8F2AB"/>
<path d="M201.207 312.091C191.955 324.83 183.191 338.043 174.914 351.57C197.555 371.152 225.716 384.6 254.93 392.857C325.939 372.804 385.505 322.786 384.612 241.627C384.207 209.698 384.612 177.533 384.612 145.604C320.014 183.745 263.046 233.291 216.95 291.407C229.989 302.837 242.162 310.596 253.469 314.686C278.546 284.88 306.625 257.591 337.137 233.055C337.137 238.166 337.3 242.098 337.3 244.695C337.868 296.205 300.052 327.977 254.93 340.716C235.128 335.134 216.059 325.775 201.207 312.091Z" fill="#0C1C46"/>
<path d="M149.692 323.88C200.25 245.552 268.823 179.414 350.057 130.812C331.718 124.128 312.647 118.466 292.927 114.062C228.004 158.495 172.495 214.568 129.403 279.37C133.542 295.884 140.44 310.67 149.692 323.88Z" fill="#0C1C46"/>
<path d="M125.162 230.455C162.168 183.505 206.154 141.903 255.737 107.3C255.412 107.3 255.17 107.3 254.925 107.143C207.695 113.827 164.359 126.568 125 145.599C125 185.786 125.162 214.175 125.162 230.455Z" fill="#0C1C46"/>
</g>
</g>
<defs>
<clipPath id="clip0_3365_1326">
<rect width="500" height="500" fill="white"/>
</clipPath>
</defs>
</svg>
