<svg width="500" height="500" viewBox="0 0 500 500" fill="none" xmlns="http://www.w3.org/2000/svg">
<circle cx="250" cy="250" r="250" fill="url(#paint0_linear_2367_102912)"/>
<g clip-path="url(#clip0_2367_102912)">
<path d="M250 270L393 340L250 413V270Z" fill="url(#paint1_linear_2367_102912)"/>
<path d="M334 228L393 340L250 270L334 228Z" fill="url(#paint2_linear_2367_102912)"/>
<path d="M250 270V67L166 228L250 270Z" fill="url(#paint3_linear_2367_102912)"/>
<path d="M250 270V67L334 228L250 270Z" fill="url(#paint4_linear_2367_102912)"/>
<path d="M250 413L107 340L250 270V413Z" fill="url(#paint5_linear_2367_102912)"/>
<path d="M166 228L250 270L107 340L166 228Z" fill="url(#paint6_linear_2367_102912)"/>
</g>
<defs>
<linearGradient id="paint0_linear_2367_102912" x1="142.252" y1="307.473" x2="238.01" y2="524.71" gradientUnits="userSpaceOnUse">
<stop stop-color="#B1DAFF"/>
<stop offset="1" stop-color="#B3C8FF"/>
</linearGradient>
<linearGradient id="paint1_linear_2367_102912" x1="290.684" y1="357.937" x2="318.071" y2="420.067" gradientUnits="userSpaceOnUse">
<stop stop-color="#5577EE"/>
<stop offset="1" stop-color="#84A6FF"/>
</linearGradient>
<linearGradient id="paint2_linear_2367_102912" x1="311.846" y1="302.679" x2="423.499" y2="179.661" gradientUnits="userSpaceOnUse">
<stop stop-color="#33B6FF"/>
<stop offset="1" stop-color="#6562FD"/>
</linearGradient>
<linearGradient id="paint3_linear_2367_102912" x1="268.89" y1="168.428" x2="195.192" y2="168.428" gradientUnits="userSpaceOnUse">
<stop stop-color="#695CFB"/>
<stop offset="1" stop-color="#479AFD"/>
</linearGradient>
<linearGradient id="paint4_linear_2367_102912" x1="273.898" y1="191.834" x2="326.461" y2="241.177" gradientUnits="userSpaceOnUse">
<stop stop-color="#5577EE"/>
<stop offset="1" stop-color="#84A6FF"/>
</linearGradient>
<linearGradient id="paint5_linear_2367_102912" x1="137.962" y1="292.011" x2="284.071" y2="365.643" gradientUnits="userSpaceOnUse">
<stop stop-color="#45C7FF"/>
<stop offset="1" stop-color="#0E2450"/>
</linearGradient>
<linearGradient id="paint6_linear_2367_102912" x1="179.219" y1="297.069" x2="194.937" y2="249.834" gradientUnits="userSpaceOnUse">
<stop stop-color="#4AB0EA"/>
<stop offset="1" stop-color="#6D7F9B"/>
</linearGradient>
<clipPath id="clip0_2367_102912">
<rect width="286" height="346" fill="white" transform="translate(107 67)"/>
</clipPath>
</defs>
</svg>
