<svg width="500" height="500" viewBox="0 0 500 500" fill="none" xmlns="http://www.w3.org/2000/svg">
<g clip-path="url(#clip0_3462_51)">
<path d="M249.995 0H250.005C388.073 0 500 111.927 500 249.996V250.005C500 388.073 388.073 500 250.005 500H249.995C111.927 500 0 388.073 0 250.005V249.996C0 111.927 111.927 0 249.995 0Z" fill="#111111"/>
<path fill-rule="evenodd" clip-rule="evenodd" d="M215.025 111.044C214.089 105.519 221.867 103.286 224.005 108.466L228.173 118.566C228.303 118.881 228.402 119.2 228.472 119.521C238.467 117.111 248.536 115.897 258.507 115.803C258.496 115.473 258.515 115.138 258.565 114.798L260.155 104.015C260.972 98.4719 269.06 98.7517 269.492 104.338L270.333 115.205C270.359 115.549 270.355 115.886 270.322 116.216C280.462 117.02 290.426 118.975 300.028 121.997C300.12 121.68 300.242 121.367 300.394 121.059L305.248 111.277C307.738 106.257 315.344 109.022 314.028 114.469L311.465 125.085C311.385 125.418 311.277 125.737 311.144 126.039C320.474 129.901 329.366 134.807 337.631 140.673C337.813 140.41 338.019 140.158 338.251 139.921L345.89 132.117C349.81 128.113 356.189 133.093 353.255 137.867L347.537 147.17C347.366 147.447 347.177 147.704 346.97 147.939C355.369 155.09 362.945 163.329 369.458 172.549C369.442 171.659 369.437 170.776 369.432 169.908L369.431 169.754C369.412 165.333 373.41 161.935 377.94 161.302C380.105 161.014 382.304 161.453 384.193 162.55C386.082 163.647 387.553 165.34 388.377 167.363C390.956 173.922 391.391 181.129 389.621 187.95C389.476 188.565 389.306 189.18 389.114 189.876L389.113 189.878C389.04 190.143 388.963 190.42 388.883 190.714C395.505 194.446 400.697 200.275 403.642 207.283C406.008 212.925 403.763 218.689 398.549 220.977C395.862 222.132 393.231 221.828 390.822 220.566C392.952 229.944 394.034 239.378 394.131 248.726C394.411 248.724 394.695 248.744 394.982 248.787L405.763 250.376C411.307 251.194 411.027 259.281 405.44 259.714L394.574 260.554C394.288 260.577 394.007 260.577 393.73 260.558C392.934 270.711 390.984 280.69 387.964 290.306C388.219 290.39 388.472 290.493 388.72 290.617L398.502 295.47C403.521 297.96 400.756 305.565 395.309 304.25L384.695 301.687C384.427 301.623 384.17 301.54 383.922 301.442C380.058 310.788 375.147 319.695 369.274 327.974C369.477 328.125 369.672 328.292 369.858 328.474L377.661 336.112C381.666 340.032 376.686 346.41 371.912 343.476L362.609 337.759C362.393 337.626 362.189 337.481 361.998 337.326C355.489 344.971 348.078 351.935 339.846 358.036C339.986 358.236 340.115 358.447 340.231 358.669L345.282 368.325C347.879 373.29 341.171 377.818 337.538 373.552L330.472 365.257C330.308 365.065 330.16 364.865 330.027 364.66C323.071 368.915 315.628 372.594 307.735 375.61C306.009 376.27 304.277 376.892 302.541 377.476C302.611 377.705 302.667 377.942 302.708 378.185L304.532 388.956C305.468 394.481 297.69 396.714 295.552 391.534L291.385 381.435C291.293 381.212 291.216 380.987 291.154 380.761C281.136 383.18 271.045 384.397 261.052 384.489C261.047 384.725 261.027 384.964 260.992 385.204L259.402 395.985C258.585 401.528 250.497 401.248 250.065 395.662L249.224 384.797C249.205 384.552 249.202 384.311 249.214 384.073C239.052 383.263 229.068 381.298 219.447 378.261C219.368 378.491 219.273 378.719 219.161 378.943L214.309 388.723C211.819 393.743 204.213 390.978 205.528 385.531L208.091 374.917C208.151 374.67 208.226 374.432 208.314 374.202C198.971 370.323 190.068 365.397 181.795 359.508C181.647 359.706 181.483 359.898 181.304 360.08L173.667 367.883C169.747 371.887 163.368 366.907 166.302 362.133L172.019 352.831C172.153 352.614 172.298 352.41 172.454 352.218C164.822 345.698 157.871 338.279 151.783 330.039C151.572 330.19 151.347 330.328 151.109 330.453L141.453 335.503C136.488 338.1 131.961 331.393 136.226 327.759L144.522 320.693C144.732 320.514 144.951 320.354 145.176 320.212C141.845 314.748 138.868 308.983 136.288 302.937L117.975 327.215C115.548 330.433 110.813 330.777 108.278 327.643C90.9225 306.189 88.7777 277.815 90.4789 260.48C90.8879 256.312 95.2518 254.013 99.1107 255.641L126.538 267.212C125.852 261.889 125.492 256.568 125.449 251.274C125.161 251.277 124.869 251.257 124.575 251.214L113.794 249.624C108.25 248.807 108.53 240.719 114.117 240.287L124.982 239.446C125.285 239.422 125.583 239.423 125.876 239.446C126.693 229.301 128.662 219.333 131.7 209.728C131.409 209.638 131.12 209.524 130.837 209.384L121.055 204.531C116.036 202.04 118.801 194.435 124.248 195.75L134.862 198.313C135.175 198.389 135.475 198.488 135.76 198.61C139.637 189.283 144.558 180.396 150.437 172.137C150.179 171.958 149.933 171.755 149.699 171.527L141.896 163.888C137.891 159.968 142.871 153.59 147.645 156.524L156.949 162.242C157.226 162.412 157.483 162.602 157.718 162.809C164.228 155.188 171.634 148.247 179.858 142.166C179.661 141.909 179.483 141.631 179.327 141.332L174.275 131.675C171.678 126.71 178.386 122.182 182.019 126.448L189.087 134.745C189.309 135.005 189.502 135.28 189.668 135.564C196.591 131.338 203.997 127.681 211.847 124.682C213.595 124.014 215.348 123.385 217.105 122.795C216.993 122.483 216.907 122.157 216.849 121.818L215.025 111.044ZM151.742 291.434C174.546 351.109 241.408 381 301.082 358.196C360.195 335.607 390.081 269.783 368.47 210.539C361.303 216.558 352.704 222.012 342.704 225.677C320.262 233.902 303.128 237.485 288.668 238.903C272.225 261.514 244.271 270.946 230.746 272.888L232.469 239.03C223.662 239.397 214.199 240.556 203.133 243.399C182.348 248.739 162.988 257.448 145.416 267.56C146.643 275.565 148.734 283.562 151.742 291.434ZM181.222 294.347C175.681 295.333 170.389 291.64 169.403 286.098C168.417 280.557 172.11 275.265 177.651 274.279C183.193 273.293 188.484 276.986 189.47 282.527C190.457 288.069 186.764 293.36 181.222 294.347ZM228.206 295.579C224.589 296.223 221.135 293.813 220.491 290.196C219.848 286.579 222.258 283.126 225.875 282.482C229.492 281.838 232.945 284.249 233.589 287.865C234.232 291.482 231.822 294.936 228.206 295.579ZM287.868 293.246C284.251 293.89 280.797 291.48 280.154 287.863C279.51 284.246 281.92 280.793 285.537 280.149C289.154 279.505 292.608 281.916 293.251 285.532C293.895 289.149 291.485 292.603 287.868 293.246ZM300.292 325.109C300.935 328.726 304.389 331.136 308.006 330.493C311.622 329.849 314.033 326.395 313.389 322.778C312.745 319.162 309.292 316.751 305.675 317.395C302.058 318.039 299.648 321.492 300.292 325.109ZM230.569 341.346C226.952 341.99 223.498 339.579 222.855 335.963C222.211 332.346 224.621 328.892 228.238 328.249C231.855 327.605 235.309 330.015 235.952 333.632C236.596 337.249 234.186 340.702 230.569 341.346ZM194.672 313.232C195.315 316.849 198.769 319.259 202.386 318.616C206.003 317.972 208.413 314.518 207.769 310.901C207.126 307.285 203.672 304.874 200.055 305.518C196.438 306.162 194.028 309.615 194.672 313.232ZM259.617 315.375C256 316.019 252.546 313.609 251.903 309.992C251.259 306.375 253.669 302.921 257.286 302.278C260.903 301.634 264.357 304.044 265 307.661C265.644 311.278 263.234 314.732 259.617 315.375ZM316.397 288.166C317.383 293.707 322.675 297.4 328.216 296.414C333.758 295.428 337.451 290.136 336.464 284.595C335.478 279.053 330.187 275.36 324.645 276.346C319.104 277.332 315.411 282.624 316.397 288.166ZM259.35 339.822C260.336 345.363 265.627 349.056 271.169 348.07C276.71 347.084 280.403 341.792 279.417 336.251C278.431 330.709 273.139 327.016 267.598 328.002C262.056 328.989 258.363 334.28 259.35 339.822ZM337.274 183.445C339.314 192.407 334.024 201.252 325.46 203.201C316.895 205.151 308.299 199.466 306.259 190.505C304.22 181.543 309.509 172.698 318.074 170.749C326.638 168.799 335.234 174.484 337.274 183.445Z" fill="url(#paint0_linear_3462_51)"/>
<path d="M326.11 195.414C329.967 194.536 332.273 190.216 331.26 185.765C330.247 181.314 326.298 178.417 322.441 179.295C318.584 180.173 316.278 184.493 317.291 188.944C318.304 193.395 322.253 196.292 326.11 195.414Z" fill="#4A98EA"/>
</g>
<defs>
<linearGradient id="paint0_linear_3462_51" x1="277.317" y1="100" x2="408.66" y2="313.676" gradientUnits="userSpaceOnUse">
<stop offset="0.0677083" stop-color="#874FFF"/>
<stop offset="0.463542" stop-color="#36AFE2"/>
<stop offset="0.859375" stop-color="#41FF54"/>
</linearGradient>
<clipPath id="clip0_3462_51">
<rect width="500" height="500" fill="white"/>
</clipPath>
</defs>
</svg>
