<svg width="500" height="500" viewBox="0 0 500 500" fill="none" xmlns="http://www.w3.org/2000/svg">
<g clip-path="url(#clip0_3423_1390)">
<path d="M250 500C388.071 500 500 388.071 500 250C500 111.929 388.071 0 250 0C111.929 0 0 111.929 0 250C0 388.071 111.929 500 250 500Z" fill="url(#paint0_radial_3423_1390)"/>
<path d="M171.825 164.836L194.768 151.966C200.115 148.966 203.768 153.466 202.768 158.466C201.968 162.466 205.434 166.466 207.268 167.966C210.101 170.299 221.968 179.766 246.768 198.966C271.568 218.166 258.768 234.966 249.268 240.966C242.768 244.966 225.868 255.066 210.268 263.466C194.668 271.866 200 284.339 207.268 289.966C212.434 293.966 228.068 305.766 249.268 320.966C263.009 330.818 262.648 341.902 258.288 350.434C253.94 358.94 245.157 363.931 236.935 368.794C224.729 376.014 210.318 384.44 206.268 386.466C199.268 389.966 197.768 383.966 198.268 378.466C198.668 374.066 193.768 368.966 191.268 366.966C185.434 362.632 168.968 350.466 149.768 336.466C139.354 328.873 138.57 319.858 141.495 311.974C146.139 299.457 159.178 292.765 170.87 286.319C175.726 283.641 181.403 280.501 187.768 276.966C205.768 266.966 198.934 253.799 193.268 248.466C185.934 242.966 166.768 228.666 148.768 215.466C139.074 208.357 138.613 199.48 141.682 191.551C146.653 178.713 159.819 171.571 171.825 164.836Z" fill="#CBE9E9"/>
<path d="M270.825 125.836L293.768 112.966C299.115 109.966 302.768 114.466 301.768 119.466C300.968 123.466 304.434 127.466 306.268 128.966C309.101 131.299 320.968 140.766 345.768 159.966C370.568 179.166 357.768 195.966 348.268 201.966C341.768 205.966 324.868 216.066 309.268 224.466C293.668 232.866 299 245.339 306.268 250.966C311.434 254.966 327.068 266.766 348.268 281.966C362.009 291.818 361.648 302.902 357.288 311.434C352.94 319.94 344.157 324.931 335.935 329.794C323.729 337.014 309.318 345.44 305.268 347.466C298.268 350.966 296.768 344.966 297.268 339.466C297.668 335.066 292.768 329.966 290.268 327.966C284.434 323.632 267.968 311.466 248.768 297.466C238.354 289.873 237.57 280.858 240.495 272.974C245.139 260.457 258.178 253.765 269.87 247.319C274.726 244.641 280.403 241.501 286.768 237.966C304.768 227.966 297.934 214.799 292.268 209.466C284.934 203.966 265.768 189.666 247.768 176.466C238.074 169.357 237.613 160.48 240.682 152.551C245.653 139.713 258.819 132.571 270.825 125.836Z" fill="#CBE9E9"/>
</g>
<defs>
<radialGradient id="paint0_radial_3423_1390" cx="0" cy="0" r="1" gradientUnits="userSpaceOnUse" gradientTransform="translate(250 250) rotate(90) scale(250)">
<stop stop-color="#168787"/>
<stop offset="1" stop-color="#075A5A"/>
</radialGradient>
<clipPath id="clip0_3423_1390">
<rect width="500" height="500" fill="white"/>
</clipPath>
</defs>
</svg>
