<svg width="600" height="600" viewBox="0 0 600 600" fill="none" xmlns="http://www.w3.org/2000/svg">
<path d="M300 600C465.685 600 600 465.685 600 300C600 134.315 465.685 0 300 0C134.315 0 0 134.315 0 300C0 465.685 134.315 600 300 600Z" fill="url(#paint0_radial_7563_55456)"/>
<path d="M467.335 437.891H374.64L375.171 437.444L377.173 435.672L378.421 434.534L380.401 432.762L381.649 431.607C382.344 430.932 383.029 430.24 383.719 429.538L384.781 428.473C385.556 427.569 386.496 426.627 387.329 425.691L387.823 425.159C388.814 423.97 389.789 422.785 390.749 421.604L391.529 420.599C392.203 419.721 392.872 418.859 393.531 417.938C393.86 417.481 394.152 416.996 394.518 416.534C395.049 415.741 395.633 414.937 396.164 414.123C396.499 413.591 396.833 413.059 397.173 412.527C397.672 411.734 398.32 410.739 398.638 410.101C398.957 409.462 399.265 408.888 399.594 408.324C400.061 407.509 400.502 406.674 400.927 405.823C401.229 405.195 401.553 404.631 401.808 404.051C402.238 403.141 402.647 402.269 403.056 401.391C403.305 400.763 403.587 400.199 403.799 399.619C404.208 398.603 404.585 397.576 404.951 396.543C405.142 396.011 405.344 395.538 405.519 395.022C406.05 393.457 406.533 391.893 406.958 390.265C409.969 376.683 410.192 362.629 407.614 348.958C405.035 335.287 399.709 322.284 391.959 310.74L393.552 308.022C395.077 305.325 397.007 302.881 399.275 300.775C400.724 299.429 402.371 298.316 404.16 297.476C405.23 296.983 406.352 296.613 407.505 296.374C408.624 296.157 409.765 296.082 410.903 296.151C411.661 296.193 412.414 296.3 413.154 296.47C414.953 296.874 416.666 297.594 418.214 298.598C418.644 298.853 419.06 299.13 419.461 299.428C420.154 299.942 420.819 300.492 421.452 301.078C422.834 302.386 424.079 303.832 425.169 305.393C425.818 306.238 426.409 307.127 426.937 308.053L484.198 408.834C485.115 410.414 485.903 412.065 486.555 413.772C486.757 414.304 486.943 414.836 487.086 415.368C487.4 416.374 487.648 417.4 487.829 418.438C487.972 419.475 488.026 420.521 487.988 421.567C487.998 422.767 487.873 423.965 487.617 425.137C487.323 426.634 486.784 428.072 486.024 429.394C485.25 430.724 484.27 431.922 483.12 432.943C482.201 433.749 481.197 434.452 480.125 435.039L478.973 435.624C475.302 437.211 471.332 437.984 467.335 437.891V437.891ZM359.711 400.981C359.626 399.995 359.519 398.994 359.392 397.98C359.407 397.692 359.371 397.404 359.286 397.129C359.142 396.011 358.978 394.873 358.787 393.723L358.681 393.101C358.505 392.085 358.304 391.058 358.097 390.009C358.065 389.732 358.01 389.458 357.932 389.19C357.72 388.004 357.401 386.801 357.098 385.646C357.067 385.371 357.001 385.101 356.902 384.843C356.636 383.754 356.341 382.654 356.015 381.544L355.824 380.858C355.452 379.575 355.049 378.293 354.619 376.984L354.316 376.08L335.203 409.068C334.544 410.259 333.954 411.487 333.435 412.745C332.489 414.951 331.859 417.28 331.561 419.662C331.439 420.722 331.409 421.79 331.47 422.855C331.52 423.654 331.628 424.449 331.794 425.233C332.406 428.266 333.991 431.015 336.307 433.06C337.54 434.14 338.922 435.036 340.411 435.72C344.049 437.312 347.991 438.087 351.959 437.992H354.083L354.263 437.567C354.534 436.737 354.794 436.055 355.102 435.348L355.208 435.082C355.458 434.443 355.686 433.752 355.92 433.129L356.127 432.544C356.376 431.82 356.605 431.075 356.854 430.33L356.998 429.867C357.194 429.208 357.385 428.537 357.56 427.861C357.591 427.647 357.647 427.436 357.725 427.234C357.927 426.446 358.112 425.637 358.288 424.823L358.41 424.195C358.553 423.482 358.696 422.775 358.824 422.067L358.93 421.439C359.073 420.588 359.201 419.715 359.318 418.837C359.303 418.595 359.332 418.352 359.403 418.119C359.503 417.332 359.594 416.523 359.668 415.709V415.177C359.668 414.219 359.843 413.298 359.843 412.341V405.365V404.594C359.843 403.53 359.737 402.465 359.652 401.401L359.711 400.981ZM287.589 284.578C261.043 240.905 276.312 181.988 327.361 170.314C327.361 170.314 296.264 220.569 341.696 255.633C343.289 256.868 344.85 258.107 346.411 259.358L358.808 238.075C358.999 237.649 359.196 237.223 359.387 236.787C359.992 235.467 360.539 234.127 361.038 232.77C362.016 230.074 362.778 227.303 363.316 224.485C363.565 223.086 363.788 221.66 363.942 220.229V220.197C364.415 216.106 364.415 211.975 363.942 207.884C363.793 206.469 363.581 205.043 363.316 203.628C363.124 202.564 362.891 201.5 362.609 200.494C362.211 198.93 361.744 197.387 361.213 195.844C360.682 194.301 360.088 192.8 359.434 191.321C359.243 190.89 359.063 190.454 358.856 190.028L328.752 137.001L316.01 113.989C314.948 112.133 313.716 110.38 312.33 108.753C311.128 107.347 309.767 106.087 308.274 104.997C307.587 104.511 306.869 104.072 306.124 103.682C304.085 102.578 301.804 102 299.487 102C297.17 102 294.889 102.578 292.851 103.682C291.322 104.486 289.907 105.487 288.64 106.662C287.189 108.011 285.883 109.509 284.743 111.131C284.134 112.008 283.543 112.944 282.97 113.941L115.939 408.765C114.097 411.848 112.838 415.244 112.223 418.784C112.09 419.647 112.016 420.518 112 421.391V422.647C112.038 423.446 112.137 424.242 112.297 425.025C112.443 425.782 112.652 426.524 112.924 427.244C113.067 427.601 113.205 427.957 113.359 428.308C113.965 429.611 114.793 430.798 115.807 431.815C116.143 432.171 116.498 432.511 116.869 432.831C117.312 433.209 117.775 433.564 118.254 433.895C120.47 435.376 122.948 436.416 125.555 436.96C127.065 437.294 128.599 437.515 130.142 437.62H216.471C217.414 437.593 218.354 437.503 219.285 437.348L220.134 437.242L222.189 436.923L223.039 436.779C223.947 436.604 224.817 436.428 225.752 436.215H226.06C226.856 436.05 227.652 435.827 228.443 435.593L229.367 435.311L231.135 434.683L232.043 434.363C232.898 434.044 233.732 433.725 234.544 433.353C229.118 427.061 224.549 420.076 220.957 412.58C197.772 364.842 231.948 306.936 231.948 306.936C231.948 306.936 226.851 361.82 262.566 364.326C267.461 364.928 272.427 364.448 277.116 362.919C281.805 361.39 286.103 358.85 289.707 355.478C291.661 353.634 293.331 351.509 294.661 349.172L295.633 347.502C296.976 345.174 297.981 342.665 298.616 340.053C300.916 330.559 301.12 320.676 299.216 311.095C297.311 301.514 293.343 292.464 287.589 284.578V284.578Z" fill="white"/>
<defs>
<radialGradient id="paint0_radial_7563_55456" cx="0" cy="0" r="1" gradientUnits="userSpaceOnUse" gradientTransform="translate(196 143.5) rotate(54.1675) scale(497.082)">
<stop stop-color="#2BCBFF"/>
<stop offset="1" stop-color="#0092C1"/>
</radialGradient>
</defs>
</svg>
