<?xml version="1.0" encoding="utf-8"?>
<!-- Generator: Adobe Illustrator 26.0.0, SVG Export Plug-In . SVG Version: 6.00 Build 0)  -->
<svg version="1.1" id="Layer_1" xmlns="http://www.w3.org/2000/svg" xmlns:xlink="http://www.w3.org/1999/xlink" x="0px" y="0px"
	 viewBox="0 0 1000 1000" style="enable-background:new 0 0 1000 1000;" xml:space="preserve">
<style type="text/css">
	.st0{clip-path:url(#SVGID_00000032647557614160551870000006923117765904887693_);}
	.st1{clip-path:url(#SVGID_00000011021191961208435100000016692442188081805233_);}
	.st2{clip-path:url(#SVGID_00000061448012636993408300000009036279918218756763_);}
	.st3{clip-path:url(#SVGID_00000130627265539470766560000004317599502862034333_);}
	.st4{clip-path:url(#SVGID_00000049195609484000419520000006226635510353002125_);}
	.st5{clip-path:url(#SVGID_00000034811151659759903390000000367702364175761299_);}
</style>
<g>
	<g>
		<defs>
			<path id="SVGID_1_" d="M500,0c276.1,0,500,223.9,500,500s-223.9,500-500,500S0,776.1,0,500S223.9,0,500,0L500,0z"/>
		</defs>
		<use xlink:href="#SVGID_1_"  style="overflow:visible;fill-rule:evenodd;clip-rule:evenodd;"/>
		<clipPath id="SVGID_00000127045405299547917860000007056498472460919453_">
			<use xlink:href="#SVGID_1_"  style="overflow:visible;"/>
		</clipPath>
	</g>
	<g>
		<defs>
			<path id="SVGID_00000132775828645421172540000001617939786430459821_" d="M680.2,385.5l54.9,90.3L635,436.6
				c-0.5-70.3-54.9-127.8-124-133.2v-196l121,198.9l96.2-96.2l63.6,63.6L680.2,385.5L680.2,385.5z"/>
		</defs>
		<defs>
			<path id="SVGID_00000054962246991588119380000010132656342322844045_" d="M555.4,378.6c5,7.6,7.6,16.2,7.6,25.9h-38.4
				c0-6.5-2-11.5-6-15.1c-4-3.6-9.4-5.4-16.2-5.4c-6.9,0-12.3,1.5-16.3,4.6c-4,3-6,6.9-6,11.6c0,4.1,2.2,7.8,6.6,11.1
				c4.4,3.3,12.1,6.8,23.2,10.3c11,3.5,20.1,7.4,27.2,11.5c17.3,9.9,25.9,23.7,25.9,41.1c0,14-5.3,24.9-15.8,32.9
				c-10.5,8-25,12-43.3,12c-12.9,0-24.7-2.3-35.2-7c-10.5-4.6-18.4-11-23.7-19.1c-5.3-8.1-8-17.4-8-27.9h38.6
				c0,8.6,2.2,14.9,6.6,18.9c4.4,4.1,11.6,6.1,21.6,6.1c6.4,0,11.4-1.4,15.1-4.1c3.7-2.7,5.5-6.6,5.5-11.6c0-5.6-2-10-6-13.2
				c-4-3.1-11-6.4-21-9.8c-10-3.4-18.2-6.6-24.6-9.8c-20.7-10.2-31.1-24.1-31.1-41.9c0-8.8,2.6-16.6,7.7-23.4
				c5.2-6.8,12.5-12,21.9-15.8c9.4-3.8,20-5.6,31.8-5.6c11.5,0,21.8,2,30.9,6.1C543.3,365.2,550.4,371,555.4,378.6L555.4,378.6z"/>
		</defs>
		<defs>
			<path id="SVGID_00000181792931846235912330000017045037778272708003_" d="M366,436.2l-101.1,39.6l54.9-90.3L208.2,273.8
				l63.6-63.6l96.2,96.2l121-198.9v196.1C420.5,309.3,366.7,366.4,366,436.2L366,436.2z"/>
		</defs>
		<defs>
			<path id="SVGID_00000071560245371487122630000005104631609361042831_" d="M367.9,459.9c10.1,59.9,59.7,106.4,121.1,111.6v71
				L260.3,502.1L367.9,459.9L367.9,459.9z"/>
		</defs>
		<defs>
			<polygon id="SVGID_00000160183337599165780540000008312259394886050955_" points="268,577 489,711 489,893 392.6,755.1 
				296.8,850.8 233.2,787.2 340.2,680.2 268,577 			"/>
		</defs>
		<defs>
			<path id="SVGID_00000022552601105736243450000009972399619188090752_" d="M511,571.6c61.7-4.8,111.8-51.2,122.1-111.3l106.6,41.8
				L511,642.5V571.6L511,571.6z"/>
		</defs>
		<defs>
			<polygon id="SVGID_00000110473088386900472650000000693522640172097437_" points="658.2,682.5 762.8,787.2 699.2,850.8 
				605.8,757.4 511,893 511,711 732,577 658.2,682.5 			"/>
		</defs>
		
			<use xlink:href="#SVGID_00000132775828645421172540000001617939786430459821_"  style="overflow:visible;fill-rule:evenodd;clip-rule:evenodd;fill:#FAFCFB;"/>
		
			<use xlink:href="#SVGID_00000054962246991588119380000010132656342322844045_"  style="overflow:visible;fill-rule:evenodd;clip-rule:evenodd;fill:#FAFCFB;"/>
		
			<use xlink:href="#SVGID_00000181792931846235912330000017045037778272708003_"  style="overflow:visible;fill-rule:evenodd;clip-rule:evenodd;fill:#FAFCFB;"/>
		
			<use xlink:href="#SVGID_00000071560245371487122630000005104631609361042831_"  style="overflow:visible;fill-rule:evenodd;clip-rule:evenodd;fill:#FAFCFB;"/>
		
			<use xlink:href="#SVGID_00000160183337599165780540000008312259394886050955_"  style="overflow:visible;fill-rule:evenodd;clip-rule:evenodd;fill:#FAFCFB;"/>
		
			<use xlink:href="#SVGID_00000022552601105736243450000009972399619188090752_"  style="overflow:visible;fill-rule:evenodd;clip-rule:evenodd;fill:#FAFCFB;"/>
		
			<use xlink:href="#SVGID_00000110473088386900472650000000693522640172097437_"  style="overflow:visible;fill-rule:evenodd;clip-rule:evenodd;fill:#FAFCFB;"/>
		<clipPath id="SVGID_00000081628858379142341820000011279984407507289250_">
			<use xlink:href="#SVGID_00000132775828645421172540000001617939786430459821_"  style="overflow:visible;"/>
		</clipPath>
		
			<clipPath id="SVGID_00000026879816055362371650000000944927861503610758_" style="clip-path:url(#SVGID_00000081628858379142341820000011279984407507289250_);">
			<use xlink:href="#SVGID_00000054962246991588119380000010132656342322844045_"  style="overflow:visible;"/>
		</clipPath>
		
			<clipPath id="SVGID_00000171708579917587895140000012310890493366963619_" style="clip-path:url(#SVGID_00000026879816055362371650000000944927861503610758_);">
			<use xlink:href="#SVGID_00000181792931846235912330000017045037778272708003_"  style="overflow:visible;"/>
		</clipPath>
		
			<clipPath id="SVGID_00000063594139005546500890000005455012062663708046_" style="clip-path:url(#SVGID_00000171708579917587895140000012310890493366963619_);">
			<use xlink:href="#SVGID_00000071560245371487122630000005104631609361042831_"  style="overflow:visible;"/>
		</clipPath>
		
			<clipPath id="SVGID_00000072988675698214773290000015712357608558495417_" style="clip-path:url(#SVGID_00000063594139005546500890000005455012062663708046_);">
			<use xlink:href="#SVGID_00000160183337599165780540000008312259394886050955_"  style="overflow:visible;"/>
		</clipPath>
		
			<clipPath id="SVGID_00000161590782650763857120000004111574083620088479_" style="clip-path:url(#SVGID_00000072988675698214773290000015712357608558495417_);">
			<use xlink:href="#SVGID_00000022552601105736243450000009972399619188090752_"  style="overflow:visible;"/>
		</clipPath>
		
			<clipPath id="SVGID_00000065786122245496019110000009061125910781405325_" style="clip-path:url(#SVGID_00000161590782650763857120000004111574083620088479_);">
			<use xlink:href="#SVGID_00000110473088386900472650000000693522640172097437_"  style="overflow:visible;"/>
		</clipPath>
	</g>
</g>
</svg>
