<svg width="593" height="600" viewBox="0 0 593 600" fill="none"
    xmlns="http://www.w3.org/2000/svg">
    <path d="M434.11 52.8152C418.653 68.252 404.549 84.9867 391.952 102.835L387.98 101.538C365.105 94.0473 341.382 89.4516 317.365 87.8589C310.158 87.2998 283.27 87.2998 274.494 87.8589C247.962 89.6075 227.639 93.5805 204.532 101.634C203.605 102.002 202.772 102.276 201.94 102.55C188.912 84.7608 174.348 68.1506 158.415 52.9104C196.308 33.4854 237.873 22.2792 280.393 20.0244C322.913 17.7697 365.43 24.5171 405.164 39.8255C413.762 43.0611 422.17 46.8557 430.399 50.9239L434.11 52.8152Z" fill="#F00500"/>
    <path d="M577.16 403.454C565.573 436.607 548.039 467.368 525.417 494.227C513.13 508.609 499.6 521.88 484.984 533.886C450.755 561.443 410.868 581.106 368.168 591.471C321.033 602.843 271.871 602.843 224.737 591.471C182.062 581.118 142.203 561.453 108.016 533.886C93.3972 521.883 79.8669 508.612 67.5829 494.227C35.5345 456.378 13.9054 410.824 4.82949 362.062C-4.2464 313.299 -0.455416 263.012 15.8284 216.162C22.0921 198.53 29.9787 181.518 39.3867 165.345C43.7392 157.946 49.0906 149.631 51.6831 146.205C60.5546 184.378 71.4597 217.922 75.5268 230.032C75.2259 230.727 74.8885 231.406 74.516 232.066C52.9794 275.698 41.337 317.712 38.5661 362.498C38.5661 363.057 38.471 363.688 38.471 364.259C37.7337 377.653 38.1023 384.04 40.3143 392.45C47.2474 418.799 68.5937 447.823 102.046 476.289C156.857 522.883 231.159 556.535 287.444 560.412C346.12 564.385 432.718 530.091 490.383 479.988C499.41 471.999 507.93 463.453 515.892 454.401C521.624 447.74 530.162 436.273 529.472 436.273C529.294 436.273 529.472 436.094 529.853 435.904C530.233 435.714 530.4 435.452 530.222 435.262C530.043 435.071 530.305 434.893 530.59 434.798C530.876 434.703 531.054 434.524 530.959 434.334C530.864 434.144 530.959 433.965 531.328 433.87C531.384 433.856 531.436 433.829 531.481 433.793C531.527 433.757 531.563 433.711 531.589 433.659C531.615 433.607 531.63 433.55 531.632 433.492C531.634 433.434 531.623 433.376 531.601 433.323C531.506 433.132 531.601 432.954 531.791 432.954C531.982 432.954 532.16 432.669 532.16 432.49C532.16 432.312 532.338 432.026 532.529 432.026C532.624 432.018 532.713 431.977 532.78 431.909C532.848 431.842 532.889 431.753 532.897 431.657C533.202 430.9 533.602 430.185 534.087 429.528C535.478 427.399 541.02 417.514 541.757 415.849C547.025 403.953 550.355 393.247 551.925 382.661C552.662 377.581 553.114 368.243 552.757 366.007C552.662 365.638 552.662 364.996 552.567 363.973C552.388 362.129 552.293 359.358 552.103 356.586C551.925 352.423 551.556 346.594 551.271 343.727C547.299 301.761 536.584 267.466 516.248 231.138C515.485 229.892 514.806 228.597 514.215 227.26C514.077 227.018 513.954 226.768 513.846 226.511V226.511C516.712 217.922 528.45 181.963 537.785 140.864L537.963 141.043L539.355 142.887C541.733 146.122 548.131 155.745 550.997 160.361C573.193 196.376 587.061 236.898 591.587 278.963C596.114 321.029 591.185 363.574 577.16 403.489V403.454Z" fill="#F00500"/>
    <path d="M457.204 292.982C456.931 294.457 452.59 298.929 448.249 302.129C435.489 311.467 412.668 320.163 389.467 324.314C376.254 326.693 363.03 327.098 359.058 325.147C356.478 323.862 356.109 322.839 357.025 319.508C358.963 312.585 365.254 304.996 375.053 297.883C380.036 294.314 400.277 281.979 409.707 276.804C425.226 268.299 437.796 263.22 446.299 262.018C448.987 261.649 452.245 261.554 453.232 262.018C454.897 262.661 456.8 267.561 457.489 273.473C457.815 279.976 457.72 286.492 457.204 292.982Z" fill="black"/>
    <path d="M239.471 323.553C238.924 324.671 236.154 325.932 233.002 326.324C229.851 326.717 220.254 326.515 214.795 325.872C195.209 323.279 174.362 317.272 159.259 309.873C150.756 305.71 144.656 301.546 140.125 297.026L137.544 294.35L137.259 290.781C136.795 284.679 136.89 275.067 137.627 271.653C138.111 268.797 139.08 266.045 140.493 263.517C141.231 262.589 141.231 262.589 144.56 262.589C149.023 262.645 153.445 263.449 157.642 264.968C169.011 268.477 185.921 276.983 206.53 289.377C223.536 299.548 229.91 304.532 234.81 311.372C238.092 315.726 240.304 321.733 239.471 323.553Z" fill="black"/>
    <path d="M370.332 452.26C370.332 452.534 369.226 457.018 367.847 462.24C366.467 467.462 365.349 471.757 365.349 471.947C364.368 472.073 363.376 472.105 362.388 472.042H359.427L355.36 481.653C353.148 486.923 351.115 491.824 350.841 492.561L350.282 493.858L348.344 490.718L346.405 487.565V461.967L345.656 462.145C344.086 462.514 332.908 464.001 328.008 464.465C307.79 466.484 287.401 466.049 267.287 463.168C265.271 462.819 263.239 462.573 261.198 462.431C261.103 462.514 261.198 468.438 261.377 475.742L261.65 488.826L260.08 491.205C259.248 492.502 258.416 493.585 258.416 493.703C258.142 493.977 257.226 492.514 255.098 488.255C252.808 483.795 251.067 479.074 249.913 474.195L249.271 471.519L246.405 471.709L243.539 471.983L242.801 468.557C242.433 466.713 241.969 463.799 241.79 462.276L241.505 459.314L239.127 457.197C237.747 456.007 236.356 454.818 236.082 454.604C235.866 454.405 235.696 454.161 235.583 453.89C235.47 453.619 235.417 453.327 235.428 453.033V452.022L246.987 452.106L258.534 452.201L258.903 453.39L259.272 454.58L263.256 454.77C265.468 454.853 272.496 455.044 278.775 455.234L290.322 455.508L293.248 450.833L296.304 446.217H300.181L300.085 436.606L299.99 426.983L294.912 424.77C278.561 417.561 268.94 409.306 265.337 399.35C264.599 397.316 264.599 396.578 264.421 387.324C264.243 378.069 264.326 377.343 264.968 375.309C265.594 373.044 266.801 370.981 268.47 369.326C270.139 367.672 272.211 366.482 274.482 365.876C276.052 365.424 280.202 365.424 302.012 365.424L327.711 365.508L330.577 366.899C333.346 368.04 335.746 369.926 337.51 372.347C339.722 375.309 340.376 377.617 340.376 383.255C340.376 391.309 339.817 398.232 338.985 401.015C337.758 404.813 335.949 408.396 333.621 411.638C328.105 418.2 320.967 423.204 312.917 426.15L310.705 426.983L310.8 436.689L310.884 446.396L312.917 446.586L314.951 446.764L317.733 450.928L320.409 455.091H332.789C339.627 455.091 345.632 455.186 346.191 455.27C347.119 455.46 347.297 455.365 348.225 453.795L349.331 452.129H359.962C367.93 451.796 370.332 452.022 370.332 452.26Z" fill="black"/>
    <path d="M321.539 478.787C319.779 479.81 318.578 480.274 318.304 480.083C318.031 479.893 316.734 478.894 315.343 477.871L312.858 475.813L310.265 478.584C304.628 484.687 304.438 484.96 302.785 485.056C300.193 485.329 299.634 484.865 296.494 480.155C294.829 477.776 293.533 475.718 293.533 475.718C293.533 475.718 292.344 475.527 290.952 475.432L288.36 475.159L287.171 477.657L285.981 480.155L283.853 479.5C282.187 478.951 280.555 478.304 278.965 477.561L276.182 476.182V470.936L300.775 471.019L325.356 471.114L325.451 473.612C325.511 476.574 325.606 476.479 321.539 478.787Z" fill="black"/>
    <path d="M552.579 366.007C552.483 365.333 552.423 364.654 552.4 363.973C530.222 361.594 466.908 360.095 408.137 408.628C408.137 408.628 389.193 321.792 300.466 321.792C211.739 321.792 178.845 408.628 178.845 408.628C129.125 355.099 62.5882 358.989 38.5185 362.498C38.5185 363.057 38.4234 363.688 38.4234 364.259C37.6861 377.653 38.0547 384.04 40.2667 392.45C47.1998 418.799 68.5461 447.823 101.999 476.289C156.809 522.883 231.111 556.534 287.397 560.412C346.072 564.385 432.671 530.091 490.335 479.988C499.379 472 507.914 463.455 515.892 454.401C521.624 447.74 530.162 436.273 529.472 436.273C529.294 436.273 529.472 436.094 529.853 435.904C530.233 435.714 530.4 435.44 530.222 435.262C530.043 435.083 530.305 434.893 530.59 434.798C530.876 434.703 531.054 434.524 530.959 434.334C530.864 434.144 530.959 433.965 531.328 433.87C531.384 433.856 531.436 433.829 531.481 433.793C531.527 433.757 531.563 433.711 531.589 433.659C531.615 433.607 531.63 433.55 531.632 433.492C531.634 433.434 531.623 433.376 531.601 433.323C531.506 433.132 531.601 432.954 531.791 432.954C531.982 432.954 532.16 432.669 532.16 432.49C532.16 432.312 532.338 432.026 532.529 432.026C532.624 432.018 532.713 431.977 532.78 431.909C532.848 431.842 532.889 431.753 532.897 431.657C533.202 430.9 533.602 430.185 534.086 429.528C535.478 427.399 541.02 417.514 541.757 415.849C547.025 403.953 550.355 393.247 551.925 382.661C552.495 377.569 552.947 368.232 552.579 366.007ZM321.539 478.787C319.779 479.81 318.578 480.274 318.304 480.083C318.031 479.893 316.734 478.894 315.343 477.871L312.858 475.813L310.265 478.584C304.628 484.687 304.438 484.96 302.785 485.056C300.192 485.329 299.634 484.865 296.494 480.155C294.829 477.776 293.533 475.718 293.533 475.718C293.533 475.718 292.344 475.527 290.952 475.432L288.36 475.159L287.171 477.657L285.981 480.155L283.853 479.5C282.187 478.951 280.555 478.304 278.965 477.561L276.182 476.182V470.936L300.775 471.019L325.356 471.114L325.451 473.612C325.511 476.574 325.606 476.479 321.539 478.787ZM367.752 462.133C366.36 467.403 365.254 471.65 365.254 471.84C364.272 471.966 363.281 471.998 362.293 471.935H359.344L355.36 481.642C353.148 486.911 351.115 491.812 350.841 492.55L350.282 493.846L348.344 490.706L346.405 487.554V461.967L345.656 462.145C344.086 462.514 332.908 464.001 328.008 464.465C307.79 466.484 287.401 466.049 267.287 463.168C265.271 462.819 263.239 462.573 261.198 462.431C261.103 462.514 261.198 468.438 261.377 475.741L261.65 488.826L260.08 491.205C259.248 492.502 258.416 493.584 258.416 493.703C258.142 493.977 257.226 492.514 255.098 488.255C252.808 483.795 251.067 479.074 249.913 474.195L249.271 471.519L246.404 471.709L243.538 471.983L242.801 468.557C242.433 466.713 241.969 463.799 241.79 462.276L241.505 459.314L239.127 457.197C237.747 456.007 236.356 454.818 236.082 454.604C235.866 454.405 235.696 454.161 235.583 453.89C235.47 453.619 235.417 453.327 235.428 453.033V452.022L246.987 452.105L258.534 452.201L258.903 453.39L259.272 454.58L263.256 454.77C265.468 454.853 272.496 455.044 278.775 455.234L290.322 455.508L293.248 450.833L296.304 446.217H300.181L300.085 436.606L299.99 426.983L294.912 424.77C278.561 417.561 268.94 409.306 265.337 399.35C264.599 397.316 264.599 396.578 264.421 387.324C264.243 378.069 264.326 377.343 264.968 375.309C265.594 373.044 266.801 370.981 268.47 369.326C270.139 367.672 272.211 366.482 274.482 365.876C276.052 365.424 280.202 365.424 302.012 365.424L327.711 365.508L330.577 366.899C333.346 368.04 335.746 369.926 337.51 372.347C339.722 375.309 340.376 377.617 340.376 383.255C340.376 391.309 339.817 398.232 338.985 401.015C337.758 404.813 335.949 408.396 333.621 411.638C328.105 418.2 320.967 423.203 312.917 426.15L310.705 426.983L310.8 436.689L310.883 446.396L312.917 446.586L314.951 446.764L317.733 450.928L320.409 455.091H332.789C339.627 455.091 345.632 455.186 346.191 455.27C347.119 455.46 347.297 455.365 348.225 453.795L349.331 452.129H359.962C368.192 452.129 370.594 452.224 370.594 452.498C370.332 452.439 369.131 456.971 367.752 462.145V462.133Z" fill="white"/>
    <path d="M551.841 356.586C551.663 352.423 551.282 346.594 551.009 343.727C547.037 301.761 536.322 267.466 515.987 231.138C515.223 229.892 514.544 228.597 513.953 227.26C513.811 227.02 513.688 226.77 513.585 226.511V226.511C516.45 217.922 528.188 181.963 537.523 140.864C550.177 85.0278 558.216 19.7582 533.635 0.166557C533.635 0.166557 491.12 -2.9857 434.193 52.8509C418.744 68.2884 404.648 85.0231 392.059 102.871L388.075 101.574C365.204 94.0819 341.485 89.4862 317.472 87.8946C310.265 87.3355 283.377 87.3355 274.589 87.8946C248.069 89.6432 227.734 93.6162 204.639 101.669C203.712 102.038 202.879 102.312 202.047 102.585C189.019 84.7965 174.455 68.1863 158.522 52.9461C99.2753 -3.19982 55.1913 2.28438e-05 55.1913 2.28438e-05C29.1357 20.2221 38.0072 88.4655 51.5047 146.146C60.3762 184.33 71.2813 217.887 75.2889 229.996C75.0035 230.638 74.6349 231.376 74.2662 232.03C52.7296 275.662 41.0872 317.676 38.3164 362.462C62.4336 358.953 128.887 354.98 178.643 408.592C178.643 408.592 211.537 321.757 300.264 321.757C388.991 321.757 407.923 408.592 407.923 408.592C427.871 392.02 450.893 379.55 475.67 371.897C500.446 364.245 526.489 361.56 552.305 363.997C552.21 362.129 552.032 359.358 551.841 356.586ZM92.806 195.178C92.806 195.178 58.2475 108.747 67.1191 59.3815C68.5937 51.0547 71.3645 43.7629 75.7171 38.2078C75.7171 38.2078 114.961 42.0976 178.108 112.351C178.108 112.351 166.097 118.18 150.019 130.563C149.968 130.615 149.901 130.648 149.829 130.658C126.799 148.242 107.428 170.16 92.806 195.178V195.178ZM239.471 323.553C238.924 324.671 236.153 325.932 233.002 326.324C229.851 326.717 220.254 326.515 214.795 325.872C195.209 323.279 174.362 317.272 159.259 309.873C150.756 305.71 144.656 301.546 140.125 297.026L137.544 294.35L137.259 290.781C136.795 284.679 136.89 275.067 137.627 271.653C138.111 268.797 139.08 266.045 140.493 263.517C141.231 262.589 141.231 262.589 144.56 262.589C149.023 262.645 153.445 263.449 157.642 264.968C169.011 268.477 185.921 276.983 206.53 289.378C223.536 299.548 229.91 304.532 234.81 311.372C238.092 315.726 240.304 321.733 239.471 323.553ZM457.204 292.982C456.93 294.457 452.59 298.929 448.249 302.129C435.489 311.467 412.668 320.163 389.467 324.314C376.254 326.693 363.03 327.098 359.058 325.147C356.478 323.862 356.109 322.839 357.025 319.508C358.963 312.585 365.254 304.996 375.053 297.883C380.036 294.314 400.276 281.979 409.707 276.804C425.226 268.299 437.796 263.22 446.299 262.018C448.987 261.65 452.245 261.554 453.232 262.018C454.897 262.661 456.8 267.561 457.489 273.473C457.815 279.976 457.72 286.492 457.204 292.982ZM441.899 130.563L441.72 130.468C426.154 118.085 414.547 112.256 414.547 112.256C475.637 42.0024 513.43 38.1245 513.43 38.1245C517.592 43.7629 520.268 50.9715 521.754 59.2863C530.34 108.652 496.983 195.178 496.983 195.178C482.99 170.267 464.28 148.32 441.899 130.563V130.563Z" fill="#FFA409"/>
    <path d="M521.802 59.2863C514.595 58.3704 480.501 58.18 441.863 130.563L441.685 130.468C426.154 118.085 414.547 112.256 414.547 112.256C475.637 42.0024 513.43 38.1245 513.43 38.1245C517.652 43.7629 520.387 50.9715 521.802 59.2863Z" fill="#FF9300"/>
    <path d="M497.043 195.178C483.05 170.249 464.317 148.299 441.899 130.563C480.536 58.18 514.548 58.3703 521.838 59.2863C530.4 108.747 497.043 195.178 497.043 195.178Z" fill="#FF8300"/>
    <path d="M523.193 59.5718L521.802 59.2863L523.193 59.5718Z" fill="#FF8300"/>
    <path d="M178.108 112.256C178.108 112.256 166.097 118.085 150.019 130.468C149.968 130.52 149.901 130.553 149.829 130.563C109.812 58.0849 74.5992 58.3704 67.0239 59.2863C68.4986 50.9596 71.2813 43.6677 75.6219 38.1245C75.7171 38.1245 114.866 42.0024 178.108 112.256Z" fill="#FF9300"/>
    <path d="M149.924 130.563C132.359 144.064 110.002 165.226 92.8417 195.178C92.8417 195.178 58.2832 108.747 67.1548 59.2863C74.5992 58.3703 109.907 58.18 149.924 130.563Z" fill="#FF8300"/>
    <path d="M67.1191 59.2863L65.6445 59.5718L67.1191 59.2863Z" fill="#FF8300"/>
    <path d="M403.511 243.152C403.511 243.152 373.935 245.044 377.681 221.895C381.428 198.747 404.486 196.011 410.979 196.915C417.472 197.819 443.326 207.086 438.7 226.487C434.074 245.888 427.616 242.213 423.918 243.14C420.22 244.068 403.511 243.152 403.511 243.152Z" fill="white"/>
    <path d="M185.41 243.152C185.41 243.152 155.834 245.008 159.533 221.895C163.231 198.783 186.337 196.011 192.831 196.915C199.324 197.819 225.177 207.086 220.551 226.487C215.925 245.888 209.468 242.213 205.769 243.14C202.071 244.068 185.41 243.152 185.41 243.152Z" fill="white"/>
</svg>
