<?xml version="1.0" encoding="UTF-8"?>
<svg xmlns="http://www.w3.org/2000/svg" xmlns:xlink="http://www.w3.org/1999/xlink" width="64px" height="64px" viewBox="0 0 64 64" version="1.1">
<defs>
<linearGradient id="linear0" gradientUnits="userSpaceOnUse" x1="400.575653" y1="661.966431" x2="80.109673" y2="907.767639" gradientTransform="matrix(0.128773,0,0,0.128773,0.00000392983,-68.263684)">
<stop offset="0" style="stop-color:rgb(98.039216%,26.27451%,74.117647%);stop-opacity:1;"/>
<stop offset="1" style="stop-color:rgb(100%,66.27451%,18.823529%);stop-opacity:1;"/>
</linearGradient>
</defs>
<g id="surface1">
<path style=" stroke:none;fill-rule:nonzero;fill:url(#linear0);" d="M 40.308594 35.953125 L 63.230469 35.953125 C 64.109375 35.953125 64.289062 34.753906 63.488281 34.386719 L 40.3125 23.832031 L 40.3125 0.820312 C 40.3125 -0.0351562 39.164062 -0.320312 38.765625 0.441406 L 29.238281 18.789062 L 18.679688 13.9375 C 17.671875 13.53125 17.050781 14.351562 17.394531 15.058594 L 23.691406 28.046875 L 0.769531 28.046875 C -0.109375 28.046875 -0.289062 29.246094 0.511719 29.613281 L 23.6875 40.167969 L 23.6875 63.179688 C 23.6875 64.035156 24.835938 64.320312 25.234375 63.558594 L 34.761719 45.210938 L 45.320312 50.0625 C 46.328125 50.46875 46.949219 49.648438 46.605469 48.941406 Z M 40.308594 35.953125 "/>
</g>
</svg>
