<svg width="600" height="600" viewBox="0 0 600 600" fill="none" xmlns="http://www.w3.org/2000/svg">
<g clip-path="url(#clip0_11251_104255)">
<path d="M300 600C465.685 600 600 465.685 600 300C600 134.315 465.685 0 300 0C134.315 0 0 134.315 0 300C0 465.685 134.315 600 300 600Z" fill="url(#paint0_radial_11251_104255)"/>
<g clip-path="url(#clip1_11251_104255)">
<path d="M368.206 392.96C368.383 392.856 368.492 392.664 368.491 392.458L368.258 312.888L391.42 300.685L392.377 406.117L301.051 458.138L300.98 432.609L368.206 392.96Z" fill="white" stroke="white" stroke-width="0.1" stroke-miterlimit="10" stroke-linecap="round" stroke-linejoin="round"/>
<path d="M392.56 299.74C392.558 299.526 392.439 299.331 392.251 299.231L321.374 261.654L347.798 246.661L415.044 288.862L415.413 416.278L393.525 406.099L392.56 299.74Z" fill="white" stroke="white" stroke-width="0.1" stroke-miterlimit="10" stroke-linecap="round" stroke-linejoin="round"/>
<path d="M300.132 142.493L300.021 115.002L414.741 180.455L414.823 206.659L300.132 142.493Z" fill="white" stroke="white" stroke-width="0.1" stroke-miterlimit="10" stroke-linecap="round" stroke-linejoin="round"/>
<path d="M205.393 194.957C205.211 195.059 205.097 195.252 205.097 195.462L204.736 299.984L184.973 314.614L184.584 181.781L298.854 115.009L298.965 142.495L205.393 194.957Z" fill="white" stroke="white" stroke-width="0.1" stroke-miterlimit="10" stroke-linecap="round" stroke-linejoin="round"/>
<path d="M300.751 459.67L392.976 407.136L414.753 417.264L299.883 485.351L185.857 420.522L276.805 367.072C276.985 366.966 277.095 366.771 277.092 366.563C277.089 366.353 276.974 366.162 276.792 366.06L252.669 352.764L185.461 315.709L205.346 300.988L320.643 367.001L252.278 405.647L229.072 418.586C228.888 418.688 228.774 418.881 228.774 419.091C228.773 419.303 228.886 419.497 229.069 419.599L300.18 459.671C300.357 459.771 300.574 459.771 300.751 459.67Z" fill="white" stroke="white" stroke-width="0.1" stroke-miterlimit="10" stroke-linecap="round" stroke-linejoin="round"/>
<path d="M299.555 143.524L414.224 207.678L347.545 245.496L319.9 261.182C319.715 261.286 319.603 261.484 319.605 261.696C319.609 261.908 319.727 262.102 319.914 262.201L390.755 299.759L367.694 311.911L276.67 260.41L367.669 206.96C367.847 206.855 367.957 206.663 367.956 206.455C367.955 206.248 367.843 206.057 367.663 205.954L345.745 193.418L299.917 167.204C299.738 167.102 299.52 167.102 299.341 167.204L231.359 206.199L206.983 195.425L299.555 143.524Z" fill="white" stroke="white" stroke-width="0.1" stroke-miterlimit="10" stroke-linecap="round" stroke-linejoin="round"/>
<path d="M299.817 432.643L299.888 458.161L230.549 419.087L252.57 406.81L299.817 432.643Z" fill="white" stroke="white" stroke-width="0.1" stroke-miterlimit="10" stroke-linecap="round" stroke-linejoin="round"/>
<path d="M252.397 353.932L275.341 366.58L185.277 419.511L185.196 392.006L252.397 353.932Z" fill="white" stroke="white" stroke-width="0.1" stroke-miterlimit="10" stroke-linecap="round" stroke-linejoin="round"/>
<path d="M345.448 194.589L366.211 206.465L276.09 259.398L276.353 233.269L345.448 194.589Z" fill="white" stroke="white" stroke-width="0.1" stroke-miterlimit="10" stroke-linecap="round" stroke-linejoin="round"/>
<path d="M231.035 289.032C231.036 289.242 231.151 289.436 231.335 289.539L321.16 339.18L321.241 365.939L205.892 299.898L206.25 196.311L230.802 207.163L231.035 289.032Z" fill="white" stroke="white" stroke-width="0.1" stroke-miterlimit="10" stroke-linecap="round" stroke-linejoin="round"/>
</g>
</g>
<defs>
<radialGradient id="paint0_radial_11251_104255" cx="0" cy="0" r="1" gradientUnits="userSpaceOnUse" gradientTransform="translate(196 143.5) rotate(54.1675) scale(497.082)">
<stop stop-color="#626275"/>
<stop offset="1" stop-color="#161823"/>
</radialGradient>
<clipPath id="clip0_11251_104255">
<rect width="600" height="600" fill="white"/>
</clipPath>
<clipPath id="clip1_11251_104255">
<rect width="232" height="372" fill="white" transform="translate(184 114)"/>
</clipPath>
</defs>
</svg>
