<svg width="500" height="500" viewBox="0 0 500 500" fill="none" xmlns="http://www.w3.org/2000/svg">
<circle cx="250" cy="250" r="250" fill="url(#paint0_linear_5558_7449)"/>
<path fill-rule="evenodd" clip-rule="evenodd" d="M262.79 75.5891C262.567 75.5567 262.366 75.5346 262.195 75.5253C261.648 75.4954 259.573 75.406 257.674 75.3242C256.312 75.2655 255.039 75.2107 254.485 75.1844C250.953 75.0176 246.653 74.8948 241.54 75.1324C231.222 75.6119 218.334 77.5227 201.474 82.8457C156.726 96.9736 129.444 132.179 128.452 172.273C127.461 212.311 152.697 252.314 202.361 277.136C240.395 296.145 262.011 312.093 270.176 329.032C276.722 342.615 276.292 361.284 256.469 392.335C252.898 392.138 249.29 391.757 245.66 391.186C208.616 385.36 170.731 359.578 153.036 307.99L122 318.627C143.678 381.828 191.625 415.889 240.56 423.585C288.671 431.151 339.32 413.093 363.415 370.588C379.755 341.765 382.186 310.762 366.145 280.759C350.756 251.977 319.474 226.222 273.347 203.373C228.155 180.987 216.114 154.002 217.322 137.705C218.428 122.777 231.594 107.647 260.169 108.321C306.658 109.418 333.007 141.812 343.237 176.871L374.734 167.687C362.117 124.446 327.096 77.9647 262.79 75.5891ZM185.733 127.1C169.748 139.286 161.672 156.11 161.252 173.084C160.646 197.558 175.951 227.268 217.034 247.801C254.466 266.51 286.163 286.64 299.734 314.797C310.293 336.705 308.728 360.253 297.181 386.068C313.369 379.696 326.712 368.809 334.87 354.419C346.418 334.048 347.268 315.034 337.208 296.218C326.495 276.181 302.293 254.315 258.779 232.76C207.693 207.455 181.989 170.545 184.601 135.282C184.809 132.48 185.189 129.75 185.733 127.1Z" fill="white"/>
<defs>
<linearGradient id="paint0_linear_5558_7449" x1="250" y1="9.89437e-06" x2="250" y2="528" gradientUnits="userSpaceOnUse">
<stop stop-color="#5BC0A2"/>
<stop offset="1" stop-color="#B8DB94"/>
</linearGradient>
</defs>
</svg>
