<?xml version="1.0" encoding="utf-8"?>
<!-- Generator: Adobe Illustrator 26.0.0, SVG Export Plug-In . SVG Version: 6.00 Build 0)  -->
<svg version="1.1" id="Layer_1" xmlns="http://www.w3.org/2000/svg" xmlns:xlink="http://www.w3.org/1999/xlink" x="0px" y="0px"
	 viewBox="0 0 1000 1000" style="enable-background:new 0 0 1000 1000;" xml:space="preserve">
<style type="text/css">
	.st0{clip-path:url(#SVGID_00000142149705562143768610000001726553948363296148_);}
	.st1{clip-path:url(#SVGID_00000039829882990180396910000017569632986339111323_);}
	.st2{clip-path:url(#SVGID_00000129187247828731727470000015306541256561760410_);}
	.st3{clip-path:url(#SVGID_00000170967233520915666570000000953866511150222220_);}
	.st4{clip-path:url(#SVGID_00000173853567978027178910000005979451159738581672_);}
</style>
<g>
	<g>
		<defs>
			<path id="SVGID_1_" d="M500,0c276.1,0,500,223.9,500,500s-223.9,500-500,500S0,776.1,0,500S223.9,0,500,0L500,0z"/>
		</defs>
		<use xlink:href="#SVGID_1_"  style="overflow:visible;fill-rule:evenodd;clip-rule:evenodd;"/>
		<clipPath id="SVGID_00000036970530484265582710000001916133612014393226_">
			<use xlink:href="#SVGID_1_"  style="overflow:visible;"/>
		</clipPath>
	</g>
	<g>
		<defs>
			<path id="SVGID_00000086654664658218964840000009213594736698209434_" d="M727,465c13.1,3.7,66,29.7,66,84
				c-0.6,23-3.8,110.3-144,113v1v34h-48v-34h-36v34h-48v-34h-19h-13h-13h-27v-42h40V347h-40v-42h40h13h19v-36h48v36h36v-36h48v36.5
				c22.4,1.3,58.3,5.9,80,21.5c23.9,17.3,47.3,46.1,34,92C756.2,441.7,737.3,458.6,727,465L727,465z"/>
		</defs>
		<defs>
			<polygon id="SVGID_00000130613444212875306190000012817467684026444967_" points="330,445 405,445 405,520 330,520 330,445 			
				"/>
		</defs>
		<defs>
			<polygon id="SVGID_00000151514484847975394870000003331548779862232500_" points="330,595 255,595 255,520 330,520 330,595 			
				"/>
		</defs>
		<defs>
			<polygon id="SVGID_00000054224018642738849570000007078620574632120713_" points="180,520 180,445 255,445 255,520 180,520 			
				"/>
		</defs>
		<defs>
			<polygon id="SVGID_00000044178381749157508140000009541387398375981485_" points="255,370 330,370 330,445 255,445 255,370 			
				"/>
		</defs>
		
			<use xlink:href="#SVGID_00000086654664658218964840000009213594736698209434_"  style="overflow:visible;fill-rule:evenodd;clip-rule:evenodd;fill:#FAFCFB;"/>
		
			<use xlink:href="#SVGID_00000130613444212875306190000012817467684026444967_"  style="overflow:visible;fill-rule:evenodd;clip-rule:evenodd;fill:#FAFCFB;"/>
		
			<use xlink:href="#SVGID_00000151514484847975394870000003331548779862232500_"  style="overflow:visible;fill-rule:evenodd;clip-rule:evenodd;fill:#FAFCFB;"/>
		
			<use xlink:href="#SVGID_00000054224018642738849570000007078620574632120713_"  style="overflow:visible;fill-rule:evenodd;clip-rule:evenodd;fill:#FAFCFB;"/>
		
			<use xlink:href="#SVGID_00000044178381749157508140000009541387398375981485_"  style="overflow:visible;fill-rule:evenodd;clip-rule:evenodd;fill:#FAFCFB;"/>
		<clipPath id="SVGID_00000000189696832388684590000017040772336561021107_">
			<use xlink:href="#SVGID_00000086654664658218964840000009213594736698209434_"  style="overflow:visible;"/>
		</clipPath>
		
			<clipPath id="SVGID_00000102538644120168422220000017639924027871202191_" style="clip-path:url(#SVGID_00000000189696832388684590000017040772336561021107_);">
			<use xlink:href="#SVGID_00000130613444212875306190000012817467684026444967_"  style="overflow:visible;"/>
		</clipPath>
		
			<clipPath id="SVGID_00000142891251481412549200000002556710941510930850_" style="clip-path:url(#SVGID_00000102538644120168422220000017639924027871202191_);">
			<use xlink:href="#SVGID_00000151514484847975394870000003331548779862232500_"  style="overflow:visible;"/>
		</clipPath>
		
			<clipPath id="SVGID_00000026130967857568783390000002924239875478275214_" style="clip-path:url(#SVGID_00000142891251481412549200000002556710941510930850_);">
			<use xlink:href="#SVGID_00000054224018642738849570000007078620574632120713_"  style="overflow:visible;"/>
		</clipPath>
		
			<clipPath id="SVGID_00000182514041078083141610000009189173255864555911_" style="clip-path:url(#SVGID_00000026130967857568783390000002924239875478275214_);">
			<use xlink:href="#SVGID_00000044178381749157508140000009541387398375981485_"  style="overflow:visible;"/>
		</clipPath>
	</g>
	<g>
		<defs>
			<path id="SVGID_00000070801494498018556300000004364644795483191444_" d="M675.8,412.2c-2.2,12.8-8,29.7-36.8,36.8
				c-21.9,5.4-61.1,5-74,5v-95c0,0,54.8-2,80,7C663.3,373,677.4,383.6,675.8,412.2L675.8,412.2z"/>
		</defs>
		<defs>
			<path id="SVGID_00000183242150549504739680000003423892444050866572_" d="M640,604c-17,3.5-75,3-75,3V501c0,0,53.9-1,83,4
				c24.4,4.2,49.5,19.4,50,47C697.6,567.6,695.9,592.8,640,604L640,604z"/>
		</defs>
		<use xlink:href="#SVGID_00000070801494498018556300000004364644795483191444_"  style="overflow:visible;fill:#111111;"/>
		<use xlink:href="#SVGID_00000183242150549504739680000003423892444050866572_"  style="overflow:visible;fill:#111111;"/>
		<clipPath id="SVGID_00000003085445175407387440000016379959002214189745_">
			<use xlink:href="#SVGID_00000070801494498018556300000004364644795483191444_"  style="overflow:visible;"/>
		</clipPath>
		
			<clipPath id="SVGID_00000075161343423738001170000012516163666766620574_" style="clip-path:url(#SVGID_00000003085445175407387440000016379959002214189745_);">
			<use xlink:href="#SVGID_00000183242150549504739680000003423892444050866572_"  style="overflow:visible;"/>
		</clipPath>
	</g>
</g>
</svg>
