<svg width="500" height="500" viewBox="0 0 500 500" fill="none" xmlns="http://www.w3.org/2000/svg">
<path d="M250.114 9.45801H250.125C383.038 9.45801 490.785 117.205 490.785 250.119V250.128C490.785 383.042 383.038 490.789 250.125 490.789H250.114C117.202 490.789 9.4541 383.042 9.4541 250.128V250.119C9.4541 117.205 117.202 9.45801 250.114 9.45801Z" fill="#111111" stroke="#111111" stroke-width="7.05706"/>
<path d="M250.125 5.02515H250.115C114.754 5.02515 5.02148 114.757 5.02148 250.119V250.128C5.02148 385.49 114.754 495.221 250.115 495.221H250.125C385.485 495.221 495.218 385.49 495.218 250.128V250.119C495.218 114.757 385.485 5.02515 250.125 5.02515Z" fill="url(#paint0_radial_3236_156)" fill-opacity="0.7"/>
<path d="M250.125 5.02515H250.115C114.754 5.02515 5.02148 114.757 5.02148 250.119V250.128C5.02148 385.49 114.754 495.221 250.115 495.221H250.125C385.485 495.221 495.218 385.49 495.218 250.128V250.119C495.218 114.757 385.485 5.02515 250.125 5.02515Z" stroke="url(#paint1_linear_3236_156)" stroke-width="7.14639"/>
<path fill-rule="evenodd" clip-rule="evenodd" d="M178.712 57.4568C100.501 86.4112 44.7549 161.668 44.7549 249.947C44.7549 338.225 100.501 413.482 178.712 442.437V422.195C111.138 394.217 63.5991 327.634 63.5991 249.947C63.5991 172.26 111.138 105.676 178.712 77.6986V57.4568ZM321.19 77.7013V57.459C399.398 86.4152 455.141 161.671 455.141 249.947C455.141 338.222 399.398 413.479 321.19 442.435V422.192C388.761 394.214 436.297 327.632 436.297 249.947C436.297 172.263 388.761 105.68 321.19 77.7013Z" fill="white"/>
<path fill-rule="evenodd" clip-rule="evenodd" d="M249.959 77.6821L260.707 96.148L326.491 209.171H368.09V228.015H131.909V209.171H173.412L239.209 96.147L249.959 77.6821ZM249.957 127.127L297.711 209.171H202.194L249.957 127.127ZM326.608 289.573H368.09V270.729H131.909V289.573H173.295L239.209 402.798L249.959 421.263L260.707 402.796L326.608 289.573ZM297.828 289.573H202.078L249.957 371.818L297.828 289.573Z" fill="white"/>
<defs>
<radialGradient id="paint0_radial_3236_156" cx="0" cy="0" r="1" gradientUnits="userSpaceOnUse" gradientTransform="translate(250.646 76.6001) rotate(90) scale(516.774 363.756)">
<stop offset="0.03125" stop-color="#3A3A3A"/>
<stop offset="1" stop-color="#1C1C1C"/>
</radialGradient>
<linearGradient id="paint1_linear_3236_156" x1="250.12" y1="0.400607" x2="250.12" y2="499.847" gradientUnits="userSpaceOnUse">
<stop stop-color="white"/>
<stop offset="1" stop-color="#111111"/>
</linearGradient>
</defs>
</svg>
