<svg width="500" height="500" viewBox="0 0 500 500" fill="none" xmlns="http://www.w3.org/2000/svg">
<g clip-path="url(#clip0_3733_16649)">
<path d="M249.995 0H250.005C388.073 0 500 111.927 500 249.996V250.005C500 388.073 388.073 500 250.005 500H249.995C111.927 500 0 388.073 0 250.005V249.996C0 111.927 111.927 0 249.995 0Z" fill="#002956"/>
<path d="M217.157 388.5H158.22C153.64 388.5 150.749 383.575 152.981 379.576L166.278 355.753C169.811 349.423 176.492 345.5 183.742 345.5H200.76C209.539 345.5 217.617 340.707 221.824 333.002L335.676 124.498C339.883 116.793 347.961 112 356.74 112H391.226C394.27 112 396.199 115.266 394.728 117.932L259.188 363.682C250.744 378.992 234.642 388.5 217.157 388.5Z" fill="white"/>
<path d="M154.279 129.866L227.532 261.397C231.393 268.329 241.403 268.219 245.11 261.202L261.934 229.357C263.532 226.332 263.473 222.7 261.777 219.729L204.878 120.043C203.099 116.925 199.784 115 196.193 115H163.015C155.386 115 150.567 123.2 154.279 129.866Z" fill="#B3BECD"/>
</g>
<defs>
<clipPath id="clip0_3733_16649">
<rect width="500" height="500" fill="white"/>
</clipPath>
</defs>
</svg>
