<svg width="500" height="500" viewBox="0 0 500 500" fill="none" xmlns="http://www.w3.org/2000/svg">
<g clip-path="url(#clip0_3364_1285)">
<mask id="mask0_3364_1285" style="mask-type:luminance" maskUnits="userSpaceOnUse" x="0" y="0" width="500" height="500">
<path fill-rule="evenodd" clip-rule="evenodd" d="M0 0H500V500H0V0Z" fill="white"/>
</mask>
<g mask="url(#mask0_3364_1285)">
<path d="M250 500C388.071 500 500 388.071 500 250C500 111.929 388.071 0 250 0C111.929 0 0 111.929 0 250C0 388.071 111.929 500 250 500Z" fill="#565D6A"/>
<path fill-rule="evenodd" clip-rule="evenodd" d="M386.254 40.3942L341.586 217.343L336.516 215.129L376.922 36.9762C370.855 34.9684 364.641 33.5622 358.336 32.7379L350.465 21.0583C358.77 24.7145 366.961 28.8551 374.996 33.4958C378.832 35.7106 382.586 38.0114 386.254 40.3942ZM2.05078 246.597C3.34375 252.851 5.23828 258.937 7.67187 264.812L1.49609 277.464C0.507812 268.445 0 259.281 0 250C0 245.574 0.117188 241.172 0.34375 236.804L175.922 187.011L176.539 192.511L2.05078 246.597ZM363.395 472.808L232.488 345.648L236.941 342.363L371.023 466.433C375.793 462.183 380.117 457.504 383.988 452.457L398.035 451.48C390.715 456.843 383.035 461.867 374.996 466.507C371.164 468.718 367.293 470.82 363.395 472.808ZM165.469 213.222C114.602 232.922 63.7383 252.617 12.875 272.316C11.3047 269.675 9.87109 266.976 8.57031 264.23L164.27 207.937L165.469 213.222ZM186.422 174.324L2.01953 217.968C2.49609 214.254 3.05859 210.547 3.70703 206.843C64.6094 194.097 125.516 181.351 186.422 168.605V174.324ZM195.43 157.98C132.773 168.379 70.1172 178.773 7.46094 189.172C8.44531 185.261 9.52344 181.359 10.7031 177.476L196.098 152.043L195.43 157.98ZM203.797 143L16.3047 161.101C17.8555 157.043 19.5156 153.007 21.2891 149.004L205.191 136.859L203.797 143ZM211.684 129.035C150.625 130.707 89.5664 132.379 28.5117 134.05C30.1016 131.015 31.7617 128 33.4922 125.004C34.1211 123.918 34.7539 122.836 35.3945 121.761L213.879 122.722L211.684 129.035ZM219.227 115.824C160.813 113.336 102.395 110.847 43.9805 108.363C46.8555 104.175 49.8359 100.101 52.9219 96.1403L222.309 109.386L219.227 115.824ZM119.48 303.683L84.5352 326.882C81.9922 326.019 79.4883 325.101 77.0273 324.125L116.508 298.929L119.48 303.683ZM137.754 266.804L54.9687 313.293C52.5625 311.851 50.2148 310.351 47.9375 308.793L135.402 261.894L137.754 266.804ZM152.762 237.468L30.7891 294.839C28.6914 292.8 26.6836 290.703 24.7734 288.547L150.988 232.382L152.762 237.468ZM226.645 103.172C171.98 96.9137 117.32 90.6598 62.6563 84.402C66.2617 80.32 69.9844 76.3747 73.8125 72.57L230.902 96.7028C229.441 98.8122 228.023 100.968 226.645 103.172ZM234.953 91.0973L84.457 62.5973C88.8281 58.7419 93.3164 55.0544 97.9141 51.5348L240.066 84.652C238.32 86.7458 236.613 88.8942 234.953 91.0973ZM244.363 79.7145C199.301 67.6129 154.242 55.5075 109.18 43.402C109.445 43.2223 109.711 43.0426 109.977 42.8669C114.859 39.57 119.848 36.4606 124.93 33.5309L250.395 73.4059C248.34 75.4411 246.328 77.5426 244.363 79.7145ZM254.863 69.1481C215.41 55.1872 175.953 41.2262 136.496 27.2692C142.367 24.2848 148.348 21.5387 154.422 19.0309L261.871 63.0934C259.492 65.0309 257.156 67.0465 254.863 69.1481ZM266.445 59.5192L165.945 14.6012C172.48 12.2731 179.109 10.2145 185.813 8.43326L274.48 53.8708C271.762 55.652 269.078 57.5348 266.445 59.5192ZM279.09 50.9723C251.711 35.8981 224.332 20.82 196.953 5.74186C204.043 4.20279 211.203 2.96451 218.41 2.03873L288.219 45.9098C285.137 47.4762 282.094 49.1637 279.09 50.9723ZM292.805 43.6833L228.863 0.921544C236.363 0.277013 243.902 -0.0315812 251.457 0.00357507L303.086 39.4255C299.629 40.6911 296.199 42.113 292.805 43.6833ZM307.59 37.8669L260.957 0.226231C268.684 0.558263 276.418 1.24576 284.133 2.30436C295.789 13.1051 307.445 23.9059 319.102 34.7028C315.246 35.57 311.402 36.6247 307.59 37.8669ZM323.457 33.8122L292.465 3.58951C300.203 4.92154 307.91 6.62076 315.566 8.7067L336.258 32.1442C331.992 32.4606 327.719 33.0153 323.457 33.8122ZM340.398 31.9137L322.586 10.7262C330.074 13.0036 337.504 15.6481 344.848 18.6676L354.5 32.3044C349.836 31.8669 345.125 31.7419 340.398 31.9137ZM324.117 195.187C332.488 141.285 340.859 87.3864 349.234 33.488C352.305 33.4489 355.359 33.5544 358.391 33.8044L329.293 196.789L324.117 195.187ZM347.324 232.777L401.73 51.2653C404.707 53.5309 407.637 55.8708 410.52 58.2848C391.105 117.402 371.691 176.519 352.277 235.64L347.324 232.777ZM356.977 248.754C379.297 189.293 401.621 129.832 423.945 70.3747C426.844 73.1794 429.68 76.0622 432.453 79.027L361.785 252.3L356.977 248.754ZM365.766 263.488L443.832 92.0661C446.574 95.4372 449.238 98.8942 451.82 102.433L370.387 267.765L365.766 263.488ZM373.918 277.304C402.996 223.589 432.078 169.875 461.156 116.16C462.992 119.058 464.773 122.004 466.504 125C467.129 126.086 467.75 127.175 468.359 128.269L378.281 282.363L373.918 277.304ZM381.586 290.441C412.949 241.097 444.309 191.75 475.672 142.406C477.859 146.984 479.898 151.605 481.785 156.257L385.617 296.328L381.586 290.441ZM268.766 110.129L266.148 68.2653C268.168 66.4958 270.215 64.7848 272.289 63.1403L274.371 109.929L268.766 110.129ZM291.566 144.39L292.699 49.4567C295.152 48.0934 297.625 46.8122 300.113 45.613L296.996 144.808L291.566 144.39ZM309.473 172.058L320.77 37.7419C323.586 36.9411 326.406 36.2536 329.23 35.6755L314.762 173.066L309.473 172.058ZM388.836 303.191C421.582 258.98 454.332 214.769 487.082 170.558C488.816 175.722 490.371 180.918 491.75 186.136L392.309 310.113C391.211 307.793 390.051 305.484 388.836 303.191ZM395.137 316.422L495.063 200.34C496.219 206.054 497.168 211.785 497.918 217.523L398.16 324.074C397.223 321.515 396.215 318.964 395.137 316.422ZM400.289 330.261C433.301 297.293 466.313 264.32 499.324 231.347C499.348 231.668 499.371 231.988 499.395 232.304C499.805 238.183 500.004 244.058 500 249.925L402.738 338.644C402 335.847 401.184 333.05 400.289 330.261ZM404.191 344.64C436.008 317.453 467.824 290.261 499.641 263.074C499.289 269.652 498.68 276.203 497.813 282.714L405.926 353.738C405.441 350.711 404.863 347.675 404.191 344.64ZM406.738 359.484L495.887 294.91C494.637 301.734 493.102 308.504 491.293 315.199L407.609 369.269C407.426 366.023 407.137 362.757 406.738 359.484ZM407.813 374.711C434.563 358.539 461.309 342.363 488.055 326.191C485.844 333.105 483.336 339.922 480.531 346.629L407.637 385.148C407.82 381.699 407.883 378.215 407.813 374.711ZM407.27 390.23L476.273 356.238C473.086 363.054 469.582 369.738 465.773 376.265L405.816 401.265C406.449 397.636 406.934 393.957 407.27 390.23ZM404.914 405.941L460.828 384.379C456.68 390.906 452.215 397.257 447.445 403.41C432.262 408.105 417.082 412.8 401.898 417.496C403.078 413.722 404.086 409.867 404.914 405.941ZM400.496 421.711L442.164 409.984C437.145 416.019 431.812 421.843 426.184 427.433L395.539 433.632C397.398 429.781 399.051 425.8 400.496 421.711ZM393.664 437.336L420.922 432.5C415.207 437.847 409.203 442.961 402.914 447.812L386.277 449.351C388.988 445.531 391.453 441.515 393.664 437.336ZM260.41 341.597C302.902 375.797 345.395 409.996 387.887 444.199C386.383 446.879 384.766 449.468 383.031 451.968L256.434 345.277L260.41 341.597ZM216.25 342.898L346.246 480.773C342.793 482.215 339.301 483.586 335.77 484.875C294.277 438.504 252.789 392.132 211.297 345.757L216.25 342.898ZM197.59 343.269C237.922 392.332 278.254 441.394 318.586 490.457C314.707 491.562 310.793 492.578 306.84 493.5L192.113 345.66L197.59 343.269ZM180.434 343.515L289.855 496.836C285.566 497.523 281.242 498.101 276.883 498.57L174.418 345.379L180.434 343.515ZM164.395 343.668C196.371 395.707 228.348 447.75 260.328 499.789C256.902 499.929 253.461 500 250 500C248.746 500 247.492 499.992 246.242 499.972L157.832 344.918L164.395 343.668ZM149.18 343.738C176.234 395.57 203.289 447.406 230.344 499.238C225.281 498.843 220.262 498.297 215.289 497.605L142.066 344.285L149.18 343.738ZM361.75 336.191L399.309 354.855C399.836 357.488 400.289 360.117 400.68 362.738L359.117 341.144L361.75 336.191ZM320.676 338.804L402.324 387.254C402.281 390.058 402.152 392.843 401.945 395.597L317.598 343.297L320.676 338.804ZM287.762 340.48L398.434 417.422C397.719 420.261 396.902 423.047 395.992 425.781L284.246 344.554L287.762 340.48ZM134.516 343.64C156.43 394.109 178.344 444.574 200.254 495.043C194.918 493.961 189.641 492.711 184.434 491.297L126.785 343.187C129.344 343.398 131.922 343.55 134.516 343.64ZM119.906 342.484L170.473 487.066C164.949 485.211 159.508 483.168 154.164 480.945L111.766 341.277C114.453 341.742 117.168 342.148 119.906 342.484ZM105.344 340.023C117.391 385.101 129.441 430.175 141.488 475.25C141.199 475.113 140.91 474.972 140.625 474.832C135.332 472.25 130.141 469.484 125.062 466.547L96.8633 337.953C99.6523 338.718 102.48 339.406 105.344 340.023ZM90.9414 336.214C98.5781 377.363 106.219 418.511 113.855 459.664C108.336 456.07 102.965 452.265 97.7578 448.257L82.1953 333.172C85.0625 334.265 87.9766 335.281 90.9414 336.214ZM76.8125 331L88.1641 440.492C82.8789 435.996 77.7813 431.285 72.8867 426.371L67.9023 326.863C70.8047 328.328 73.7773 329.711 76.8125 331ZM63.0898 324.32C63.7227 355.57 64.3555 386.82 64.9883 418.066C60.1055 412.699 55.457 407.117 51.0508 401.336L54.1406 318.945C57.0352 320.832 60.0195 322.625 63.0898 324.32ZM49.9219 316.089L44.8555 392.843C40.5469 386.672 36.5117 380.297 32.7617 373.738L41.0898 309.312C43.9141 311.672 46.8633 313.933 49.9219 316.089ZM37.4883 306.195L28.207 365.398C24.6289 358.543 21.3594 351.5 18.418 344.289C21.9453 328.793 25.4687 313.3 28.9961 297.804C31.6719 300.711 34.5078 303.511 37.4883 306.195ZM26.043 294.48L15.3672 336.429C12.6484 329.066 10.2695 321.539 8.24609 313.867L18.1992 284.226C20.6016 287.761 23.2227 291.183 26.043 294.48ZM15.9297 280.754L6.48828 306.777C4.71484 299.152 3.28906 291.398 2.23438 283.523L9.21484 268.347C11.1719 272.605 13.4141 276.75 15.9297 280.754Z" fill="url(#paint0_radial_3364_1285)"/>
<path d="M108.488 298.344C101.715 298.344 96.5352 297.016 92.8164 294.492C88.9648 291.969 86.3086 289.047 84.582 285.727H82.7227V296.484H72.4961V203.516H82.9883V241.766H84.8477C85.9102 239.773 87.3711 237.781 89.3633 236.055C91.3555 234.195 93.8789 232.734 97.0664 231.539C100.121 230.211 103.973 229.68 108.488 229.68C114.199 229.68 119.246 231.008 123.895 233.664C128.676 236.453 132.262 240.305 135.051 245.219C137.84 250.266 139.168 256.242 139.168 263.148V264.875C139.168 271.781 137.707 277.758 134.918 282.805C132.262 287.852 128.543 291.703 123.762 294.359C119.246 297.016 114.066 298.344 108.488 298.344ZM105.699 289.047C112.473 289.047 117.918 286.922 122.168 282.539C126.285 278.289 128.41 272.312 128.41 264.609V263.414C128.41 255.711 126.285 249.734 122.168 245.352C117.918 241.102 112.473 238.977 105.699 238.977C99.0586 238.977 93.6133 241.102 89.2305 245.352C84.9805 249.734 82.8555 255.711 82.8555 263.414V264.609C82.8555 272.312 84.9805 278.289 89.2305 282.539C93.6133 286.922 99.0586 289.047 105.699 289.047Z" fill="white"/>
<path d="M191.098 298.344C179.543 298.344 170.512 295.156 163.738 288.648C156.965 282.273 153.645 273.109 153.645 261.156V238.844C153.645 226.891 156.965 217.727 163.738 211.352C170.512 204.844 179.543 201.656 191.098 201.656C202.52 201.656 211.285 204.711 217.527 211.086C223.77 217.195 226.957 225.828 226.957 236.719V237.516H209.691V236.187C209.691 230.742 208.098 226.227 205.043 222.641C201.988 219.055 197.34 217.328 191.098 217.328C184.855 217.328 180.074 219.188 176.488 223.039C172.902 226.891 171.176 232.07 171.176 238.578V261.422C171.176 267.93 172.902 273.109 176.488 276.961C180.074 280.812 184.855 282.672 191.098 282.672C197.34 282.672 201.988 280.945 205.043 277.359C208.098 273.773 209.691 269.258 209.691 263.812V261.422H226.957V263.281C226.957 274.172 223.77 282.805 217.527 289.047C211.285 295.156 202.52 298.344 191.098 298.344Z" fill="white"/>
<path d="M272.91 298.344C265.871 298.344 259.762 297.148 254.316 294.625C248.871 292.102 244.754 288.516 241.699 283.867C238.645 279.352 237.051 273.773 237.051 267.398V265.008H254.051V266.867C254.051 271.781 255.777 275.766 259.23 278.687C262.684 281.742 267.199 283.203 272.91 283.203C278.621 283.203 283.137 281.875 286.324 279.086C289.379 276.297 290.973 272.844 290.973 268.727V267.398C290.973 264.609 290.309 262.219 288.848 260.492C287.387 258.766 285.527 257.437 283.137 256.508C280.746 255.711 278.09 255.312 275.035 255.312H256.441V236.719L286.457 220.781V218.656H239.441V203.516H305.316V226.094L277.293 240.969V243.094H282.207C286.324 243.094 290.441 243.891 294.293 245.617C298.277 247.344 301.598 249.867 304.121 253.32C306.645 256.906 307.973 261.422 307.973 267V268.594C307.973 274.57 306.512 279.883 303.59 284.266C300.668 288.781 296.551 292.234 291.238 294.625C286.059 297.148 279.949 298.344 272.91 298.344Z" fill="white"/>
<path d="M322.049 296.484V203.516H354.588L370.658 284.531H373.049L389.119 203.516H421.658V296.484H404.658V216.398H402.268L386.33 296.484H357.377L341.439 216.398H339.049V296.484H322.049Z" fill="white"/>
</g>
</g>
<defs>
<radialGradient id="paint0_radial_3364_1285" cx="0" cy="0" r="1" gradientUnits="userSpaceOnUse" gradientTransform="translate(250 250) scale(250 250)">
<stop stop-color="#1C1F26" stop-opacity="0"/>
<stop offset="0.48" stop-color="#1C1F26" stop-opacity="0.27"/>
<stop offset="1" stop-color="#1C1F26"/>
</radialGradient>
<clipPath id="clip0_3364_1285">
<rect width="500" height="500" fill="white"/>
</clipPath>
</defs>
</svg>
