<svg width="500" height="500" viewBox="0 0 500 500" fill="none" xmlns="http://www.w3.org/2000/svg">
<g clip-path="url(#clip0_3364_1271)">
<mask id="mask0_3364_1271" style="mask-type:luminance" maskUnits="userSpaceOnUse" x="0" y="0" width="500" height="500">
<path fill-rule="evenodd" clip-rule="evenodd" d="M0 0H500V500H0V0Z" fill="white"/>
</mask>
<g mask="url(#mask0_3364_1271)">
<path d="M250 500C388.071 500 500 388.071 500 250C500 111.929 388.071 0 250 0C111.929 0 0 111.929 0 250C0 388.071 111.929 500 250 500Z" fill="#565D6A"/>
<path fill-rule="evenodd" clip-rule="evenodd" d="M386.254 40.3945L341.586 217.344L336.516 215.129L376.922 36.9765C370.855 34.9687 364.641 33.5625 358.336 32.7382L350.465 21.0585C358.77 24.7148 366.961 28.8554 374.996 33.496C378.832 35.7109 382.586 38.0117 386.254 40.3945ZM2.05078 246.598C3.34375 252.852 5.23828 258.937 7.67187 264.812L1.49609 277.465C0.507812 268.445 0 259.281 0 250C0 245.574 0.117188 241.172 0.34375 236.805L175.922 187.012L176.539 192.512L2.05078 246.598ZM363.395 472.809L232.488 345.648L236.941 342.363L371.023 466.434C375.793 462.184 380.117 457.504 383.988 452.457L398.035 451.48C390.715 456.844 383.035 461.867 374.996 466.508C371.164 468.719 367.293 470.82 363.395 472.809ZM165.469 213.223C114.602 232.922 63.7383 252.617 12.875 272.316C11.3047 269.676 9.87109 266.976 8.57031 264.23L164.27 207.937L165.469 213.223ZM186.422 174.324L2.01953 217.969C2.49609 214.254 3.05859 210.547 3.70703 206.844C64.6094 194.098 125.516 181.352 186.422 168.605V174.324ZM195.43 157.98C132.773 168.379 70.1172 178.773 7.46094 189.172C8.44531 185.262 9.52344 181.359 10.7031 177.477L196.098 152.043L195.43 157.98ZM203.797 143L16.3047 161.102C17.8555 157.043 19.5156 153.008 21.2891 149.004L205.191 136.859L203.797 143ZM211.684 129.035C150.625 130.707 89.5664 132.379 28.5117 134.051C30.1016 131.016 31.7617 128 33.4922 125.004C34.1211 123.918 34.7539 122.836 35.3945 121.762L213.879 122.723L211.684 129.035ZM219.227 115.824C160.813 113.336 102.395 110.848 43.9805 108.363C46.8555 104.176 49.8359 100.102 52.9219 96.1406L222.309 109.387L219.227 115.824ZM119.48 303.684L84.5352 326.883C81.9922 326.019 79.4883 325.101 77.0273 324.125L116.508 298.93L119.48 303.684ZM137.754 266.805L54.9687 313.293C52.5625 311.852 50.2148 310.352 47.9375 308.793L135.402 261.894L137.754 266.805ZM152.762 237.469L30.7891 294.84C28.6914 292.801 26.6836 290.703 24.7734 288.547L150.988 232.383L152.762 237.469ZM226.645 103.172C171.98 96.914 117.32 90.6601 62.6563 84.4023C66.2617 80.3203 69.9844 76.3749 73.8125 72.5703L230.902 96.7031C229.441 98.8125 228.023 100.969 226.645 103.172ZM234.953 91.0976L84.457 62.5976C88.8281 58.7421 93.3164 55.0546 97.9141 51.5351L240.066 84.6523C238.32 86.746 236.613 88.8945 234.953 91.0976ZM244.363 79.7148C199.301 67.6132 154.242 55.5078 109.18 43.4023C109.445 43.2226 109.711 43.0429 109.977 42.8671C114.859 39.5703 119.848 36.4609 124.93 33.5312L250.395 73.4062C248.34 75.4414 246.328 77.5429 244.363 79.7148ZM254.863 69.1484C215.41 55.1875 175.953 41.2265 136.496 27.2695C142.367 24.2851 148.348 21.539 154.422 19.0312L261.871 63.0937C259.492 65.0312 257.156 67.0468 254.863 69.1484ZM266.445 59.5195L165.945 14.6015C172.48 12.2734 179.109 10.2148 185.813 8.43354L274.48 53.871C271.762 55.6523 269.078 57.5351 266.445 59.5195ZM279.09 50.9726C251.711 35.8984 224.332 20.8203 196.953 5.74214C204.043 4.20308 211.203 2.96479 218.41 2.03901L288.219 45.9101C285.137 47.4765 282.094 49.164 279.09 50.9726ZM292.805 43.6835L228.863 0.921826C236.363 0.277295 243.902 -0.0312989 251.457 0.00385736L303.086 39.4257C299.629 40.6914 296.199 42.1132 292.805 43.6835ZM307.59 37.8671L260.957 0.226514C268.684 0.558545 276.418 1.24604 284.133 2.30464C295.789 13.1054 307.445 23.9062 319.102 34.7031C315.246 35.5703 311.402 36.625 307.59 37.8671ZM323.457 33.8125L292.465 3.58979C300.203 4.92183 307.91 6.62104 315.566 8.70698L336.258 32.1445C331.992 32.4609 327.719 33.0156 323.457 33.8125ZM340.398 31.914L322.586 10.7265C330.074 13.0039 337.504 15.6484 344.848 18.6679L354.5 32.3046C349.836 31.8671 345.125 31.7421 340.398 31.914ZM324.117 195.187C332.488 141.285 340.859 87.3867 349.234 33.4882C352.305 33.4492 355.359 33.5546 358.391 33.8046L329.293 196.789L324.117 195.187ZM347.324 232.777L401.73 51.2656C404.707 53.5312 407.637 55.871 410.52 58.2851C391.105 117.402 371.691 176.519 352.277 235.641L347.324 232.777ZM356.977 248.754C379.297 189.293 401.621 129.832 423.945 70.375C426.844 73.1796 429.68 76.0625 432.453 79.0273L361.785 252.301L356.977 248.754ZM365.766 263.488L443.832 92.0664C446.574 95.4375 449.238 98.8945 451.82 102.434L370.387 267.766L365.766 263.488ZM373.918 277.305C402.996 223.59 432.078 169.875 461.156 116.16C462.992 119.059 464.773 122.004 466.504 125C467.129 126.086 467.75 127.176 468.359 128.269L378.281 282.363L373.918 277.305ZM381.586 290.441C412.949 241.098 444.309 191.75 475.672 142.406C477.859 146.984 479.898 151.605 481.785 156.258L385.617 296.328L381.586 290.441ZM268.766 110.129L266.148 68.2656C268.168 66.496 270.215 64.7851 272.289 63.1406L274.371 109.93L268.766 110.129ZM291.566 144.391L292.699 49.457C295.152 48.0937 297.625 46.8125 300.113 45.6132L296.996 144.809L291.566 144.391ZM309.473 172.059L320.77 37.7421C323.586 36.9414 326.406 36.2539 329.23 35.6757L314.762 173.066L309.473 172.059ZM388.836 303.191C421.582 258.98 454.332 214.769 487.082 170.559C488.816 175.723 490.371 180.918 491.75 186.137L392.309 310.113C391.211 307.793 390.051 305.484 388.836 303.191ZM395.137 316.422L495.063 200.34C496.219 206.055 497.168 211.785 497.918 217.523L398.16 324.074C397.223 321.516 396.215 318.965 395.137 316.422ZM400.289 330.262C433.301 297.293 466.313 264.32 499.324 231.348C499.348 231.668 499.371 231.988 499.395 232.305C499.805 238.184 500.004 244.059 500 249.926L402.738 338.644C402 335.848 401.184 333.051 400.289 330.262ZM404.191 344.641C436.008 317.453 467.824 290.262 499.641 263.074C499.289 269.652 498.68 276.203 497.813 282.715L405.926 353.738C405.441 350.711 404.863 347.676 404.191 344.641ZM406.738 359.484L495.887 294.91C494.637 301.734 493.102 308.504 491.293 315.199L407.609 369.269C407.426 366.023 407.137 362.758 406.738 359.484ZM407.813 374.711C434.563 358.539 461.309 342.363 488.055 326.191C485.844 333.105 483.336 339.922 480.531 346.629L407.637 385.148C407.82 381.699 407.883 378.215 407.813 374.711ZM407.27 390.23L476.273 356.238C473.086 363.055 469.582 369.738 465.773 376.266L405.816 401.266C406.449 397.637 406.934 393.957 407.27 390.23ZM404.914 405.941L460.828 384.379C456.68 390.906 452.215 397.258 447.445 403.41C432.262 408.105 417.082 412.801 401.898 417.496C403.078 413.723 404.086 409.867 404.914 405.941ZM400.496 421.711L442.164 409.984C437.145 416.019 431.812 421.844 426.184 427.434L395.539 433.633C397.398 429.781 399.051 425.801 400.496 421.711ZM393.664 437.336L420.922 432.5C415.207 437.848 409.203 442.961 402.914 447.812L386.277 449.351C388.988 445.531 391.453 441.516 393.664 437.336ZM260.41 341.598C302.902 375.797 345.395 409.996 387.887 444.199C386.383 446.879 384.766 449.469 383.031 451.969L256.434 345.277L260.41 341.598ZM216.25 342.898L346.246 480.773C342.793 482.215 339.301 483.586 335.77 484.875C294.277 438.504 252.789 392.133 211.297 345.758L216.25 342.898ZM197.59 343.269C237.922 392.332 278.254 441.394 318.586 490.457C314.707 491.562 310.793 492.578 306.84 493.5L192.113 345.66L197.59 343.269ZM180.434 343.516L289.855 496.836C285.566 497.523 281.242 498.102 276.883 498.57L174.418 345.379L180.434 343.516ZM164.395 343.668C196.371 395.707 228.348 447.75 260.328 499.789C256.902 499.93 253.461 500 250 500C248.746 500 247.492 499.992 246.242 499.973L157.832 344.918L164.395 343.668ZM149.18 343.738C176.234 395.57 203.289 447.406 230.344 499.238C225.281 498.844 220.262 498.297 215.289 497.605L142.066 344.285L149.18 343.738ZM361.75 336.191L399.309 354.855C399.836 357.488 400.289 360.117 400.68 362.738L359.117 341.144L361.75 336.191ZM320.676 338.805L402.324 387.254C402.281 390.059 402.152 392.844 401.945 395.598L317.598 343.297L320.676 338.805ZM287.762 340.48L398.434 417.422C397.719 420.262 396.902 423.047 395.992 425.781L284.246 344.555L287.762 340.48ZM134.516 343.641C156.43 394.109 178.344 444.574 200.254 495.043C194.918 493.961 189.641 492.711 184.434 491.297L126.785 343.187C129.344 343.398 131.922 343.551 134.516 343.641ZM119.906 342.484L170.473 487.066C164.949 485.211 159.508 483.168 154.164 480.945L111.766 341.277C114.453 341.742 117.168 342.148 119.906 342.484ZM105.344 340.023C117.391 385.101 129.441 430.176 141.488 475.25C141.199 475.113 140.91 474.973 140.625 474.832C135.332 472.25 130.141 469.484 125.062 466.547L96.8633 337.953C99.6523 338.719 102.48 339.406 105.344 340.023ZM90.9414 336.215C98.5781 377.363 106.219 418.512 113.855 459.664C108.336 456.07 102.965 452.266 97.7578 448.258L82.1953 333.172C85.0625 334.266 87.9766 335.281 90.9414 336.215ZM76.8125 331L88.1641 440.492C82.8789 435.996 77.7813 431.285 72.8867 426.371L67.9023 326.863C70.8047 328.328 73.7773 329.711 76.8125 331ZM63.0898 324.32C63.7227 355.57 64.3555 386.82 64.9883 418.066C60.1055 412.699 55.457 407.117 51.0508 401.336L54.1406 318.945C57.0352 320.832 60.0195 322.625 63.0898 324.32ZM49.9219 316.09L44.8555 392.844C40.5469 386.672 36.5117 380.297 32.7617 373.738L41.0898 309.312C43.9141 311.672 46.8633 313.934 49.9219 316.09ZM37.4883 306.195L28.207 365.398C24.6289 358.543 21.3594 351.5 18.418 344.289C21.9453 328.793 25.4687 313.301 28.9961 297.805C31.6719 300.711 34.5078 303.512 37.4883 306.195ZM26.043 294.48L15.3672 336.43C12.6484 329.066 10.2695 321.539 8.24609 313.867L18.1992 284.227C20.6016 287.762 23.2227 291.184 26.043 294.48ZM15.9297 280.754L6.48828 306.777C4.71484 299.152 3.28906 291.398 2.23438 283.523L9.21484 268.348C11.1719 272.605 13.4141 276.75 15.9297 280.754Z" fill="url(#paint0_radial_3364_1271)"/>
<path d="M115.527 298.344C108.754 298.344 103.574 297.016 99.8555 294.492C96.0039 291.969 93.3477 289.047 91.6211 285.727H89.7617V296.484H79.5352V203.516H90.0273V241.766H91.8867C92.9492 239.773 94.4102 237.781 96.4023 236.055C98.3945 234.195 100.918 232.734 104.105 231.539C107.16 230.211 111.012 229.68 115.527 229.68C121.238 229.68 126.285 231.008 130.934 233.664C135.715 236.453 139.301 240.305 142.09 245.219C144.879 250.266 146.207 256.242 146.207 263.148V264.875C146.207 271.781 144.746 277.758 141.957 282.805C139.301 287.852 135.582 291.703 130.801 294.359C126.285 297.016 121.105 298.344 115.527 298.344ZM112.738 289.047C119.512 289.047 124.957 286.922 129.207 282.539C133.324 278.289 135.449 272.312 135.449 264.609V263.414C135.449 255.711 133.324 249.734 129.207 245.352C124.957 241.102 119.512 238.977 112.738 238.977C106.098 238.977 100.652 241.102 96.2695 245.352C92.0195 249.734 89.8945 255.711 89.8945 263.414V264.609C89.8945 272.312 92.0195 278.289 96.2695 282.539C100.652 286.922 106.098 289.047 112.738 289.047Z" fill="white"/>
<path d="M162.809 203.516H180.34V296.484H162.809V203.516Z" fill="white"/>
<path d="M195.215 296.484V281.078H207.434V218.922H195.215V203.516H243.027C248.738 203.516 253.652 204.445 257.77 206.438C262.02 208.297 265.34 210.953 267.73 214.539C269.988 217.992 271.184 222.109 271.184 227.023V228.352C271.184 232.602 270.387 236.055 268.793 238.844C267.199 241.5 265.34 243.492 263.215 244.953C260.957 246.547 258.965 247.477 256.973 248.141V250.531C258.965 251.062 261.09 251.992 263.348 253.453C265.605 254.914 267.598 257.039 269.324 259.828C270.918 262.617 271.715 266.203 271.715 270.586V271.914C271.715 277.094 270.52 281.477 268.129 285.062C265.738 288.781 262.418 291.57 258.168 293.562C254.051 295.555 249.137 296.484 243.559 296.484H195.215ZM224.965 280.547H241.434C245.285 280.547 248.34 279.617 250.73 277.758C252.988 275.898 254.184 273.242 254.184 269.789V268.461C254.184 265.008 252.988 262.352 250.73 260.492C248.473 258.633 245.285 257.703 241.434 257.703H224.965V280.547ZM224.965 241.766H241.168C244.754 241.766 247.809 240.836 250.199 238.977C252.457 237.117 253.652 234.594 253.652 231.273V229.945C253.652 226.625 252.457 223.969 250.199 222.109C247.941 220.383 244.887 219.453 241.168 219.453H224.965V241.766Z" fill="white"/>
<path d="M320.324 298.344C309.301 298.344 300.535 295.289 293.895 289.18C287.254 283.203 283.934 274.039 283.934 261.687V238.312C283.934 226.359 287.254 217.195 293.895 211.086C300.535 204.844 309.301 201.656 320.324 201.656C331.348 201.656 340.246 204.711 346.754 211.086C353.395 217.195 356.715 226.359 356.715 238.312V261.687C356.715 274.039 353.395 283.203 346.754 289.312C340.246 295.289 331.348 298.344 320.324 298.344ZM320.324 283.203C326.965 283.203 331.879 281.344 334.934 277.758C338.121 274.172 339.715 268.992 339.715 262.219V237.516C339.715 230.742 337.988 225.562 334.535 222.109C330.949 218.523 326.301 216.797 320.324 216.797C314.215 216.797 309.434 218.656 305.98 222.242C302.66 225.828 300.934 231.008 300.934 237.516V262.219C300.934 269.258 302.527 274.437 305.715 278.023C309.035 281.477 313.816 283.203 320.324 283.203Z" fill="white"/>
<path d="M397.619 296.484V216H395.229L382.744 245.484H364.947L383.939 203.516H414.619V296.484H397.619Z" fill="white"/>
</g>
</g>
<defs>
<radialGradient id="paint0_radial_3364_1271" cx="0" cy="0" r="1" gradientUnits="userSpaceOnUse" gradientTransform="translate(250 250) scale(250 250)">
<stop stop-color="#1C1F26" stop-opacity="0"/>
<stop offset="0.48" stop-color="#1C1F26" stop-opacity="0.27"/>
<stop offset="1" stop-color="#1C1F26"/>
</radialGradient>
<clipPath id="clip0_3364_1271">
<rect width="500" height="500" fill="white"/>
</clipPath>
</defs>
</svg>
