<svg width="130" height="130" viewBox="0 0 130 130" fill="none" xmlns="http://www.w3.org/2000/svg">
<rect width="130" height="130" rx="65" fill="#0E0B31"/>
<path d="M65 128C30.2061 128 2 99.7939 2 65C2 30.2061 30.2061 2 65 2C99.7939 2 128 30.2061 128 65C128 99.7939 99.7939 128 65 128Z" stroke="url(#paint0_linear_12054_30464)" stroke-width="4"/>
<path fill-rule="evenodd" clip-rule="evenodd" d="M64.4172 26.1811L41.5659 41.1294C41.2129 41.3602 41 41.7556 41 42.1798V65.1226C41 65.5524 41.258 65.9217 41.6263 66.0814C41.6569 66.1022 41.6886 66.122 41.7217 66.1404L64.3983 78.8113C64.7726 79.0203 65.2274 79.0203 65.6017 78.8113L88.2783 66.1404C88.3114 66.122 88.3431 66.1022 88.3737 66.0814C88.742 65.9217 89 65.5524 89 65.1226V42.1798C89 41.7556 88.7871 41.3602 88.4341 41.1294L65.5828 26.1811C65.535 26.1483 65.485 26.1198 65.433 26.0958C65.1641 25.9711 64.8473 25.9651 64.567 26.0958C64.5227 26.1164 64.4792 26.1405 64.437 26.1681L64.4172 26.1811ZM86.931 61.3996V43.6487L79.0576 48.3446L86.931 61.3996ZM68.2383 30.4053L85.8047 41.8964L77.9823 46.5617L68.2383 30.4053ZM44.1461 41.9285L61.7617 30.4053L51.9903 46.6072L44.1461 41.9285ZM43.069 43.7102V61.3996L50.9151 48.3899L43.069 43.7102ZM65 29.051L54.2391 46.8937L43.4782 64.7364L65 76.7619L86.5218 64.7364L65 29.051ZM45.1882 74.2259L64.9499 101.242L84.8151 74.3836L65.5421 85.0122C65.1676 85.2188 64.7141 85.2169 64.3414 85.007L45.1882 74.2259ZM42.5008 70.3852C42.6186 70.4117 42.7379 70.457 42.8565 70.5238L64.9506 82.9603L87.1514 70.717C87.2364 70.67 87.3219 70.6342 87.4067 70.6081C87.5679 70.5035 87.7597 70.4428 87.9655 70.4428C88.5368 70.4428 89 70.91 89 71.4861V88.5833C89 89.0183 88.7759 89.4223 88.4085 89.6499L65.546 103.815C65.1483 104.061 64.6474 104.062 64.2492 103.816L41.5942 89.86C41.2251 89.6326 41 89.2278 41 88.7915V71.3167C41 70.7404 41.4632 70.2734 42.0345 70.2734C42.2023 70.2734 42.3608 70.3137 42.5008 70.3852ZM50.3459 84.7917L61.0175 99.3804L43.8705 88.8172L50.3459 84.7917ZM49.1134 83.1068L43.069 74.8435V86.8644L49.1134 83.1068ZM69.0409 99.2006L85.965 88.715L79.6843 84.8104L69.0409 99.2006ZM86.931 75.0125V86.8644L80.9261 83.1314L86.931 75.0125Z" fill="#B6FF3E"/>
<defs>
<linearGradient id="paint0_linear_12054_30464" x1="65" y1="0" x2="65" y2="130" gradientUnits="userSpaceOnUse">
<stop stop-color="#B45BFA"/>
<stop offset="1" stop-color="#29BCFA"/>
</linearGradient>
</defs>
</svg>
