<?xml version="1.0" encoding="utf-8"?>
<!-- Generator: Adobe Illustrator 26.0.0, SVG Export Plug-In . SVG Version: 6.00 Build 0)  -->
<svg version="1.1" id="Layer_1" xmlns="http://www.w3.org/2000/svg" xmlns:xlink="http://www.w3.org/1999/xlink" x="0px" y="0px"
	 viewBox="0 0 500 500" style="enable-background:new 0 0 500 500;" xml:space="preserve">
<style type="text/css">
	.st0{fill:#0074F0;}
	.st1{fill:#3390F3;}
	.st2{fill:#FFFFFF;}
	.st3{fill:#E5F1FE;}
	.st4{fill-rule:evenodd;clip-rule:evenodd;fill:url(#SVGID_1_);}
	.st5{fill-rule:evenodd;clip-rule:evenodd;fill:#FFFFFF;}
	.st6{fill:#CDE4FD;}
</style>
<path class="st0" d="M250,500c138.1,0,250-111.9,250-250S388.1,0,250,0S0,111.9,0,250S111.9,500,250,500z"/>
<path class="st1" d="M405.6,405.6c20.4-20.4,36.6-44.7,47.7-71.4c11.1-26.7,16.7-55.3,16.7-84.2s-5.7-57.5-16.7-84.2
	c-11.1-26.7-27.3-50.9-47.7-71.4c-20.4-20.4-44.7-36.6-71.4-47.7C307.5,35.7,278.9,30,250,30s-57.5,5.7-84.2,16.7
	C139.1,57.8,114.9,74,94.4,94.4L250,250L405.6,405.6z"/>
<path class="st2" d="M250,132l-1.6,5.4v157.2l1.6,1.6l73-43.1L250,132z"/>
<path class="st3" d="M250,310l-0.9,1.1v56l0.9,2.6L323,267L250,310z"/>
<path class="st2" d="M250,369.7V310l-73-43.1L250,369.7z"/>
<path class="st3" d="M250,296.2l73-43.1l-73-33.1V296.2z"/>
<linearGradient id="SVGID_1_" gradientUnits="userSpaceOnUse" x1="250" y1="389.66" x2="250" y2="110.629" gradientTransform="matrix(1 0 0 -1 0 500)">
	<stop  offset="0" style="stop-color:#FFFFFF"/>
	<stop  offset="1" style="stop-color:#999999"/>
</linearGradient>
<path class="st4" d="M240.2,110.3C167.4,115.4,110,176,110,250c0,72.8,55.6,132.6,126.6,139.4l25-36c-3.8,0.4-7.7,0.6-11.7,0.6
	c-57.4,0-104-46.6-104-104c0-44.8,28.4-83,68.1-97.6L240.2,110.3z M241.5,146.3l21.5-35.7C334.3,117.2,390,177.1,390,250
	c0,71.7-53.8,130.7-123.3,139l34-48.2C332.5,323,354,289,354,250c0-57.4-46.6-104-104-104C247.2,146,244.3,146.1,241.5,146.3z"/>
<path class="st5" d="M240.2,110.3C167.4,115.4,110,176,110,250c0,72.8,55.6,132.6,126.6,139.4l25-36c-3.8,0.4-7.7,0.6-11.7,0.6
	c-57.4,0-104-46.6-104-104c0-44.8,28.4-83,68.1-97.6L240.2,110.3z M241.5,146.3l21.5-35.7C334.3,117.2,390,177.1,390,250
	c0,71.7-53.8,130.7-123.3,139l34-48.2C332.5,323,354,289,354,250c0-57.4-46.6-104-104-104C247.2,146,244.3,146.1,241.5,146.3z"/>
<path class="st3" d="M250,370v-60l73-43L250,370z"/>
<path class="st3" d="M250,132l-73,121.1l73,43.1v-76.3V132z"/>
<path class="st6" d="M177,253.1l73,43.1v-76.3L177,253.1z"/>
</svg>
