<svg width="500" height="500" viewBox="0 0 500 500" fill="none" xmlns="http://www.w3.org/2000/svg">
<g clip-path="url(#clip0_3422_1333)">
<path d="M250 500C388.071 500 500 388.071 500 250C500 111.929 388.071 0 250 0C111.929 0 0 111.929 0 250C0 388.071 111.929 500 250 500Z" fill="#075A5A"/>
<g opacity="0.3">
<path d="M250.001 31L247.122 40.6893V321.701L250.001 324.506L379.915 247.411L250.001 31Z" fill="#C1DCDC"/>
<path d="M249.999 31L120 247.411L249.999 324.506V188.165V31Z" fill="white"/>
<path d="M250.001 349.239L248.393 351.194V451.325L250.001 456L380 272.144L250.001 349.239Z" fill="#C1DCDC"/>
<path d="M249.999 456V349.239L120 272.144L249.999 456Z" fill="white"/>
<path d="M250.001 349.239L248.393 351.194V451.325L250.001 456L380 272.144L250.001 349.239Z" fill="#C1DCDC"/>
<path d="M249.999 456V349.239L120 272.144L249.999 456Z" fill="white"/>
<path d="M250.007 324.506L379.923 247.411L250.007 188.165V324.506Z" fill="#A6C4C4"/>
<path d="M120 247.411L249.999 324.506V188.165L120 247.411Z" fill="#6F9F9F"/>
</g>
<path d="M250 318L368 247.884L250 194V318Z" fill="#509191"/>
<path d="M132 247.884L250 318V194L132 247.884Z" fill="#458484"/>
<path d="M250 173L368 236.884L250 49V173Z" fill="#70A0A0"/>
<path d="M132 236.884L250 173V49L132 236.884Z" fill="#85AEAE"/>
<path d="M250.369 355.414L249 357.073V442.033L250 446L361 290L250.369 355.414Z" fill="#70A0A0"/>
<path d="M250 446V355.414L140 290L250 446Z" fill="#85AEAE"/>
<path d="M250.001 83.0732L247.731 90.685V311.443L250.001 313.647L352.433 253.082L250.001 83.0732Z" fill="#C1DCDC"/>
<path d="M249.999 83.0732L147.5 253.082L249.999 313.647V206.539V83.0732Z" fill="white"/>
<path d="M250.001 333.077L248.732 334.613V413.274L250.001 416.946L352.5 272.512L250.001 333.077Z" fill="#C1DCDC"/>
<path d="M249.999 416.946V333.077L147.5 272.512L249.999 416.946Z" fill="white"/>
<path d="M250.001 333.077L248.732 334.613V413.274L250.001 416.946L352.5 272.512L250.001 333.077Z" fill="#C1DCDC"/>
<path d="M249.999 416.946V333.077L147.5 272.512L249.999 416.946Z" fill="white"/>
<path d="M250.006 313.647L352.439 253.083L250.006 206.539V313.647Z" fill="#A6C4C4"/>
<path d="M147.5 253.083L249.999 313.647V206.539L147.5 253.083Z" fill="#6F9F9F"/>
</g>
<defs>
<clipPath id="clip0_3422_1333">
<rect width="500" height="500" fill="white"/>
</clipPath>
</defs>
</svg>
