<svg width="500" height="500" viewBox="0 0 500 500" fill="none" xmlns="http://www.w3.org/2000/svg">
<g clip-path="url(#clip0_4177_1271)">
<path d="M250.835 499.165C388.445 498.704 499.627 386.775 499.165 249.165C498.704 111.554 386.775 0.373245 249.165 0.834376C111.555 1.2955 0.374282 113.224 0.835414 250.834C1.29655 388.445 113.225 499.625 250.835 499.165Z" fill="url(#paint0_linear_4177_1271)"/>
<path d="M250.649 469.883C203.983 469.883 157.503 454.684 119.796 427.086L131.388 411.301C165.76 436.456 208.119 450.313 250.649 450.313C270.454 450.313 290.101 447.37 309.049 441.57L314.801 460.284C293.994 466.655 272.415 469.883 250.663 469.883H250.649ZM337.526 451.941L329.77 433.971C330.915 433.485 332.045 432.985 333.177 432.471C390.059 406.759 431.029 357.076 445.583 296.18L464.644 300.723C448.688 367.548 403.711 422.058 341.246 450.299C340.001 450.855 338.756 451.413 337.526 451.941ZM101.064 411.73C79.2406 391.716 61.9253 367.819 49.6184 340.691C36.596 311.994 29.999 281.568 29.999 250.255C29.999 242.528 30.414 234.699 31.244 227L50.7346 229.071C49.9905 236.085 49.6041 243.213 49.6041 250.255C49.6041 278.768 55.6144 306.48 67.4776 332.621C78.6968 357.334 94.4524 379.104 114.329 397.316L101.064 411.73ZM468.967 276.925L449.518 274.496C450.549 266.269 451.078 257.911 451.078 249.626C451.078 221.114 445.068 193.401 433.204 167.261C422.515 143.72 407.675 122.807 389.071 105.094L402.595 90.9374C423.03 110.379 439.329 133.349 451.064 159.19C464.086 187.888 470.683 218.314 470.683 249.626C470.683 258.711 470.11 267.896 468.98 276.925H468.967ZM54.2693 207.33L35.1221 203.144C42.3201 170.36 57.1313 139.178 77.9813 112.965C99.8474 85.4664 127.238 64.1537 159.422 49.5974C161.897 48.4689 164.415 47.3977 166.905 46.3834L174.333 64.4822C172.057 65.4107 169.768 66.3963 167.507 67.4248C138.199 80.681 113.242 100.094 93.3361 125.135C74.3465 149.019 60.8376 177.446 54.2693 207.344V207.33ZM372.258 90.7947C337.311 64.2108 293.894 49.5689 250.019 49.5689C231.473 49.5689 213.013 52.1544 195.183 57.254L189.788 38.441C209.378 32.8415 229.641 29.9988 250.019 29.9988C298.159 29.9988 345.783 46.0692 384.135 75.2243L372.258 90.7803V90.7947Z" fill="white"/>
<path opacity="0.2" d="M405.743 404.746C491.175 318.744 490.747 179.685 404.744 94.2526C318.742 8.82047 179.683 9.24835 94.251 95.251L405.743 404.746Z" fill="white"/>
<path d="M239.824 151.59C243.169 151.249 246.563 151.074 249.998 151.074C304.613 151.074 348.887 195.347 348.887 249.962C348.887 292.551 321.964 328.851 284.21 342.774L250.657 389.961C327.673 389.606 389.998 327.062 389.998 249.962C389.998 177.564 335.044 118.001 264.573 110.712L239.824 151.59Z" fill="white"/>
<path d="M246.821 109.997C170.967 111.686 109.997 173.704 109.997 249.962C109.997 321.305 163.361 380.184 232.351 388.861L261.251 348.218C257.557 348.636 253.802 348.851 249.997 348.851C195.382 348.851 151.108 304.577 151.108 249.962C151.108 206.197 179.54 169.072 218.938 156.049L246.821 109.997Z" fill="white"/>
<path d="M284.213 342.774C321.967 328.852 348.889 292.552 348.889 249.964H390C390 327.064 327.677 389.607 250.659 389.962L284.213 342.774Z" fill="url(#paint1_linear_4177_1271)"/>
<path d="M246.821 109.997C170.967 111.686 109.997 173.704 109.997 249.962C109.997 249.962 151.108 250.552 151.108 249.962C151.108 206.197 179.54 169.072 218.938 156.049L246.821 109.997Z" fill="url(#paint2_linear_4177_1271)"/>
<path d="M249.748 364.413L320.043 265.42L249.748 306.905L179.492 265.42L249.748 364.413Z" fill="white"/>
<path opacity="0.1" d="M249.744 364.413L320.039 265.42L249.744 306.905V364.413Z" fill="#4C52F9"/>
<path d="M249.533 293.766L320.178 252.205L249.533 135.523L178.888 252.205L249.533 293.766Z" fill="url(#paint3_linear_4177_1271)"/>
<path d="M249.533 293.766L320.178 252.205L249.533 135.523L178.888 252.205L249.533 293.766Z" fill="white"/>
<path opacity="0.1" d="M249.53 293.763L178.885 252.205L249.53 135.523V293.763Z" fill="#4C52F9"/>
<path opacity="0.1" d="M249.533 293.766V219.086L178.888 252.205L249.533 293.766Z" fill="#4C52F9"/>
<path opacity="0.1" d="M249.534 293.766V219.086L320.179 252.205L249.534 293.766Z" fill="#4C52F9"/>
</g>
<defs>
<linearGradient id="paint0_linear_4177_1271" x1="0.835414" y1="250.834" x2="499.166" y2="249.165" gradientUnits="userSpaceOnUse">
<stop offset="0.25" stop-color="#1A82FF"/>
<stop offset="0.5" stop-color="#7A26F3"/>
<stop offset="0.74" stop-color="#D6453B"/>
</linearGradient>
<linearGradient id="paint1_linear_4177_1271" x1="157.825" y1="425.379" x2="312.01" y2="324.381" gradientUnits="userSpaceOnUse">
<stop stop-color="#4C52F9" stop-opacity="0.5"/>
<stop offset="1" stop-color="white"/>
</linearGradient>
<linearGradient id="paint2_linear_4177_1271" x1="325.552" y1="45.5552" x2="178.028" y2="152.146" gradientUnits="userSpaceOnUse">
<stop stop-color="#4C52F9" stop-opacity="0.5"/>
<stop offset="1" stop-color="white"/>
</linearGradient>
<linearGradient id="paint3_linear_4177_1271" x1="99.2381" y1="177.776" x2="223.001" y2="253.304" gradientUnits="userSpaceOnUse">
<stop stop-color="#1C313F"/>
<stop offset="1" stop-color="white"/>
</linearGradient>
<clipPath id="clip0_4177_1271">
<rect width="500" height="500" fill="white"/>
</clipPath>
</defs>
</svg>
