<?xml version="1.0" standalone="no"?>
<!DOCTYPE svg PUBLIC "-//W3C//DTD SVG 20010904//EN"
 "http://www.w3.org/TR/2001/REC-SVG-20010904/DTD/svg10.dtd">
<svg version="1.0" xmlns="http://www.w3.org/2000/svg"
 width="32.000000pt" height="32.000000pt" viewBox="0 0 32.000000 32.000000"
 preserveAspectRatio="xMidYMid meet">

<g transform="translate(0.000000,32.000000) scale(0.100000,-0.100000)"
fill="#000000" stroke="none">
<path d="M81 236 c-29 -30 -31 -36 -19 -55 11 -17 11 -25 -1 -42 -12 -20 -10
-25 22 -56 31 -32 36 -34 56 -22 17 12 25 12 42 0 20 -12 25 -10 56 22 32 31
34 36 22 56 -12 17 -12 25 0 42 12 20 10 25 -22 56 -31 32 -36 34 -56 22 -17
-11 -25 -11 -41 -1 -25 16 -21 17 -59 -22z m123 -35 c38 -39 39 -40 22 -65 -9
-14 -27 -33 -41 -42 -23 -15 -27 -15 -50 0 -14 9 -32 28 -41 42 -17 25 -16 26
22 65 21 21 41 39 44 39 3 0 23 -18 44 -39z"/>
<path d="M134 176 c-10 -26 4 -48 28 -44 17 2 23 10 23 28 0 18 -6 26 -23 28
-13 2 -25 -3 -28 -12z"/>
</g>
</svg>
