<svg width="500" height="500" viewBox="0 0 500 500" fill="none" xmlns="http://www.w3.org/2000/svg">
<circle cx="250" cy="250" r="250" fill="#004E76"/>
<circle cx="250" cy="250" r="211" stroke="url(#paint0_linear_5831_1278)" stroke-width="28"/>
<path d="M207 294.754V377H293V207H207V294.754Z" fill="white"/>
<path d="M122 292V295.226C122 309.076 127.502 322.547 137.368 332.413L166.587 361.631C176.453 371.497 189.735 377 203.775 377H207V292H122Z" fill="white"/>
<path d="M361.873 164.342L317.855 122H293V377H296.795C310.266 377 323.357 371.684 333.223 362.38L361.873 334.849C372.118 324.975 378 311.304 378 297.064V202.317C378 188.076 372.118 174.405 361.873 164.532V164.342Z" fill="white"/>
<rect x="205" y="207" width="3" height="85" fill="#004E76"/>
<rect x="205" y="292" width="3" height="63" fill="url(#paint1_linear_5831_1278)"/>
<rect x="292" y="207" width="3" height="134" fill="url(#paint2_linear_5831_1278)"/>
<rect x="292" y="122" width="3" height="85" fill="#004E76"/>
<defs>
<linearGradient id="paint0_linear_5831_1278" x1="250" y1="25" x2="250" y2="475" gradientUnits="userSpaceOnUse">
<stop stop-color="#CDFD51"/>
<stop offset="1" stop-color="#21CFFA"/>
</linearGradient>
<linearGradient id="paint1_linear_5831_1278" x1="206.5" y1="292" x2="206.5" y2="355" gradientUnits="userSpaceOnUse">
<stop stop-color="#004E76"/>
<stop offset="1" stop-color="white"/>
</linearGradient>
<linearGradient id="paint2_linear_5831_1278" x1="293.5" y1="207" x2="293.5" y2="341" gradientUnits="userSpaceOnUse">
<stop stop-color="#004E76"/>
<stop offset="1" stop-color="white"/>
</linearGradient>
</defs>
</svg>
