<svg
    width="64"
    height="64"
    class="fill-[#231815]"
    viewBox="0 0 64 64"
    fill="none"
    xmlns="http://www.w3.org/2000/svg"
  >
    <g clip-path="url(#clip0_401_2)">
      <path
        d="M49.0269 42.5973C51.2842 45.6252 53.6121 48.7234 55.94 51.8216C51.2842 57.3139 45.4997 60.8346 38.5161 62.3133C30.7564 63.9329 23.42 62.7358 16.2953 58.7926C22.6441 54.0749 28.8518 49.4275 35.13 44.7802C36.5409 46.1181 37.8812 47.4559 39.2215 48.7234C40.7029 50.1317 40.1385 50.2021 42.0432 49.1459C44.6532 47.6672 46.84 45.6252 48.5331 43.1607C48.6036 43.0198 48.7447 42.879 48.8152 42.7382C48.7447 42.7382 48.8152 42.7382 49.0269 42.5973V42.5973ZM21.3038 48.7938C19.5402 50.1317 17.9177 51.3287 16.2953 52.5962C15.096 53.5116 13.8968 54.3565 12.6976 55.2719C12.2038 55.6944 11.8511 55.6944 11.2868 55.2015C5.92555 50.4133 2.53952 44.4985 1.26976 37.4571C-3.56775e-06 30.3453 1.12867 23.5855 4.5147 17.1778C4.58524 17.037 4.72633 16.8257 4.79687 16.6849C4.79687 16.6145 4.86741 16.6145 5.0085 16.5441C9.66428 22.6701 14.3906 28.7962 19.0464 34.9222C18.9053 35.1334 18.8348 35.2743 18.6937 35.4151C17.2828 36.8938 15.872 38.3725 14.3906 39.7808C13.9674 40.2033 13.8968 40.5553 14.179 41.0482C15.6604 43.8648 17.7061 46.1885 20.2456 48.0897C20.5983 48.3009 20.8805 48.5122 21.3038 48.7938V48.7938ZM47.616 5.06655C45.3587 6.68608 43.1013 8.30561 40.844 9.85472C36.9641 12.6009 33.0843 15.4174 29.275 18.1636C28.7812 18.5157 28.4285 18.5861 28.0053 18.0932C26.7355 16.7553 25.3952 15.5583 24.1254 14.2204C23.7727 13.8683 23.42 13.7979 22.9262 14.0092C19.8929 15.5583 17.4945 17.7411 15.5193 20.4873C15.3782 20.6281 15.2371 20.8393 15.096 21.0506C13.9674 19.5719 12.9092 18.234 11.8511 16.8257C10.7224 15.347 9.66429 13.8683 8.60615 12.46C8.25344 11.9671 8.1829 11.6151 8.67669 11.1222C14.1084 5.13696 20.81 1.61625 28.8518 0.771281C35.2006 0.0671389 41.2672 1.3346 46.9106 4.36241C47.1222 4.50324 47.3338 4.57365 47.5455 4.71448C47.5455 4.92572 47.5455 4.99614 47.616 5.06655V5.06655ZM59.1144 47.3151C57.633 45.4139 56.2927 43.6536 54.9524 41.8932C51.8485 37.8092 48.7447 33.6547 45.5703 29.5707C45.147 29.0074 45.147 28.6553 45.6408 28.1624C46.9811 26.8246 48.2509 25.4867 49.5912 24.1488C49.9439 23.7967 50.085 23.4447 49.8028 22.9518C48.2509 19.9944 46.1346 17.5299 43.3835 15.5583C43.1719 15.4174 42.9602 15.2062 42.6781 15.0654C42.8897 14.8541 43.1013 14.7133 43.2424 14.5725C45.923 12.5305 48.6036 10.5589 51.2842 8.51685C51.7075 8.16478 52.0602 8.02395 52.554 8.51685C59.2555 14.5725 62.8531 22.1068 63.2058 31.1902C63.3469 36.4713 62.1477 41.4707 59.7493 46.1885C59.5376 46.4701 59.326 46.8222 59.1144 47.3151V47.3151Z"
        fill="currentColor"
      />
    </g>
    <defs>
      <clipPath id="clip0_401_2">
        <rect width="63.3469" height="64" fill="white" />
      </clipPath>
    </defs>
  </svg>