<svg xmlns="http://www.w3.org/2000/svg" width="30" height="38" viewBox="0 0 30 38" fill="none">
<mask id="path-1-inside-1_511_5439" fill="white">
<path fill-rule="evenodd" clip-rule="evenodd" d="M0 6.54502C0 4.34713 0 3.24818 0.402171 2.39786C0.816515 1.5218 1.5218 0.816515 2.39786 0.402171C3.24818 0 4.34712 0 6.54501 0C8.7429 0 9.84185 0 10.6922 0.402171C11.5682 0.816515 12.2735 1.5218 12.6879 2.39786C13.09 3.24818 13.09 4.34712 13.09 6.54501V20.073C13.09 20.9972 13.09 21.4593 12.9945 21.8989C12.9098 22.2888 12.7697 22.6646 12.5787 23.015C12.3633 23.4099 12.061 23.7594 11.4563 24.4582L8.82784 27.4962C6.0984 30.6508 4.73369 32.2281 3.54587 32.3823C2.51684 32.5158 1.48825 32.1326 0.797423 31.3583C0 30.4645 0 28.3788 0 24.2073V6.54502ZM15.708 6.70209C15.708 4.35614 15.708 3.18316 16.1646 2.28713C16.5662 1.49895 17.207 0.858148 17.9952 0.456553C18.8912 0 20.0642 0 22.4101 0H22.6196C24.9655 0 26.1385 0 27.0345 0.456553C27.8227 0.858148 28.4635 1.49895 28.8651 2.28713C29.3217 3.18316 29.3217 4.35614 29.3217 6.70209V16.3364C29.3217 18.6823 29.3217 19.8553 28.8651 20.7513C28.4635 21.5395 27.8227 22.1803 27.0345 22.5819C26.1385 23.0384 24.9655 23.0384 22.6196 23.0384H22.4101C20.0642 23.0384 18.8912 23.0384 17.9952 22.5819C17.207 22.1803 16.5662 21.5395 16.1646 20.7513C15.708 19.8553 15.708 18.6823 15.708 16.3364V6.70209ZM13.7673 25.8125C13.3307 26.0971 12.964 26.4942 12.2307 27.2884L10.4077 29.2628C7.94575 31.9292 6.71476 33.2623 6.65716 34.3986C6.60714 35.3853 7.02422 36.3381 7.78313 36.9708C8.65702 37.6993 10.4716 37.6993 14.1008 37.6993H23.0384C24.9902 37.6993 25.9661 37.6993 26.7358 37.3804C27.7622 36.9553 28.5777 36.1398 29.0028 35.1135C29.3217 34.3437 29.3217 33.3678 29.3217 31.4161C29.3217 29.4643 29.3217 28.4884 29.0028 27.7187C28.5777 26.6923 27.7622 25.8768 26.7358 25.4517C25.9661 25.1328 24.9902 25.1328 23.0384 25.1328H17.1548C16.0739 25.1328 15.5335 25.1328 15.0282 25.2606C14.5803 25.3738 14.1543 25.5603 13.7673 25.8125Z"/>
</mask>
<path fill-rule="evenodd" clip-rule="evenodd" d="M0 6.54502C0 4.34713 0 3.24818 0.402171 2.39786C0.816515 1.5218 1.5218 0.816515 2.39786 0.402171C3.24818 0 4.34712 0 6.54501 0C8.7429 0 9.84185 0 10.6922 0.402171C11.5682 0.816515 12.2735 1.5218 12.6879 2.39786C13.09 3.24818 13.09 4.34712 13.09 6.54501V20.073C13.09 20.9972 13.09 21.4593 12.9945 21.8989C12.9098 22.2888 12.7697 22.6646 12.5787 23.015C12.3633 23.4099 12.061 23.7594 11.4563 24.4582L8.82784 27.4962C6.0984 30.6508 4.73369 32.2281 3.54587 32.3823C2.51684 32.5158 1.48825 32.1326 0.797423 31.3583C0 30.4645 0 28.3788 0 24.2073V6.54502ZM15.708 6.70209C15.708 4.35614 15.708 3.18316 16.1646 2.28713C16.5662 1.49895 17.207 0.858148 17.9952 0.456553C18.8912 0 20.0642 0 22.4101 0H22.6196C24.9655 0 26.1385 0 27.0345 0.456553C27.8227 0.858148 28.4635 1.49895 28.8651 2.28713C29.3217 3.18316 29.3217 4.35614 29.3217 6.70209V16.3364C29.3217 18.6823 29.3217 19.8553 28.8651 20.7513C28.4635 21.5395 27.8227 22.1803 27.0345 22.5819C26.1385 23.0384 24.9655 23.0384 22.6196 23.0384H22.4101C20.0642 23.0384 18.8912 23.0384 17.9952 22.5819C17.207 22.1803 16.5662 21.5395 16.1646 20.7513C15.708 19.8553 15.708 18.6823 15.708 16.3364V6.70209ZM13.7673 25.8125C13.3307 26.0971 12.964 26.4942 12.2307 27.2884L10.4077 29.2628C7.94575 31.9292 6.71476 33.2623 6.65716 34.3986C6.60714 35.3853 7.02422 36.3381 7.78313 36.9708C8.65702 37.6993 10.4716 37.6993 14.1008 37.6993H23.0384C24.9902 37.6993 25.9661 37.6993 26.7358 37.3804C27.7622 36.9553 28.5777 36.1398 29.0028 35.1135C29.3217 34.3437 29.3217 33.3678 29.3217 31.4161C29.3217 29.4643 29.3217 28.4884 29.0028 27.7187C28.5777 26.6923 27.7622 25.8768 26.7358 25.4517C25.9661 25.1328 24.9902 25.1328 23.0384 25.1328H17.1548C16.0739 25.1328 15.5335 25.1328 15.0282 25.2606C14.5803 25.3738 14.1543 25.5603 13.7673 25.8125Z" fill="#FF8C20"/>
<path d="M0.402171 2.39786L0.243306 2.32272L0.243306 2.32272L0.402171 2.39786ZM2.39786 0.402171L2.32272 0.243306L2.32272 0.243306L2.39786 0.402171ZM10.6922 0.402171L10.617 0.561035L10.617 0.561035L10.6922 0.402171ZM12.6879 2.39786L12.529 2.473L12.529 2.473L12.6879 2.39786ZM12.9945 21.8989L13.1662 21.9362L13.1662 21.9362L12.9945 21.8989ZM12.5787 23.015L12.733 23.0991L12.733 23.0991L12.5787 23.015ZM11.4563 24.4582L11.5892 24.5732L11.5892 24.5732L11.4563 24.4582ZM8.82784 27.4962L8.69494 27.3812L8.69494 27.3812L8.82784 27.4962ZM3.54587 32.3823L3.52325 32.208L3.52325 32.208L3.54587 32.3823ZM0.797423 31.3583L0.928553 31.2413L0.928553 31.2413L0.797423 31.3583ZM16.1646 2.28713L16.3212 2.36691L16.3212 2.36691L16.1646 2.28713ZM17.9952 0.456553L18.0749 0.613136L18.0749 0.613136L17.9952 0.456553ZM27.0345 0.456553L27.1143 0.29997L27.1143 0.29997L27.0345 0.456553ZM28.8651 2.28713L28.7085 2.36691L28.7085 2.36691L28.8651 2.28713ZM28.8651 20.7513L29.0217 20.8311L29.0217 20.8311L28.8651 20.7513ZM27.0345 22.5819L27.1143 22.7385L27.1143 22.7385L27.0345 22.5819ZM17.9952 22.5819L17.9154 22.7385L17.9154 22.7385L17.9952 22.5819ZM16.1646 20.7513L16.3212 20.6715L16.3212 20.6715L16.1646 20.7513ZM12.2307 27.2884L12.3599 27.4076L12.3599 27.4076L12.2307 27.2884ZM13.7673 25.8125L13.6713 25.6653L13.6713 25.6653L13.7673 25.8125ZM10.4077 29.2628L10.2786 29.1436L10.2786 29.1436L10.4077 29.2628ZM6.65716 34.3986L6.83267 34.4075L6.83267 34.4075L6.65716 34.3986ZM7.78313 36.9708L7.89565 36.8358L7.89565 36.8358L7.78313 36.9708ZM29.0028 35.1135L29.1652 35.1807L29.1652 35.1807L29.0028 35.1135ZM29.0028 27.7187L29.1652 27.6514L29.1652 27.6514L29.0028 27.7187ZM26.7358 25.4517L26.6686 25.6141L26.6686 25.6141L26.7358 25.4517ZM15.0282 25.2606L15.0712 25.4309L15.0712 25.4309L15.0282 25.2606ZM0.243306 2.32272C0.0292164 2.77538 -0.0739032 3.28676 -0.124952 3.95267C-0.175858 4.61671 -0.175737 5.44879 -0.175737 6.54502H0.175737C0.175737 5.44336 0.175858 4.62702 0.225495 3.97953C0.274989 3.33391 0.372954 2.87066 0.561035 2.473L0.243306 2.32272ZM2.32272 0.243306C1.40991 0.675034 0.675034 1.40991 0.243306 2.32272L0.561035 2.473C0.957997 1.63369 1.63369 0.957997 2.473 0.561035L2.32272 0.243306ZM6.54501 -0.175737C5.44878 -0.175737 4.6167 -0.175858 3.95267 -0.124952C3.28676 -0.0739032 2.77538 0.0292164 2.32272 0.243306L2.473 0.561035C2.87066 0.372954 3.33391 0.274989 3.97953 0.225495C4.62702 0.175858 5.44335 0.175737 6.54501 0.175737V-0.175737ZM10.7673 0.243306C10.3146 0.0292164 9.80326 -0.0739032 9.13736 -0.124952C8.47332 -0.175858 7.64124 -0.175737 6.54501 -0.175737V0.175737C7.64667 0.175737 8.46301 0.175858 9.11049 0.225495C9.75612 0.274989 10.2194 0.372954 10.617 0.561035L10.7673 0.243306ZM12.8467 2.32272C12.415 1.40991 11.6801 0.675034 10.7673 0.243306L10.617 0.561035C11.4563 0.957997 12.132 1.63369 12.529 2.473L12.8467 2.32272ZM13.2658 6.54501C13.2658 5.44878 13.2659 4.6167 13.215 3.95267C13.1639 3.28676 13.0608 2.77538 12.8467 2.32272L12.529 2.473C12.7171 2.87066 12.815 3.33391 12.8645 3.97953C12.9142 4.62702 12.9143 5.44336 12.9143 6.54501H13.2658ZM13.2658 20.073V6.54501H12.9143V20.073H13.2658ZM13.1662 21.9362C13.2667 21.4739 13.2658 20.9897 13.2658 20.073H12.9143C12.9143 21.0047 12.9134 21.4447 12.8228 21.8616L13.1662 21.9362ZM12.733 23.0991C12.932 22.7341 13.0779 22.3425 13.1662 21.9362L12.8228 21.8616C12.7416 22.2351 12.6074 22.5952 12.4244 22.9308L12.733 23.0991ZM11.5892 24.5732C12.189 23.88 12.5064 23.5145 12.733 23.0991L12.4244 22.9308C12.2201 23.3054 11.933 23.6387 11.3234 24.3432L11.5892 24.5732ZM8.96074 27.6111L11.5892 24.5732L11.3234 24.3432L8.69494 27.3812L8.96074 27.6111ZM3.56848 32.5565C4.2248 32.4714 4.89941 31.9993 5.73126 31.1904C6.56886 30.3759 7.59826 29.1859 8.96074 27.6111L8.69494 27.3812C7.32798 28.9611 6.31031 30.1371 5.48623 30.9384C4.65642 31.7453 4.05475 32.139 3.52325 32.208L3.56848 32.5565ZM0.666292 31.4753C1.39576 32.2929 2.48189 32.6975 3.56848 32.5565L3.52325 32.208C2.55178 32.334 1.58073 31.9723 0.928553 31.2413L0.666292 31.4753ZM-0.175737 24.2073C-0.175737 26.2896 -0.175897 27.8631 -0.0754083 29.0271C0.0243922 30.1831 0.225683 30.9815 0.666292 31.4753L0.928553 31.2413C0.571739 30.8414 0.374319 30.15 0.274764 28.9968C0.175897 27.8516 0.175737 26.2965 0.175737 24.2073H-0.175737ZM-0.175737 6.54502V24.2073H0.175737V6.54502H-0.175737ZM16.008 2.20735C15.765 2.68427 15.6479 3.22722 15.5899 3.93658C15.5322 4.64389 15.5323 5.53202 15.5323 6.70209H15.8838C15.8838 5.52622 15.8839 4.65488 15.9403 3.9652C15.9964 3.27758 16.1076 2.78603 16.3212 2.36691L16.008 2.20735ZM17.9154 0.29997C17.0941 0.718413 16.4264 1.3861 16.008 2.20735L16.3212 2.36691C16.7059 1.6118 17.3198 0.997883 18.0749 0.613136L17.9154 0.29997ZM22.4101 -0.175737C21.24 -0.175737 20.3519 -0.175874 19.6446 -0.118085C18.9353 -0.0601276 18.3923 0.0569664 17.9154 0.29997L18.0749 0.613136C18.4941 0.399586 18.9856 0.288404 19.6732 0.232223C20.3629 0.175874 21.2342 0.175737 22.4101 0.175737V-0.175737ZM22.6196 -0.175737H22.4101V0.175737H22.6196V-0.175737ZM27.1143 0.29997C26.6374 0.0569664 26.0944 -0.0601276 25.3851 -0.118085C24.6778 -0.175874 23.7896 -0.175737 22.6196 -0.175737V0.175737C23.7954 0.175737 24.6668 0.175874 25.3565 0.232223C26.0441 0.288404 26.5356 0.399586 26.9547 0.613136L27.1143 0.29997ZM29.0217 2.20735C28.6032 1.3861 27.9356 0.718413 27.1143 0.29997L26.9547 0.613136C27.7099 0.997883 28.3238 1.6118 28.7085 2.36691L29.0217 2.20735ZM29.4974 6.70209C29.4974 5.53202 29.4975 4.64389 29.4397 3.93658C29.3818 3.22722 29.2647 2.68427 29.0217 2.20735L28.7085 2.36691C28.9221 2.78603 29.0333 3.27758 29.0894 3.9652C29.1458 4.65488 29.1459 5.52622 29.1459 6.70209H29.4974ZM29.4974 16.3364V6.70209H29.1459V16.3364H29.4974ZM29.0217 20.8311C29.2647 20.3542 29.3818 19.8112 29.4397 19.1019C29.4975 18.3946 29.4974 17.5064 29.4974 16.3364H29.1459C29.1459 17.5122 29.1458 18.3836 29.0894 19.0732C29.0333 19.7609 28.9221 20.2524 28.7085 20.6715L29.0217 20.8311ZM27.1143 22.7385C27.9356 22.32 28.6032 21.6523 29.0217 20.8311L28.7085 20.6715C28.3238 21.4266 27.7099 22.0406 26.9547 22.4253L27.1143 22.7385ZM22.6196 23.2142C23.7896 23.2142 24.6778 23.2143 25.3851 23.1565C26.0944 23.0986 26.6374 22.9815 27.1143 22.7385L26.9547 22.4253C26.5356 22.6389 26.0441 22.75 25.3565 22.8062C24.6668 22.8626 23.7954 22.8627 22.6196 22.8627V23.2142ZM22.4101 23.2142H22.6196V22.8627H22.4101V23.2142ZM17.9154 22.7385C18.3923 22.9815 18.9353 23.0986 19.6446 23.1565C20.3519 23.2143 21.24 23.2142 22.4101 23.2142V22.8627C21.2342 22.8627 20.3629 22.8626 19.6732 22.8062C18.9856 22.75 18.4941 22.6389 18.0749 22.4253L17.9154 22.7385ZM16.008 20.8311C16.4264 21.6523 17.0941 22.32 17.9154 22.7385L18.0749 22.4253C17.3198 22.0406 16.7059 21.4266 16.3212 20.6715L16.008 20.8311ZM15.5323 16.3364C15.5323 17.5064 15.5322 18.3946 15.5899 19.1019C15.6479 19.8112 15.765 20.3542 16.008 20.8311L16.3212 20.6715C16.1076 20.2524 15.9964 19.7609 15.9403 19.0732C15.8839 18.3836 15.8838 17.5122 15.8838 16.3364H15.5323ZM15.5323 6.70209V16.3364H15.8838V6.70209H15.5323ZM12.3599 27.4076C13.0991 26.6069 13.4492 26.2296 13.8632 25.9597L13.6713 25.6653C13.2121 25.9646 12.8289 26.3815 12.1016 27.1691L12.3599 27.4076ZM10.5368 29.382L12.3599 27.4076L12.1016 27.1691L10.2786 29.1436L10.5368 29.382ZM6.83267 34.4075C6.85856 33.8968 7.15039 33.3164 7.77004 32.5117C8.38677 31.7108 9.30347 30.7177 10.5368 29.382L10.2786 29.1436C9.04998 30.4742 8.12021 31.4809 7.49156 32.2973C6.86583 33.1098 6.51336 33.7642 6.48165 34.3897L6.83267 34.4075ZM7.89565 36.8358C7.1792 36.2385 6.78545 35.339 6.83267 34.4075L6.48165 34.3897C6.42883 35.4316 6.86924 36.4377 7.6706 37.1058L7.89565 36.8358ZM14.1008 37.5235C12.2827 37.5235 10.9312 37.5234 9.9244 37.4332C8.91284 37.3426 8.28844 37.1632 7.89565 36.8358L7.6706 37.1058C8.15171 37.5068 8.87155 37.6917 9.89304 37.7832C10.9193 37.8752 12.2897 37.875 14.1008 37.875V37.5235ZM23.0384 37.5235H14.1008V37.875H23.0384V37.5235ZM26.6686 37.2181C26.3087 37.3671 25.8936 37.4448 25.3184 37.4841C24.7416 37.5234 24.0167 37.5235 23.0384 37.5235V37.875C24.0119 37.875 24.7508 37.8751 25.3423 37.8347C25.9354 37.7943 26.3932 37.7126 26.8031 37.5428L26.6686 37.2181ZM28.8404 35.0462C28.4331 36.0295 27.6519 36.8108 26.6686 37.2181L26.8031 37.5428C27.8725 37.0998 28.7222 36.2501 29.1652 35.1807L28.8404 35.0462ZM29.1459 31.4161C29.1459 32.3943 29.1458 33.1192 29.1065 33.696C29.0672 34.2712 28.9895 34.6863 28.8404 35.0462L29.1652 35.1807C29.3349 34.7708 29.4167 34.3131 29.4571 33.72C29.4975 33.1284 29.4974 32.3895 29.4974 31.4161H29.1459ZM28.8404 27.7859C28.9895 28.1458 29.0672 28.5609 29.1065 29.1361C29.1458 29.7129 29.1459 30.4378 29.1459 31.4161H29.4974C29.4974 30.4426 29.4975 29.7037 29.4571 29.1122C29.4167 28.5191 29.3349 28.0613 29.1652 27.6514L28.8404 27.7859ZM26.6686 25.6141C27.6519 26.0214 28.4331 26.8026 28.8404 27.7859L29.1652 27.6514C28.7222 26.582 27.8725 25.7323 26.8031 25.2893L26.6686 25.6141ZM23.0384 25.3086C24.0167 25.3086 24.7416 25.3087 25.3184 25.348C25.8936 25.3873 26.3087 25.465 26.6686 25.6141L26.8031 25.2893C26.3932 25.1196 25.9354 25.0378 25.3423 24.9974C24.7508 24.957 24.0119 24.9571 23.0384 24.9571V25.3086ZM17.1548 25.3086H23.0384V24.9571H17.1548V25.3086ZM15.0712 25.4309C15.5504 25.3098 16.0651 25.3086 17.1548 25.3086V24.9571C16.0828 24.9571 15.5165 24.9559 14.9851 25.0902L15.0712 25.4309ZM13.8632 25.9597C14.234 25.7181 14.6422 25.5394 15.0712 25.4309L14.9851 25.0902C14.5185 25.2081 14.0745 25.4025 13.6713 25.6653L13.8632 25.9597Z" fill="white" fill-opacity="0.1" mask="url(#path-1-inside-1_511_5439)"/>
</svg>