<svg width="99" height="99" viewBox="0 0 99 99" fill="none" xmlns="http://www.w3.org/2000/svg">
<path fill-rule="evenodd" clip-rule="evenodd" d="M21.6741 15.8268L28.4035 22.7672C35.4234 17.2563 44.3203 14.7103 53.1926 15.6741C62.0649 16.6374 70.2083 21.0344 75.8815 27.9234L69.1014 34.8803C72.6935 39.5709 74.4782 45.3984 74.1273 51.2958C73.7776 57.1938 71.3153 62.7687 67.1923 67.0006C63.0699 71.2331 57.5612 73.8395 51.6744 74.3441C45.7882 74.8482 39.9159 73.2168 35.1329 69.7486L31.6844 73.3316C37.0777 77.4348 43.7185 79.558 50.4917 79.3471C57.2654 79.135 63.7598 76.6012 68.8872 72.1701C74.0146 67.739 77.4626 61.6799 78.6535 55.0087C79.8437 48.3375 78.7053 41.4596 75.4271 35.528L78.7923 32.0373C82.4731 38.1136 84.1696 45.1864 83.6468 52.272C83.1235 59.357 80.4066 66.1035 75.8729 71.5738L79.3386 75.1323C85.378 68.0313 88.6877 59.0099 88.6744 49.688C88.66 40.366 85.3236 31.3549 79.2627 24.2714C73.2024 17.1891 64.815 12.499 55.6079 11.0433C46.4002 9.58818 36.9757 11.463 29.0261 16.332L25.6614 12.908C32.7497 8.29485 41.0266 5.84274 49.484 5.85022C59.6529 5.78881 69.5163 9.32546 77.3281 15.8354L80.7857 12.2768C71.3554 4.30644 59.2534 0.207505 46.9203 0.807715C34.5872 1.40739 22.9402 6.66082 14.3279 15.5091C5.71568 24.3574 0.777837 36.1421 0.511373 48.487C0.24491 60.8319 4.66905 72.8184 12.892 82.0298L16.3577 78.4719C12.5092 74.0483 9.58768 68.8969 7.76782 63.323C5.94744 57.7497 5.26499 51.8672 5.76054 46.0242C6.25662 40.1823 7.92054 34.499 10.6541 29.3118C13.3876 24.1246 17.1352 19.5392 21.6741 15.8268ZM40.5438 42.7449H61.0107L50.7142 62.3035L40.5438 42.7449ZM32.3758 37.7905L49.4861 70.6563L66.5963 37.7905H32.3758ZM82.6166 20.9985L86.0822 17.4405H86.1073C94.342 26.6509 98.7758 38.6422 98.5136 50.9946C98.252 63.347 93.313 75.1396 84.6949 83.9928C76.0773 92.8452 64.4213 98.0993 52.0812 98.6935C39.74 99.2874 27.6333 95.1773 18.2051 87.1935L21.6707 83.6351C28.845 89.5501 37.7173 93.0253 47.0002 93.5561C56.2832 94.0868 65.4941 91.6465 73.2963 86.5875L69.931 83.1641C61.982 88.041 52.5538 89.9227 43.3418 88.4703C34.1294 87.0179 25.7382 82.3262 19.6757 75.2395C13.6128 68.1541 10.2769 59.1364 10.2683 49.8107C10.2593 40.4845 13.5775 31.4616 19.6266 24.3632L23.1179 27.9388C18.5794 33.4069 15.8598 40.154 15.3365 47.2406C14.8132 54.3267 16.5129 61.4 20.1985 67.4753L23.5632 63.9845C20.277 58.054 19.13 51.1735 20.3144 44.498C21.4993 37.822 24.943 31.7558 30.0694 27.3183C35.1957 22.8803 41.6923 20.3401 48.4687 20.1238C55.2456 19.9076 61.8912 22.0286 67.2894 26.1302L63.7821 29.7304C59.6393 26.6861 54.6214 25.0686 49.4812 25.121C44.8963 25.1156 40.4006 26.3913 36.5014 28.805C32.6032 31.2186 29.4558 34.6736 27.4165 38.7805C25.3767 42.8869 24.5249 47.482 24.9575 52.0471C25.39 56.6117 27.0892 60.9653 29.8643 64.6157L26.3816 68.1903L23.0928 71.5556C28.7691 78.4404 36.9125 82.8318 45.7838 83.7937C54.6545 84.7559 63.5498 82.2115 70.5702 76.7038L74.0358 80.2789L77.3167 83.6434C81.8519 79.9287 85.5947 75.3415 88.325 70.1538C91.0548 64.9655 92.716 59.2827 93.21 53.4414C93.7039 47.6 93.0215 41.7191 91.2016 36.1463C89.3818 30.5736 86.4624 25.4227 82.6166 20.9985Z" fill="#FF5100"/>
</svg>
