<svg
    width="31"
    height="31"
    viewBox="0 0 31 31"
    fill="none"
    xmlns="http://www.w3.org/2000/svg"
  >
    <path
      fill-rule="evenodd"
      clip-rule="evenodd"
      d="M7.36348 5.56349L9.35043 7.61244C11.4229 5.98537 14.0498 5.23373 16.6693 5.51825C19.2887 5.80277 21.6929 7.10088 23.3678 9.13499L21.366 11.189C22.4263 12.5739 22.9527 14.2941 22.849 16.0352C22.7454 17.7763 22.0185 19.4219 20.8014 20.6713C19.5843 21.9206 17.9582 22.6901 16.2204 22.8392C14.4826 22.9883 12.7492 22.507 11.3371 21.4833L10.3191 22.5412C11.9116 23.7524 13.872 24.3793 15.8718 24.3168C17.8715 24.2543 19.789 23.5063 21.3027 22.198C22.8165 20.8898 23.8344 19.1009 24.1859 17.1313C24.5375 15.1617 24.2012 13.1311 23.2334 11.38L24.2272 10.3496C25.3137 12.1437 25.8146 14.2317 25.6601 16.3235C25.5056 18.4153 24.7034 20.4071 23.3651 22.0221L24.3884 23.0729C26.1713 20.9763 27.1484 18.3128 27.1443 15.5607C27.1401 12.8086 26.1551 10.148 24.366 8.05678C22.5767 5.96556 20.1005 4.58077 17.3821 4.15111C14.6636 3.72146 11.881 4.2751 9.53407 5.71259L8.54089 4.70169C10.6335 3.33978 13.077 2.61579 15.5738 2.6179C18.576 2.59977 21.4879 3.6441 23.7944 5.56615L24.8153 4.5154C22.0311 2.16199 18.4581 0.951793 14.8169 1.12882C11.1756 1.30586 7.73687 2.85695 5.19411 5.46934C2.65134 8.08173 1.19368 11.5611 1.11505 15.2058C1.03642 18.8505 2.34267 22.3895 4.77041 25.1091L5.7937 24.0587C4.65738 22.7527 3.79495 21.2318 3.25757 19.5861C2.72018 17.9405 2.5188 16.2037 2.66536 14.4788C2.81179 12.754 3.30305 11.0761 4.11003 9.54466C4.917 8.01323 6.02354 6.65942 7.36348 5.56349ZM12.9346 13.5107H18.9773L15.9369 19.2853L12.9346 13.5107ZM10.5231 12.0481L15.5746 21.7514L20.6262 12.0481H10.5231ZM25.3559 7.09046L26.3792 6.04001H26.3869C28.2009 8.06886 29.4031 10.5701 29.8542 13.2541C30.3052 15.9381 29.9866 18.6949 28.9353 21.2053C27.884 23.7156 26.1431 25.8768 23.9141 27.4384C21.6851 29.0001 19.0593 29.8983 16.3408 30.029C12.6973 30.2043 9.12302 28.991 6.3393 26.6337L7.3626 25.583C9.48069 27.3294 12.1002 28.3555 14.841 28.5123C17.5817 28.669 20.3011 27.9484 22.6046 26.4548L21.6108 25.4439C19.2639 26.8837 16.4805 27.439 13.7608 27.0102C11.0411 26.5814 8.56359 25.1965 6.7736 23.1045C4.98362 21.0124 3.99873 18.3503 3.99603 15.5969C3.99332 12.8436 4.97298 10.1796 6.75883 8.08394L7.78981 9.13942C6.44986 10.7537 5.64671 12.7457 5.49218 14.838C5.33766 16.9302 5.83946 19.0186 6.92771 20.8122L7.92119 19.7816C7.19668 18.4739 6.82029 17.0021 6.82811 15.5072C6.83594 14.0122 7.22772 12.5444 7.96589 11.2444C8.70405 9.94443 9.76384 8.85591 11.0436 8.08323C12.3234 7.31056 13.7802 6.87965 15.2744 6.83184C17.2751 6.76804 19.2369 7.3941 20.8308 8.60504L19.7954 9.66789C18.5725 8.76922 17.091 8.29172 15.5735 8.30714C14.2197 8.30555 12.8924 8.68229 11.7413 9.39487C10.5902 10.1074 9.66116 11.1275 9.05894 12.34C8.45671 13.5524 8.20528 14.9091 8.333 16.2568C8.46072 17.6046 8.96252 18.8898 9.78178 19.9676L8.75346 21.023L7.78243 22.0165C9.45823 24.0492 11.8624 25.3461 14.4815 25.6301C17.1006 25.9141 19.7269 25.1627 21.7994 23.5364L22.8227 24.5919L23.7911 25.5854C25.8081 23.9335 27.2788 21.7106 28.0104 19.2083C28.742 16.706 28.7004 14.041 27.8911 11.5627C27.3538 9.91747 26.4919 8.39671 25.3565 7.09046H25.3559Z"
      fill="white"
    />
  </svg>