 <svg
    width="80"
    height="24"
    viewBox="0 0 80 24"
    fill="none"
    xmlns="http://www.w3.org/2000/svg"
  >
    <path
      d="M23.4637 0H0.533196C0.391781 0 0.256152 0.0561439 0.156198 0.156216C0.0561365 0.256181 0 0.391823 0 0.533359V23.4662C0 23.6076 0.0561365 23.7433 0.156198 23.8432C0.256152 23.9433 0.391781 23.9995 0.533196 23.9995H23.4637C23.6052 23.9995 23.7408 23.9433 23.8408 23.8432C23.9408 23.7433 23.997 23.6076 23.997 23.4662V0.533359C23.997 0.391823 23.9408 0.256181 23.8408 0.156216C23.7408 0.0561439 23.6052 0 23.4637 0ZM15.9979 15.4664C15.9979 15.6078 15.9418 15.7434 15.8417 15.8435C15.7418 15.9435 15.6062 15.9997 15.4647 15.9997H8.53222C8.39081 15.9997 8.25518 15.9435 8.15512 15.8435C8.05516 15.7434 7.99902 15.6078 7.99902 15.4664V8.53311C7.99902 8.39168 8.05516 8.25603 8.15512 8.15607C8.25518 8.056 8.39081 7.99986 8.53222 7.99986H15.4647C15.6062 7.99986 15.7418 8.056 15.8417 8.15607C15.9418 8.25603 15.9979 8.39168 15.9979 8.53311V15.4664Z"
      fill="white"
    />
    <path
      d="M71.471 8.00071H64.5386C64.2441 8.00071 64.0053 8.23943 64.0053 8.53397V15.4672C64.0053 15.7617 64.2441 16.0006 64.5386 16.0006H71.471C71.7655 16.0006 72.0043 15.7617 72.0043 15.4672V8.53397C72.0043 8.23943 71.7655 8.00071 71.471 8.00071Z"
      fill="white"
    />
    <path
      d="M63.4688 0.000644142H56.5363C56.2418 0.000644142 56.003 0.239359 56.003 0.534003V7.46714C56.003 7.76168 56.2418 8.0005 56.5363 8.0005H63.4688C63.7634 8.0005 64.0021 7.76168 64.0021 7.46714V0.534003C64.0021 0.239359 63.7634 0.000644142 63.4688 0.000644142Z"
      fill="white"
    />
    <path
      d="M79.4668 0.000644142H72.5343C72.2398 0.000644142 72.001 0.239359 72.001 0.534003V7.46714C72.001 7.76168 72.2398 8.0005 72.5343 8.0005H79.4668C79.7613 8.0005 80 7.76168 80 7.46714V0.534003C80 0.239359 79.7613 0.000644142 79.4668 0.000644142Z"
      fill="white"
    />
    <path
      d="M63.4688 16.0001H56.5363C56.2418 16.0001 56.003 16.2389 56.003 16.5334V23.4666C56.003 23.7612 56.2418 24 56.5363 24H63.4688C63.7634 24 64.0021 23.7612 64.0021 23.4666V16.5334C64.0021 16.2389 63.7634 16.0001 63.4688 16.0001Z"
      fill="white"
    />
    <path
      d="M79.4668 16.0001H72.5343C72.2398 16.0001 72.001 16.2389 72.001 16.5334V23.4666C72.001 23.7612 72.2398 24 72.5343 24H79.4668C79.7613 24 80 23.7612 80 23.4666V16.5334C80 16.2389 79.7613 16.0001 79.4668 16.0001Z"
      fill="white"
    />
    <path
      d="M51.4602 0.000644142H44.5278C44.2333 0.000644142 43.9945 0.239359 43.9945 0.534003V7.46714C43.9945 7.76168 44.2333 8.0005 44.5278 8.0005H51.4602C51.7547 8.0005 51.9935 7.76168 51.9935 7.46714V0.534003C51.9935 0.239359 51.7547 0.000644142 51.4602 0.000644142Z"
      fill="white"
    />
    <path
      d="M51.4602 16.0001H44.5278C44.2333 16.0001 43.9945 16.2389 43.9945 16.5334V23.4666C43.9945 23.7612 44.2333 24 44.5278 24H51.4602C51.7547 24 51.9935 23.7612 51.9935 23.4666V16.5334C51.9935 16.2389 51.7547 16.0001 51.4602 16.0001Z"
      fill="white"
    />
    <path
      d="M43.9945 8.52711C43.9945 8.38568 43.9382 8.25003 43.8383 8.15007C43.7382 8.05 43.6026 7.99386 43.4612 7.99386H35.9954V0.533359C35.9954 0.391823 35.9392 0.256181 35.8393 0.156216C35.7392 0.0561439 35.6036 0 35.4621 0H28.5297C28.3882 0 28.2526 0.0561439 28.1526 0.156216C28.0526 0.256181 27.9964 0.391823 27.9964 0.533359V23.4542C27.9964 23.5956 28.0526 23.7313 28.1526 23.8312C28.2526 23.9313 28.3882 23.9875 28.5297 23.9875H35.4621C35.6036 23.9875 35.7392 23.9313 35.8393 23.8312C35.9392 23.7313 35.9954 23.5956 35.9954 23.4542V15.9937H43.4612C43.6026 15.9937 43.7382 15.9375 43.8383 15.8375C43.9382 15.7374 43.9945 15.6018 43.9945 15.4604V8.52711Z"
      fill="white"
    />
  </svg>