<svg width="287" height="255" viewBox="0 0 287 255" fill="none" xmlns="http://www.w3.org/2000/svg">
<path fill-rule="evenodd" clip-rule="evenodd" d="M198.061 18.5917C224.945 -7.22277 285.275 -8.43507 253.527 57.2363C253.527 57.2363 259.49 63.9582 263.238 69.4374C264.238 71.6751 262.87 73.7083 261.385 75.9168C259.68 78.4496 257.821 81.2131 259.202 84.78C261.262 90.1053 264.506 95.318 268.232 101.307C272.927 108.853 278.389 117.63 283.216 129.417C291.873 150.558 279.687 183.259 267.983 202.238C247.937 233.303 214.742 220.929 187.509 207.541C183.66 205.649 179.002 207.378 177.384 211.35L162.886 246.935C160.586 252.579 154.646 255.88 148.787 254.205C107.507 242.406 37.3449 200.78 1.14055 111.705C-1.52511 105.147 1.98114 97.741 8.25164 94.4547C15.2169 90.8043 23.7595 85.342 29.3201 78.3553C29.3201 78.3553 -4.0586 24.4237 33.2083 5.59469C56.851 -4.78245 80.7984 2.66186 93.2524 9.09083C94.6538 9.72868 95.8866 10.3059 96.9921 10.8235C105.337 14.7309 106.429 15.2423 118.071 12.7892C146.867 6.22371 176.647 9.63767 198.061 18.5917ZM205.782 88.216C210.081 100.081 215.436 113.778 220.147 122.618C222.774 127.547 227.848 130.364 233.396 131.006C257.48 133.791 265.03 131.555 269.775 129.392C271.918 128.415 273.081 125.997 271.771 124.04C271.771 124.04 253.085 92.9279 243.847 80.7994C243.623 80.4716 243.397 80.1434 243.172 79.8154C238.293 72.7254 233.486 65.7381 248.944 66.0153C204.119 19.6342 163.073 12.198 115.361 22.664C106.083 24.4872 101.019 23.1502 91.4166 18.3287C81.1659 13.1428 66.5803 7.26805 47.7407 10.5901C61.1458 19.3461 72.2545 33.1135 80.0194 45.125C89.7644 60.1995 106.287 71.2718 124.188 69.9405L170.967 66.4614C185.564 65.3758 200.796 74.4545 205.782 88.216ZM207.857 22.2246C213.588 17.058 231.984 7.72903 245.978 12.6551C238.322 13.0143 233.135 16.4313 228.445 19.5212C222.238 23.6108 216.9 27.1276 207.857 22.2246ZM30.1662 114.437C27.3708 104.93 20.3255 95.2632 8.49889 104.902C32.6587 168.059 75.4568 201.729 75.4568 201.729C52.669 177.813 37.8241 137.16 30.1662 114.437ZM197.489 167.542C164.125 168.875 141.963 168.183 130.172 157.836C217.536 119.97 256.249 144.705 256.249 166.97C256.285 188.313 238.944 194.596 215.319 193.34C191.694 192.083 168.762 183.278 157.593 175.717C157.593 175.717 182.32 175.995 197.489 167.542ZM277.636 144.17C272.918 147.469 267.58 155.858 265.946 166.151C258.852 208.044 281.005 166.6 277.636 144.17ZM261.007 196.163C246.492 223.887 209.933 207.355 191.592 197.611C218.312 204.241 241.519 201.922 257.082 194.964C258.23 194.451 259.583 194.684 260.455 195.59L261.007 196.163ZM107.027 79.9523L142.497 77.8199C146.062 77.6056 149.307 79.9339 151.802 82.4888C156.69 87.4949 169.335 92.885 191.649 92.0237C194.661 91.9075 197.577 93.4044 199.041 96.0395C208.61 118.082 201.37 126.285 156.214 138.671C72.8933 161.524 38.6765 85.0357 107.027 79.9523Z" fill="#FF8800"/>
</svg>
