<svg
    width="287"
    height="255"
    viewBox="0 0 287 255"
    fill="none"
    xmlns="http://www.w3.org/2000/svg"
  >
    <path
      fill-rule="evenodd"
      clip-rule="evenodd"
      d="M198.061 18.5918C224.945 -7.22271 285.275 -8.43501 253.527 57.2364C253.527 57.2364 259.49 63.9583 263.238 69.4375C264.238 71.6752 262.87 73.7084 261.385 75.9169C259.68 78.4497 257.821 81.2132 259.202 84.7801C261.262 90.1054 264.506 95.3181 268.232 101.307C272.927 108.853 278.389 117.63 283.216 129.417C291.873 150.558 279.687 183.259 267.983 202.238C247.937 233.303 214.742 220.929 187.509 207.541C183.66 205.649 179.002 207.378 177.384 211.35L162.886 246.935C160.586 252.579 154.646 255.88 148.787 254.205C107.507 242.406 37.3449 200.78 1.14055 111.705C-1.52511 105.147 1.98114 97.7411 8.25164 94.4548C15.2169 90.8044 23.7595 85.3421 29.3201 78.3554C29.3201 78.3554 -4.0586 24.4238 33.2083 5.59475C56.851 -4.78239 80.7984 2.66192 93.2524 9.09089C94.6538 9.72874 95.8866 10.306 96.9921 10.8236C105.337 14.731 106.429 15.2424 118.071 12.7893C146.867 6.22377 176.647 9.63773 198.061 18.5918ZM205.782 88.2161C210.081 100.081 215.436 113.778 220.147 122.618C222.774 127.547 227.848 130.364 233.396 131.006C257.48 133.791 265.03 131.555 269.775 129.392C271.918 128.415 273.081 125.997 271.771 124.04C271.771 124.04 253.085 92.928 243.847 80.7995C243.623 80.4717 243.397 80.1435 243.172 79.8155C238.293 72.7255 233.486 65.7382 248.944 66.0154C204.119 19.6343 163.073 12.1981 115.361 22.6641C106.083 24.4873 101.019 23.1503 91.4166 18.3288C81.1659 13.1429 66.5803 7.26811 47.7407 10.5902C61.1458 19.3462 72.2545 33.1136 80.0194 45.1251C89.7644 60.1996 106.287 71.2719 124.188 69.9406L170.967 66.4615C185.564 65.3759 200.796 74.4546 205.782 88.2161ZM207.857 22.2247C213.588 17.0581 231.984 7.72909 245.978 12.6552C238.322 13.0144 233.135 16.4314 228.445 19.5213C222.238 23.6109 216.9 27.1277 207.857 22.2247ZM30.1662 114.437C27.3708 104.93 20.3255 95.2633 8.49889 104.902C32.6587 168.059 75.4568 201.729 75.4568 201.729C52.669 177.813 37.8241 137.16 30.1662 114.437ZM197.489 167.542C164.125 168.875 141.963 168.183 130.172 157.836C217.536 119.97 256.249 144.705 256.249 166.97C256.285 188.313 238.944 194.596 215.319 193.34C191.694 192.083 168.762 183.278 157.593 175.717C157.593 175.717 182.32 175.995 197.489 167.542ZM277.636 144.17C272.918 147.469 267.58 155.858 265.946 166.151C258.852 208.044 281.005 166.6 277.636 144.17ZM261.007 196.163C246.492 223.887 209.933 207.355 191.592 197.611C218.312 204.241 241.519 201.922 257.082 194.964C258.23 194.451 259.583 194.684 260.455 195.59L261.007 196.163ZM107.027 79.9524L142.497 77.82C146.062 77.6057 149.307 79.934 151.802 82.4889C156.69 87.495 169.335 92.8851 191.649 92.0238C194.661 91.9076 197.577 93.4045 199.041 96.0396C208.61 118.082 201.37 126.285 156.214 138.671C72.8933 161.524 38.6765 85.0358 107.027 79.9524Z"
      fill="black"
    />
  </svg>
