<svg width="40" height="40" viewBox="0 0 40 40" fill="none" xmlns="http://www.w3.org/2000/svg">
<path d="M20 40C31.0457 40 40 31.0457 40 20C40 8.95433 31.0457 0 20 0C8.95433 0 0 8.95433 0 20C0 31.0457 8.95433 40 20 40Z" fill="url(#paint0_linear_1_3)"/>
<path d="M20 40C31.0457 40 40 31.0457 40 20C40 8.95433 31.0457 0 20 0C8.95433 0 0 8.95433 0 20C0 31.0457 8.95433 40 20 40Z" fill="url(#paint1_radial_1_3)" fill-opacity="0.35"/>
<path d="M18.0585 11.781C18.1202 11.6017 18.2883 11.2095 18.6861 10.8901C18.9438 10.6884 19.2016 10.5931 19.3697 10.5483C19.5377 10.5147 19.7451 10.4811 19.9804 10.4811C20.1597 10.4811 20.3166 10.4923 20.4567 10.5091C20.9273 10.5707 21.2467 10.8285 21.3083 10.8733C21.7005 11.1703 21.8686 11.5401 21.9359 11.7137C25.4994 20.1631 28.0543 26.3937 28.2729 27.1725C28.3121 27.3125 28.4185 27.6992 28.2449 28.0577C28.0431 28.4836 27.6397 28.6125 27.5781 28.6293C27.4997 28.6629 27.1355 28.7973 26.7264 28.6405C26.2333 28.45 26.0709 27.9849 26.0485 27.9177C24.0258 22.8918 21.9975 17.8603 19.9748 12.8343C19.2408 14.6777 18.5068 16.5155 17.7784 18.3589C18.2323 18.3645 18.6917 18.3701 19.1455 18.3701C19.2744 18.4261 19.5321 18.5607 19.7227 18.8408C19.9468 19.177 20.0757 19.7261 19.7955 20.1687C19.5489 20.5553 19.1231 20.6449 19.0279 20.6674C18.2883 20.6618 17.5431 20.6561 16.8035 20.6561L13.761 28.2203C13.6826 28.3099 13.4865 28.5228 13.1503 28.6293C12.7917 28.7413 12.4947 28.6685 12.3827 28.6349C12.2762 28.5845 11.9737 28.4107 11.7887 28.0409C11.5591 27.5759 11.6935 27.1445 11.7215 27.0492L14.3773 20.6786C13.9011 20.6674 13.4305 20.6618 12.9542 20.6505C12.8141 20.6001 12.5564 20.4881 12.3715 20.2191C12.0633 19.7765 12.1081 19.1265 12.4611 18.7343C12.6573 18.5158 12.8981 18.4317 13.0214 18.3981C13.7835 18.3925 14.5511 18.3869 15.3131 18.3869C16.2263 16.1905 17.1453 13.9829 18.0585 11.781Z" fill="#E7E6F2"/>
<defs>
<linearGradient id="paint0_linear_1_3" x1="34.365" y1="6.08153" x2="5.7487" y2="33.8173" gradientUnits="userSpaceOnUse">
<stop stop-color="#D372DE"/>
<stop offset="0.5" stop-color="#93AADD"/>
<stop offset="1" stop-color="#73EDF9"/>
</linearGradient>
<radialGradient id="paint1_radial_1_3" cx="0" cy="0" r="1" gradientUnits="userSpaceOnUse" gradientTransform="translate(13.0667 9.56667) rotate(54.1675) scale(33.1388)">
<stop stop-color="white" stop-opacity="0"/>
<stop offset="1" stop-color="#47186B"/>
</radialGradient>
</defs>
</svg>
