<svg viewBox="0 0 77 80" fill="none" xmlns="http://www.w3.org/2000/svg">
<path d="M1.55132 7.12299L15.9228 0.726763C17.2341 0.137989 18.7863 0.726763 19.3751 2.06489C19.9639 3.37625 19.3751 4.92847 18.037 5.51724L3.69231 11.9135C2.38095 12.5022 0.82873 11.9135 0.239956 10.5753C-0.37558 9.26399 0.239956 7.71176 1.55132 7.12299Z" fill="#37BEC1"/>
<path d="M2.35405 15.3926L11.935 11.1374C13.2464 10.5486 14.7986 11.1374 15.3874 12.4755C15.9761 13.7869 15.3874 15.3391 14.0492 15.9279L4.49505 20.1831C3.18369 20.7719 1.63146 20.1831 1.04269 18.845C0.427154 17.5336 1.04269 15.9814 2.35405 15.3926Z" fill="#FBB144"/>
<path d="M7.94716 21.4941L22.3186 15.0979C23.63 14.5091 25.1822 15.0979 25.771 16.436C26.3597 17.7473 25.771 19.2996 24.4328 19.8883L10.0614 26.2846C8.75004 26.8733 7.19781 26.2846 6.60904 24.9464C6.04703 23.6351 6.6358 22.0829 7.94716 21.4941Z" fill="#E4615E"/>
</svg>
