<svg width="56" height="56" viewBox="0 0 56 56" fill="none" xmlns="http://www.w3.org/2000/svg">
<path fill-rule="evenodd" clip-rule="evenodd" d="M39.9157 31.4792C38.8093 36.1259 35.0477 39.7578 30.3171 40.7039C28.9743 40.9709 27.8526 42.0544 27.8526 43.4125V49.9896C27.8526 51.3477 28.9666 52.4693 30.3248 52.332C41.6019 51.1799 50.5595 42.2604 51.6964 31.0443C50.7198 31.1893 49.8499 31.6318 48.9725 32.082C48.0111 32.5703 47.0421 33.0662 45.9052 33.1883C44.2571 33.3638 42.8151 32.7305 41.3577 32.0896C40.8847 31.876 40.404 31.6623 39.9157 31.4792ZM17.4224 49.982C10.1587 46.3959 4.98553 39.2237 4.22253 30.7849C4.45906 30.8917 4.68796 31.0061 4.91686 31.1206C6.28263 31.7844 7.63314 32.433 9.19729 32.2804C10.2731 32.1735 11.1964 31.6928 12.1043 31.2198C13.1802 30.6628 14.2331 30.1134 15.4997 30.1821C16.606 30.2431 17.514 30.7772 18.4143 31.3037C19.1087 31.7081 19.7954 32.1125 20.566 32.3032V47.8761C20.5736 49.5394 18.9255 50.7221 17.4224 49.982Z" fill="#004999"/>
<path fill-rule="evenodd" clip-rule="evenodd" d="M27.8522 7.25372C27.8522 5.89558 28.9662 4.77397 30.3243 4.91131C42.0059 6.10159 51.2 15.6315 51.7875 27.4122C51.7646 27.4122 51.7417 27.4122 51.7112 27.4122C50.4523 27.374 49.4299 27.9234 48.4074 28.4728C47.4461 28.9916 46.4847 29.5104 45.3097 29.5562C43.9668 29.6096 42.8528 29.045 41.7312 28.4728C41.2352 28.221 40.7393 27.9692 40.2205 27.7632C39.8313 22.178 35.7111 17.6153 30.3167 16.5394C28.9738 16.2724 27.8522 15.1889 27.8522 13.8308V7.25372ZM20.5732 28.7245V9.37486C20.5732 7.70389 18.9327 6.52124 17.4296 7.26135C10.0362 10.9085 4.80962 18.2714 4.19922 26.901C4.67228 27.0917 5.12245 27.3206 5.57262 27.5495C6.70186 28.1218 7.80821 28.6864 9.15109 28.633C10.3261 28.5872 11.2951 28.0684 12.2489 27.5495C13.2789 27.0002 14.2937 26.4508 15.5527 26.489C16.7964 26.5271 17.7501 27.1222 18.7115 27.725C19.299 28.1065 19.8941 28.4804 20.5732 28.7245Z" fill="#3F75FF"/>
</svg>
